<svg width="594" height="408" viewBox="0 0 594 408" fill="none" xmlns="http://www.w3.org/2000/svg">
<g filter="url(#filter0_i_87_462)">
<path d="M301.888 0C407.959 0.000448148 632.711 24.9308 632.711 24.9308L675.602 264.786C675.602 264.786 661.419 311.136 520.473 297.977C379.527 284.818 248.809 453.467 113.798 396.031C-21.214 338.596 -8.30724 234.039 14.1704 124.971C36.6481 15.9032 195.817 -0.000448129 301.888 0Z" fill="#20365E" fill-opacity="0.5"/>
</g>
<g filter="url(#filter1_i_87_462)">
<path d="M302.218 18.814C408.289 18.8144 633.037 43.7447 633.037 43.7447L687.029 283.6C687.029 283.6 578.782 261.114 489.978 261.114C401.175 261.114 236.816 418.441 101.804 361.006C-33.2074 303.57 33.9677 238.479 56.4454 129.411C78.923 20.3425 196.147 18.8135 302.218 18.814Z" fill="#262626"/>
</g>
<defs>
<filter id="filter0_i_87_462" x="0" y="-10" width="675.603" height="418" filterUnits="userSpaceOnUse" color-interpolation-filters="sRGB">
<feFlood flood-opacity="0" result="BackgroundImageFix"/>
<feBlend mode="normal" in="SourceGraphic" in2="BackgroundImageFix" result="shape"/>
<feColorMatrix in="SourceAlpha" type="matrix" values="0 0 0 0 0 0 0 0 0 0 0 0 0 0 0 0 0 0 127 0" result="hardAlpha"/>
<feOffset dy="-10"/>
<feGaussianBlur stdDeviation="7.5"/>
<feComposite in2="hardAlpha" operator="arithmetic" k2="-1" k3="1"/>
<feColorMatrix type="matrix" values="0 0 0 0 0.0823529 0 0 0 0 0.0823529 0 0 0 0 0.0823529 0 0 0 0.25 0"/>
<feBlend mode="normal" in2="shape" result="effect1_innerShadow_87_462"/>
</filter>
<filter id="filter1_i_87_462" x="19.7925" y="8.81396" width="667.237" height="364.806" filterUnits="userSpaceOnUse" color-interpolation-filters="sRGB">
<feFlood flood-opacity="0" result="BackgroundImageFix"/>
<feBlend mode="normal" in="SourceGraphic" in2="BackgroundImageFix" result="shape"/>
<feColorMatrix in="SourceAlpha" type="matrix" values="0 0 0 0 0 0 0 0 0 0 0 0 0 0 0 0 0 0 127 0" result="hardAlpha"/>
<feOffset dy="-10"/>
<feGaussianBlur stdDeviation="7.5"/>
<feComposite in2="hardAlpha" operator="arithmetic" k2="-1" k3="1"/>
<feColorMatrix type="matrix" values="0 0 0 0 0.0823529 0 0 0 0 0.0823529 0 0 0 0 0.0823529 0 0 0 0.35 0"/>
<feBlend mode="normal" in2="shape" result="effect1_innerShadow_87_462"/>
</filter>
</defs>
</svg>
