<svg width="1440" height="1187" viewBox="0 0 1440 1187" fill="none" xmlns="http://www.w3.org/2000/svg">
<g filter="url(#filter0_i_87_438)">
<path fill-rule="evenodd" clip-rule="evenodd" d="M0 1L60 20.6766C61.408 21.1308 62.8479 21.5957 64.319 22.0707L64.3449 22.0791L64.345 22.0791C126.618 42.1865 244.786 80.3419 362 84.0791L362 84.0791H403.98C457.788 82.5034 511.597 75.352 565.405 68.2006C618.603 61.1303 671.802 54.06 725 52.3779C801.808 49.9289 879.026 58.6763 956.392 67.4403C999.897 72.3686 1043.45 77.3021 1087 80.2531C1208 87.9051 1328 80.2531 1389 75.8805L1449 72.0545V84.0791V167.158V527.35H1457L1449 530.206V531.176H1446.28L1396.62 548.906L1394.7 549.582C1333.71 570.987 1214.23 612.918 1094.75 621.009C974 629.185 853.25 610.748 732.5 591.793C611.75 573.21 491 562.432 370.25 562.432C249.5 562.432 128.75 564.888 68.375 570.091L8 575.666V527.35H9V167.158H0V1Z" fill="#20365E" fill-opacity="0.5"/>
</g>
<path d="M60 20.6766L59.8442 21.1517L59.8465 21.1525L60 20.6766ZM0 1L0.155807 0.524896L-0.5 0.309828V1H0ZM64.319 22.0707L64.1654 22.5466L64.1654 22.5466L64.319 22.0707ZM64.3449 22.0791L64.503 21.6047L64.4985 21.6033L64.3449 22.0791ZM64.345 22.0791L64.1868 22.5535L64.1913 22.5549L64.345 22.0791ZM362 84.0791L361.984 84.5788L361.984 84.5788L362 84.0791ZM362 84.0791L361.985 84.5789L361.993 84.5791H362V84.0791ZM403.98 84.0791V84.5791H403.987L403.995 84.5789L403.98 84.0791ZM565.405 68.2006L565.471 68.6963L565.405 68.2006ZM725 52.3779L725.016 52.8776L725.016 52.8776L725 52.3779ZM956.392 67.4403L956.335 67.9371L956.392 67.4403ZM1087 80.2531L1086.97 80.7519L1086.97 80.7521L1087 80.2531ZM1389 75.8805L1388.97 75.3815L1388.96 75.3818L1389 75.8805ZM1449 72.0545H1449.5V71.5216L1448.97 71.5555L1449 72.0545ZM1449 527.35H1448.5V527.85H1449V527.35ZM1457 527.35L1457.17 527.821L1457 526.85V527.35ZM1449 530.206L1448.83 529.735L1448.5 529.854V530.206H1449ZM1449 531.176V531.676H1449.5V531.176H1449ZM1446.28 531.176V530.676H1446.2L1446.12 530.705L1446.28 531.176ZM1396.62 548.906L1396.79 549.378L1396.79 549.377L1396.62 548.906ZM1394.7 549.582L1394.53 549.11L1394.7 549.582ZM1094.75 621.009L1094.72 620.51L1094.75 621.009ZM732.5 591.793L732.578 591.299L732.576 591.299L732.5 591.793ZM68.375 570.091L68.3321 569.593L68.329 569.593L68.375 570.091ZM8 575.666H7.5V576.214L8.04597 576.164L8 575.666ZM8 527.35V526.85H7.5V527.35H8ZM9 527.35V527.85H9.5V527.35H9ZM9 167.158H9.5V166.658H9V167.158ZM0 167.158H-0.5V167.658H0V167.158ZM60.1558 20.2015L0.155807 0.524896L-0.155807 1.4751L59.8442 21.1517L60.1558 20.2015ZM64.4727 21.5949C63.0015 21.1199 61.5615 20.655 60.1535 20.2008L59.8465 21.1525C61.2544 21.6066 62.6942 22.0715 64.1654 22.5466L64.4727 21.5949ZM64.4985 21.6033L64.4727 21.5949L64.1654 22.5466L64.1913 22.5549L64.4985 21.6033ZM64.5031 21.6048L64.503 21.6047L64.1868 22.5534L64.1868 22.5535L64.5031 21.6048ZM362.016 83.5793C244.882 79.8447 126.778 41.7126 64.4986 21.6033L64.1913 22.5549C126.458 42.6604 244.69 80.8391 361.984 84.5788L362.016 83.5793ZM362.016 83.5793L362.016 83.5793L361.984 84.5788L361.985 84.5789L362.016 83.5793ZM403.98 83.5791H362V84.5791H403.98V83.5791ZM565.339 67.705C511.526 74.857 457.744 82.0045 403.965 83.5793L403.995 84.5789C457.833 83.0023 511.667 75.8471 565.471 68.6963L565.339 67.705ZM724.984 51.8781C671.757 53.5612 618.533 60.6352 565.339 67.705L565.471 68.6963C618.674 61.6254 671.847 54.5588 725.016 52.8776L724.984 51.8781ZM956.448 66.9435C879.089 58.1802 801.835 49.4278 724.984 51.8781L725.016 52.8776C801.782 50.43 878.964 59.1724 956.335 67.9371L956.448 66.9435ZM1087.03 79.7542C1043.5 76.8042 999.955 71.872 956.448 66.9435L956.335 67.9371C999.839 72.8652 1043.4 77.8001 1086.97 80.7519L1087.03 79.7542ZM1388.96 75.3818C1327.97 79.7541 1208 87.4038 1087.03 79.7541L1086.97 80.7521C1208 88.4064 1328.03 80.752 1389.04 76.3792L1388.96 75.3818ZM1448.97 71.5555L1388.97 75.3815L1389.03 76.3795L1449.03 72.5535L1448.97 71.5555ZM1449.5 84.0791V72.0545H1448.5V84.0791H1449.5ZM1449.5 167.158V84.0791H1448.5V167.158H1449.5ZM1449.5 527.35V167.158H1448.5V527.35H1449.5ZM1449 527.85H1457V526.85H1449V527.85ZM1456.83 526.879L1448.83 529.735L1449.17 530.677L1457.17 527.821L1456.83 526.879ZM1449.5 531.176V530.206H1448.5V531.176H1449.5ZM1446.28 531.676H1449V530.676H1446.28V531.676ZM1446.12 530.705L1396.46 548.435L1396.79 549.377L1446.45 531.647L1446.12 530.705ZM1396.46 548.434L1394.53 549.11L1394.86 550.054L1396.79 549.378L1396.46 548.434ZM1394.53 549.11C1333.54 570.517 1214.12 612.424 1094.72 620.51L1094.78 621.508C1214.34 613.412 1333.88 571.457 1394.86 550.054L1394.53 549.11ZM1094.72 620.51C974.031 628.682 853.335 610.255 732.578 591.299L732.422 592.287C853.165 611.241 973.969 629.688 1094.78 621.508L1094.72 620.51ZM732.576 591.299C611.805 572.713 491.03 561.932 370.25 561.932V562.932C490.97 562.932 611.695 573.707 732.424 592.287L732.576 591.299ZM370.25 561.932C249.501 561.932 128.731 564.387 68.3321 569.593L68.4179 570.589C128.769 565.388 249.499 562.932 370.25 562.932V561.932ZM68.329 569.593L7.95403 575.168L8.04597 576.164L68.421 570.589L68.329 569.593ZM8.5 575.666V527.35H7.5V575.666H8.5ZM8 527.85H9V526.85H8V527.85ZM8.5 167.158V527.35H9.5V167.158H8.5ZM0 167.658H9V166.658H0V167.658ZM-0.5 1V167.158H0.5V1H-0.5Z" fill="#FFBF00"/>
<g filter="url(#filter1_i_87_438)">
<path fill-rule="evenodd" clip-rule="evenodd" d="M-485 564L-402.186 583.677C-400.232 584.133 -398.233 584.601 -396.19 585.079L-396.189 585.079C-310.238 605.186 -147.138 643.342 14.6445 647.079L14.6452 647.079H72.5865C146.855 645.503 221.123 638.352 295.391 631.201C368.817 624.13 442.243 617.06 515.669 615.378C621.683 612.929 728.261 621.676 835.044 630.44C895.091 635.369 955.202 640.302 1015.31 643.253C1182.32 650.905 1347.95 643.253 1432.14 638.88L1514.96 635.054V730.158L1514.96 1090.35H1526L1514.96 1093.21V1094.18H1511.21L1442.67 1111.91L1440.01 1112.58C1355.83 1133.99 1190.92 1175.92 1026.01 1184.01C859.347 1192.19 692.684 1173.75 526.021 1154.79C359.358 1136.21 192.695 1125.43 26.0314 1125.43C-140.632 1125.43 -307.295 1127.89 -390.627 1133.09L-473.958 1138.67V1090.35H-472.578V730.158H-485V564Z" fill="#20365E" fill-opacity="0.5"/>
</g>
<path d="M-402.186 583.677L-402.302 584.163L-402.3 584.164L-402.186 583.677ZM-485 564L-484.884 563.514L-485.5 563.367V564H-485ZM-396.19 585.079L-396.304 585.566L-396.303 585.566L-396.19 585.079ZM-396.189 585.079L-396.075 584.592L-396.076 584.592L-396.189 585.079ZM14.6445 647.079L14.633 647.579H14.6331L14.6445 647.079ZM14.6452 647.079L14.6338 647.579H14.6452V647.079ZM72.5865 647.079V647.579L72.5971 647.579L72.5865 647.079ZM295.391 631.201L295.439 631.698L295.391 631.201ZM515.669 615.378L515.681 615.878L515.681 615.878L515.669 615.378ZM835.044 630.44L835.003 630.939L835.044 630.44ZM1015.31 643.253L1015.29 643.752L1015.29 643.753L1015.31 643.253ZM1432.14 638.88L1432.12 638.381L1432.12 638.381L1432.14 638.88ZM1514.96 635.054H1515.46V634.531L1514.94 634.555L1514.96 635.054ZM1514.96 730.158H1515.46H1514.96ZM1514.96 1090.35H1514.46V1090.85H1514.96V1090.35ZM1526 1090.35L1526.13 1090.83L1526 1089.85V1090.35ZM1514.96 1093.21L1514.83 1092.72L1514.46 1092.82V1093.21H1514.96ZM1514.96 1094.18V1094.68H1515.46V1094.18H1514.96ZM1511.21 1094.18V1093.68H1511.15L1511.08 1093.69L1511.21 1094.18ZM1442.67 1111.91L1442.79 1112.39L1442.79 1112.39L1442.67 1111.91ZM1440.01 1112.58L1439.89 1112.1L1440.01 1112.58ZM1026.01 1184.01L1026.04 1184.51L1026.01 1184.01ZM526.021 1154.79L526.077 1154.3L526.076 1154.3L526.021 1154.79ZM-390.627 1133.09L-390.658 1132.59L-390.66 1132.59L-390.627 1133.09ZM-473.958 1138.67H-474.458V1139.2L-473.925 1139.16L-473.958 1138.67ZM-473.958 1090.35V1089.85H-474.458V1090.35H-473.958ZM-472.578 1090.35V1090.85H-472.078V1090.35H-472.578ZM-472.578 730.158H-472.078V729.658H-472.578V730.158ZM-485 730.158H-485.5V730.658H-485V730.158ZM-402.07 583.19L-484.884 563.514L-485.116 564.486L-402.302 584.163L-402.07 583.19ZM-396.076 584.592C-398.119 584.114 -400.118 583.646 -402.072 583.19L-402.3 584.164C-400.346 584.62 -398.347 585.088 -396.304 585.566L-396.076 584.592ZM-396.076 584.592L-396.077 584.592L-396.303 585.566L-396.302 585.566L-396.076 584.592ZM14.656 646.579C-147.068 642.843 -310.121 604.7 -396.075 584.592L-396.303 585.566C-310.355 605.673 -147.208 643.84 14.633 647.579L14.656 646.579ZM14.6565 646.579L14.6559 646.579L14.6331 647.579L14.6338 647.579L14.6565 646.579ZM72.5865 646.579H14.6452V647.579H72.5865V646.579ZM295.343 630.703C221.072 637.855 146.822 645.004 72.5759 646.579L72.5971 647.579C146.887 646.003 221.174 638.849 295.439 631.698L295.343 630.703ZM515.658 614.878C442.21 616.561 368.766 623.633 295.343 630.703L295.439 631.698C368.868 624.628 442.276 617.559 515.681 615.878L515.658 614.878ZM835.085 629.942C728.307 621.178 621.702 612.428 515.658 614.878L515.681 615.878C621.663 613.43 728.216 622.174 835.003 630.939L835.085 629.942ZM1015.34 642.754C955.236 639.803 895.133 634.87 835.085 629.942L835.003 630.939C895.049 635.867 955.168 640.801 1015.29 643.752L1015.34 642.754ZM1432.12 638.381C1347.93 642.754 1182.32 650.404 1015.34 642.754L1015.29 643.753C1182.32 651.406 1347.97 643.753 1432.17 639.38L1432.12 638.381ZM1514.94 634.555L1432.12 638.381L1432.17 639.38L1514.98 635.554L1514.94 634.555ZM1515.46 730.158V635.054H1514.46V730.158H1515.46ZM1515.46 1090.35L1515.46 730.158H1514.46L1514.46 1090.35H1515.46ZM1514.96 1090.85H1526V1089.85H1514.96V1090.85ZM1525.87 1089.87L1514.83 1092.72L1515.08 1093.69L1526.13 1090.83L1525.87 1089.87ZM1515.46 1094.18V1093.21H1514.46V1094.18H1515.46ZM1511.21 1094.68H1514.96V1093.68H1511.21V1094.68ZM1511.08 1093.69L1442.54 1111.42L1442.79 1112.39L1511.33 1094.66L1511.08 1093.69ZM1442.55 1111.42L1439.89 1112.1L1440.13 1113.07L1442.79 1112.39L1442.55 1111.42ZM1439.89 1112.1C1355.7 1133.5 1190.84 1175.42 1025.99 1183.51L1026.04 1184.51C1191 1176.41 1355.95 1134.47 1440.13 1113.07L1439.89 1112.1ZM1025.99 1183.51C859.37 1191.68 692.746 1173.25 526.077 1154.3L525.964 1155.29C692.622 1174.24 859.325 1192.69 1026.04 1184.51L1025.99 1183.51ZM526.076 1154.3C359.398 1135.71 192.716 1124.93 26.0314 1124.93V1125.93C192.673 1125.93 359.317 1136.71 525.965 1155.29L526.076 1154.3ZM26.0314 1124.93C-140.631 1124.93 -307.309 1127.39 -390.658 1132.59L-390.595 1133.59C-307.281 1128.39 -140.633 1125.93 26.0314 1125.93V1124.93ZM-390.66 1132.59L-473.992 1138.17L-473.925 1139.16L-390.593 1133.59L-390.66 1132.59ZM-473.458 1138.67V1090.35H-474.458V1138.67H-473.458ZM-473.958 1090.85H-472.578V1089.85H-473.958V1090.85ZM-473.078 730.158V1090.35H-472.078V730.158H-473.078ZM-485 730.658H-472.578V729.658H-485V730.658ZM-485.5 564V730.158H-484.5V564H-485.5Z" fill="#FFBF00"/>
<g filter="url(#filter2_i_87_438)">
<path fill-rule="evenodd" clip-rule="evenodd" d="M-14 1L48.965 37.8225C50.4512 38.6774 51.9713 39.5527 53.5245 40.447C118.874 78.0754 242.881 149.478 365.887 156.473H409.946C466.413 153.524 522.879 140.141 579.346 126.758C635.173 113.527 691 100.296 746.827 97.1476C827.431 92.5648 908.465 108.934 989.653 125.335C1035.31 134.558 1081.01 143.791 1126.72 149.313C1253.7 163.633 1379.63 149.313 1443.64 141.13L1506.6 133.97V156.473V311.946V986.002H1515L1506.6 991.347V993.162H1503.75L1451.64 1026.34L1449.62 1027.61C1385.61 1067.66 1260.23 1146.13 1134.85 1161.27C1008.13 1176.57 881.415 1142.07 754.698 1106.6C627.981 1071.82 501.264 1051.65 374.547 1051.65C247.829 1051.65 121.112 1056.25 57.7539 1065.99L-5.60461 1076.42V986.002H-4.5553V311.946H-14V1Z" fill="#262626"/>
</g>
<path d="M48.965 37.8225L48.7126 38.2541L48.7157 38.2559L48.965 37.8225ZM-14 1L-13.7476 0.568388L-14.5 0.128371V1H-14ZM53.5245 40.447L53.275 40.8803L53.5245 40.447ZM365.887 156.473L365.858 156.972L365.872 156.973H365.887V156.473ZM409.946 156.473V156.973H409.959L409.972 156.972L409.946 156.473ZM579.346 126.758L579.23 126.272L579.346 126.758ZM746.827 97.1476L746.855 97.6468L746.855 97.6468L746.827 97.1476ZM989.653 125.335L989.554 125.825L989.653 125.335ZM1126.72 149.313L1126.66 149.809L1126.66 149.81L1126.72 149.313ZM1443.64 141.13L1443.58 140.633L1443.58 140.634L1443.64 141.13ZM1506.6 133.97H1507.1V133.41L1506.55 133.473L1506.6 133.97ZM1506.6 986.002H1506.1V986.502H1506.6V986.002ZM1515 986.002L1515.27 986.424L1516.72 985.502H1515V986.002ZM1506.6 991.347L1506.34 990.925L1506.1 991.073V991.347H1506.6ZM1506.6 993.162V993.662H1507.1V993.162H1506.6ZM1503.75 993.162V992.662H1503.61L1503.49 992.74L1503.75 993.162ZM1451.64 1026.34L1451.91 1026.77L1451.91 1026.76L1451.64 1026.34ZM1449.62 1027.61L1449.35 1027.18L1449.62 1027.61ZM1134.85 1161.27L1134.79 1160.78L1134.85 1161.27ZM754.698 1106.6L754.832 1106.12L754.83 1106.12L754.698 1106.6ZM57.7539 1065.99L57.6779 1065.49L57.6727 1065.49L57.7539 1065.99ZM-5.60461 1076.42H-6.10461V1077.01L-5.52338 1076.91L-5.60461 1076.42ZM-5.60461 986.002V985.502H-6.10461V986.002H-5.60461ZM-4.5553 986.002V986.502H-4.0553V986.002H-4.5553ZM-4.5553 311.946H-4.0553V311.446H-4.5553V311.946ZM-14 311.946H-14.5V312.446H-14V311.946ZM49.2174 37.3909L-13.7476 0.568388L-14.2524 1.43161L48.7126 38.2541L49.2174 37.3909ZM53.774 40.0137C52.2208 39.1194 50.7006 38.244 49.2143 37.3891L48.7157 38.2559C50.2018 39.1107 51.7218 39.986 53.275 40.8803L53.774 40.0137ZM365.915 155.973C243.047 148.987 119.142 77.6525 53.774 40.0137L53.275 40.8803C118.607 78.4983 242.715 149.97 365.858 156.972L365.915 155.973ZM409.946 155.973H365.887V156.973H409.946V155.973ZM579.23 126.272C522.755 139.656 466.333 153.027 409.92 155.973L409.972 156.972C466.492 154.02 523.003 140.625 579.461 127.245L579.23 126.272ZM746.799 96.6484C690.92 99.7992 635.049 113.042 579.23 126.272L579.461 127.245C635.296 114.011 691.08 100.792 746.855 97.6468L746.799 96.6484ZM989.752 124.845C908.576 108.447 827.478 92.0613 746.799 96.6484L746.855 97.6468C827.384 93.0683 908.354 109.422 989.554 125.825L989.752 124.845ZM1126.78 148.816C1081.09 143.297 1035.41 134.069 989.752 124.845L989.554 125.825C1035.21 135.047 1080.93 144.284 1126.66 149.809L1126.78 148.816ZM1443.58 140.634C1379.57 148.816 1253.69 163.129 1126.77 148.816L1126.66 149.81C1253.7 164.137 1379.68 149.81 1443.7 141.626L1443.58 140.634ZM1506.55 133.473L1443.58 140.633L1443.7 141.627L1506.66 134.467L1506.55 133.473ZM1507.1 156.473V133.97H1506.1V156.473H1507.1ZM1507.1 311.946V156.473H1506.1V311.946H1507.1ZM1507.1 986.002V311.946H1506.1V986.002H1507.1ZM1506.6 986.502H1515V985.502H1506.6V986.502ZM1514.73 985.58L1506.34 990.925L1506.87 991.769L1515.27 986.424L1514.73 985.58ZM1507.1 993.162V991.347H1506.1V993.162H1507.1ZM1503.75 993.662H1506.6V992.662H1503.75V993.662ZM1503.49 992.74L1451.37 1025.92L1451.91 1026.76L1504.02 993.583L1503.49 992.74ZM1451.38 1025.92L1449.35 1027.18L1449.88 1028.03L1451.91 1026.77L1451.38 1025.92ZM1449.35 1027.18C1385.33 1067.25 1260.04 1145.65 1134.79 1160.78L1134.91 1161.77C1260.42 1146.61 1385.9 1068.08 1449.88 1028.03L1449.35 1027.18ZM1134.79 1160.78C1008.19 1176.06 881.566 1141.59 754.832 1106.12L754.563 1107.08C881.264 1142.55 1008.08 1177.09 1134.91 1161.77L1134.79 1160.78ZM754.83 1106.12C628.079 1071.33 501.317 1051.15 374.547 1051.15V1052.15C501.21 1052.15 627.882 1072.32 754.565 1107.08L754.83 1106.12ZM374.547 1051.15C247.831 1051.15 121.079 1055.75 57.678 1065.49L57.8299 1066.48C121.146 1056.75 247.828 1052.15 374.547 1052.15V1051.15ZM57.6727 1065.49L-5.68585 1075.93L-5.52338 1076.91L57.8351 1066.48L57.6727 1065.49ZM-5.10461 1076.42V986.002H-6.10461V1076.42H-5.10461ZM-5.60461 986.502H-4.5553V985.502H-5.60461V986.502ZM-5.0553 311.946V986.002H-4.0553V311.946H-5.0553ZM-14 312.446H-4.5553V311.446H-14V312.446ZM-14.5 1V311.946H-13.5V1H-14.5Z" fill="#FFBF00"/>
<defs>
<filter id="filter0_i_87_438" x="-0.5" y="-9.69019" width="1457.67" height="633.19" filterUnits="userSpaceOnUse" color-interpolation-filters="sRGB">
<feFlood flood-opacity="0" result="BackgroundImageFix"/>
<feBlend mode="normal" in="SourceGraphic" in2="BackgroundImageFix" result="shape"/>
<feColorMatrix in="SourceAlpha" type="matrix" values="0 0 0 0 0 0 0 0 0 0 0 0 0 0 0 0 0 0 127 0" result="hardAlpha"/>
<feOffset dy="-10"/>
<feGaussianBlur stdDeviation="7.5"/>
<feComposite in2="hardAlpha" operator="arithmetic" k2="-1" k3="1"/>
<feColorMatrix type="matrix" values="0 0 0 0 0.0823529 0 0 0 0 0.0823529 0 0 0 0 0.0823529 0 0 0 0.25 0"/>
<feBlend mode="normal" in2="shape" result="effect1_innerShadow_87_438"/>
</filter>
<filter id="filter1_i_87_438" x="-485.5" y="553.367" width="2011.63" height="633.133" filterUnits="userSpaceOnUse" color-interpolation-filters="sRGB">
<feFlood flood-opacity="0" result="BackgroundImageFix"/>
<feBlend mode="normal" in="SourceGraphic" in2="BackgroundImageFix" result="shape"/>
<feColorMatrix in="SourceAlpha" type="matrix" values="0 0 0 0 0 0 0 0 0 0 0 0 0 0 0 0 0 0 127 0" result="hardAlpha"/>
<feOffset dy="-10"/>
<feGaussianBlur stdDeviation="7.5"/>
<feComposite in2="hardAlpha" operator="arithmetic" k2="-1" k3="1"/>
<feColorMatrix type="matrix" values="0 0 0 0 0.0823529 0 0 0 0 0.0823529 0 0 0 0 0.0823529 0 0 0 0.25 0"/>
<feBlend mode="normal" in2="shape" result="effect1_innerShadow_87_438"/>
</filter>
<filter id="filter2_i_87_438" x="-14.5" y="-9.87158" width="1531.22" height="1175.37" filterUnits="userSpaceOnUse" color-interpolation-filters="sRGB">
<feFlood flood-opacity="0" result="BackgroundImageFix"/>
<feBlend mode="normal" in="SourceGraphic" in2="BackgroundImageFix" result="shape"/>
<feColorMatrix in="SourceAlpha" type="matrix" values="0 0 0 0 0 0 0 0 0 0 0 0 0 0 0 0 0 0 127 0" result="hardAlpha"/>
<feOffset dy="-10"/>
<feGaussianBlur stdDeviation="7.5"/>
<feComposite in2="hardAlpha" operator="arithmetic" k2="-1" k3="1"/>
<feColorMatrix type="matrix" values="0 0 0 0 0.0823529 0 0 0 0 0.0823529 0 0 0 0 0.0823529 0 0 0 0.35 0"/>
<feBlend mode="normal" in2="shape" result="effect1_innerShadow_87_438"/>
</filter>
</defs>
</svg>
