<svg width="30" height="30" viewBox="0 0 30 30" fill="none" xmlns="http://www.w3.org/2000/svg">
<path d="M9.39403 14.9999C9.39403 18.091 11.9088 20.6056 15 20.6056C18.091 20.6056 20.6056 18.0909 20.6056 14.9999C20.6056 11.9088 18.091 9.39405 15 9.39405C11.9088 9.39405 9.39403 11.9088 9.39403 14.9999Z" fill="#D3D3D3"/>
<path d="M27.9082 7.60025C27.9518 7.52343 27.951 7.4291 27.9059 7.35306C26.6002 5.15391 24.7419 3.31181 22.5322 2.02594C20.2546 0.700526 17.6499 0 15 0C10.4139 0 6.13997 2.0581 3.27393 5.6466C3.21069 5.72568 3.20243 5.83536 3.25308 5.923L7.4757 13.2366C7.51997 13.3133 7.60161 13.3596 7.68856 13.3596C7.69957 13.3596 7.71079 13.3588 7.7219 13.3573C7.82085 13.3438 7.9018 13.2718 7.92679 13.1751C8.75941 9.94901 11.668 7.69585 15 7.69585C15.2068 7.69585 15.4203 7.7053 15.6349 7.72359C15.6419 7.72428 15.649 7.72457 15.656 7.72457H27.6944C27.7829 7.72457 27.8645 7.67716 27.9082 7.60025Z" fill="#D3D3D3"/>
<path d="M17.2166 22.1237C17.1555 22.0447 17.053 22.0108 16.9563 22.0376C16.3212 22.2144 15.663 22.304 15 22.304C12.1829 22.304 9.58643 20.6518 8.38515 18.0948C8.3822 18.0885 8.37895 18.0824 8.37551 18.0763L2.3519 7.64333C2.30803 7.5671 2.22679 7.52038 2.13895 7.52038H2.13767C2.04934 7.52087 1.968 7.56857 1.92472 7.64549C0.665607 9.87976 0 12.4229 0 14.9999C0 18.6152 1.30426 22.1073 3.67249 24.833C6.01721 27.5315 9.24521 29.3074 12.7621 29.8336C12.7743 29.8355 12.7865 29.8363 12.7986 29.8363C12.8854 29.8363 12.9671 29.7901 13.0114 29.7133L17.2351 22.3975C17.2851 22.3109 17.2777 22.2027 17.2166 22.1237Z" fill="#D3D3D3"/>
<path d="M28.7385 9.36533H20.2821C20.1821 9.36533 20.0921 9.42582 20.0545 9.51828C20.0167 9.61074 20.0386 9.71697 20.1099 9.78681C21.5249 11.1739 22.3041 13.0252 22.3041 14.9999C22.3041 16.4948 21.853 17.9334 20.9995 19.1604C20.9956 19.1661 20.9919 19.1719 20.9885 19.1779L14.9545 29.629C14.9103 29.7055 14.9106 29.7998 14.9551 29.8761C14.9993 29.9516 15.0802 29.9978 15.1674 29.9978H15.1702C19.141 29.9535 22.8672 28.3738 25.6622 25.5497C28.4595 22.7233 30 18.9767 30 14.9999C30 13.1097 29.6526 11.2665 28.9674 9.52143C28.9304 9.4272 28.8396 9.36533 28.7385 9.36533Z" fill="#D3D3D3"/>
</svg>
