<svg width="226" height="66" viewBox="0 0 226 66" fill="none" xmlns="http://www.w3.org/2000/svg">
<g filter="url(#filter0_dd_112_1047)">
<rect x="8" y="8" width="210" height="50" rx="8" fill="#121E34"/>
</g>
<path d="M91.8603 39.256C90.9643 39.256 90.1323 39.1173 89.3643 38.84C88.6069 38.552 87.9456 38.1467 87.3803 37.624C86.8256 37.1013 86.3936 36.4827 86.0843 35.768C85.7749 35.0533 85.6203 34.264 85.6203 33.4C85.6203 32.536 85.7749 31.7467 86.0843 31.032C86.3936 30.3173 86.8256 29.6987 87.3803 29.176C87.9456 28.6533 88.6069 28.2533 89.3643 27.976C90.1323 27.688 90.9643 27.544 91.8603 27.544C92.9589 27.544 93.9296 27.736 94.7723 28.12C95.6256 28.504 96.3296 29.0587 96.8843 29.784L94.5003 31.912C94.1696 31.496 93.8016 31.176 93.3963 30.952C93.0016 30.7173 92.5536 30.6 92.0523 30.6C91.6576 30.6 91.3003 30.664 90.9803 30.792C90.6603 30.92 90.3829 31.1067 90.1483 31.352C89.9243 31.5973 89.7483 31.896 89.6203 32.248C89.4923 32.5893 89.4283 32.9733 89.4283 33.4C89.4283 33.8267 89.4923 34.216 89.6203 34.568C89.7483 34.9093 89.9243 35.2027 90.1483 35.448C90.3829 35.6933 90.6603 35.88 90.9803 36.008C91.3003 36.136 91.6576 36.2 92.0523 36.2C92.5536 36.2 93.0016 36.088 93.3963 35.864C93.8016 35.6293 94.1696 35.304 94.5003 34.888L96.8843 37.016C96.3296 37.7307 95.6256 38.2853 94.7723 38.68C93.9296 39.064 92.9589 39.256 91.8603 39.256ZM97.9745 39V27.8H101.751V36.072H106.807V39H97.9745ZM106.79 39L111.686 27.8H115.398L120.294 39H116.39L112.774 29.592H114.246L110.63 39H106.79ZM109.702 37.048L110.662 34.328H115.814L116.774 37.048H109.702ZM120.896 39V27.8H124.672V39H120.896ZM126.49 39V27.8H129.594L134.074 35.112H132.442L136.794 27.8H139.898L139.93 39H136.49L136.458 32.984H137.002L134.026 37.992H132.362L129.258 32.984H129.93V39H126.49Z" fill="#F0F1F5"/>
<path d="M91.8603 39.256C90.9643 39.256 90.1323 39.1173 89.3643 38.84C88.6069 38.552 87.9456 38.1467 87.3803 37.624C86.8256 37.1013 86.3936 36.4827 86.0843 35.768C85.7749 35.0533 85.6203 34.264 85.6203 33.4C85.6203 32.536 85.7749 31.7467 86.0843 31.032C86.3936 30.3173 86.8256 29.6987 87.3803 29.176C87.9456 28.6533 88.6069 28.2533 89.3643 27.976C90.1323 27.688 90.9643 27.544 91.8603 27.544C92.9589 27.544 93.9296 27.736 94.7723 28.12C95.6256 28.504 96.3296 29.0587 96.8843 29.784L94.5003 31.912C94.1696 31.496 93.8016 31.176 93.3963 30.952C93.0016 30.7173 92.5536 30.6 92.0523 30.6C91.6576 30.6 91.3003 30.664 90.9803 30.792C90.6603 30.92 90.3829 31.1067 90.1483 31.352C89.9243 31.5973 89.7483 31.896 89.6203 32.248C89.4923 32.5893 89.4283 32.9733 89.4283 33.4C89.4283 33.8267 89.4923 34.216 89.6203 34.568C89.7483 34.9093 89.9243 35.2027 90.1483 35.448C90.3829 35.6933 90.6603 35.88 90.9803 36.008C91.3003 36.136 91.6576 36.2 92.0523 36.2C92.5536 36.2 93.0016 36.088 93.3963 35.864C93.8016 35.6293 94.1696 35.304 94.5003 34.888L96.8843 37.016C96.3296 37.7307 95.6256 38.2853 94.7723 38.68C93.9296 39.064 92.9589 39.256 91.8603 39.256ZM97.9745 39V27.8H101.751V36.072H106.807V39H97.9745ZM106.79 39L111.686 27.8H115.398L120.294 39H116.39L112.774 29.592H114.246L110.63 39H106.79ZM109.702 37.048L110.662 34.328H115.814L116.774 37.048H109.702ZM120.896 39V27.8H124.672V39H120.896ZM126.49 39V27.8H129.594L134.074 35.112H132.442L136.794 27.8H139.898L139.93 39H136.49L136.458 32.984H137.002L134.026 37.992H132.362L129.258 32.984H129.93V39H126.49Z" fill="url(#paint0_linear_112_1047)" fill-opacity="0.6" style="mix-blend-mode:soft-light"/>
<defs>
<filter id="filter0_dd_112_1047" x="0" y="0" width="226" height="66" filterUnits="userSpaceOnUse" color-interpolation-filters="sRGB">
<feFlood flood-opacity="0" result="BackgroundImageFix"/>
<feColorMatrix in="SourceAlpha" type="matrix" values="0 0 0 0 0 0 0 0 0 0 0 0 0 0 0 0 0 0 127 0" result="hardAlpha"/>
<feOffset dx="4" dy="4"/>
<feGaussianBlur stdDeviation="2"/>
<feColorMatrix type="matrix" values="0 0 0 0 0.0235294 0 0 0 0 0.0470588 0 0 0 0 0.0941176 0 0 0 1 0"/>
<feBlend mode="normal" in2="BackgroundImageFix" result="effect1_dropShadow_112_1047"/>
<feColorMatrix in="SourceAlpha" type="matrix" values="0 0 0 0 0 0 0 0 0 0 0 0 0 0 0 0 0 0 127 0" result="hardAlpha"/>
<feOffset dx="-4" dy="-4"/>
<feGaussianBlur stdDeviation="2"/>
<feColorMatrix type="matrix" values="0 0 0 0 0.227451 0 0 0 0 0.266667 0 0 0 0 0.364706 0 0 0 0.5 0"/>
<feBlend mode="normal" in2="effect1_dropShadow_112_1047" result="effect2_dropShadow_112_1047"/>
<feBlend mode="normal" in="SourceGraphic" in2="effect2_dropShadow_112_1047" result="shape"/>
</filter>
<linearGradient id="paint0_linear_112_1047" x1="218" y1="58" x2="195.468" y2="-36.6352" gradientUnits="userSpaceOnUse">
<stop/>
<stop offset="1" stop-color="white" stop-opacity="0"/>
</linearGradient>
</defs>
</svg>
