<svg width="210" height="50" viewBox="0 0 210 50" fill="none" xmlns="http://www.w3.org/2000/svg">
<g filter="url(#filter0_ii_112_1176)">
<rect width="210" height="50" rx="8" fill="#121E34"/>
</g>
<path d="M83.8603 31.256C82.9643 31.256 82.1323 31.1173 81.3643 30.84C80.6069 30.552 79.9456 30.1467 79.3803 29.624C78.8256 29.1013 78.3936 28.4827 78.0843 27.768C77.7749 27.0533 77.6203 26.264 77.6203 25.4C77.6203 24.536 77.7749 23.7467 78.0843 23.032C78.3936 22.3173 78.8256 21.6987 79.3803 21.176C79.9456 20.6533 80.6069 20.2533 81.3643 19.976C82.1323 19.688 82.9643 19.544 83.8603 19.544C84.9589 19.544 85.9296 19.736 86.7723 20.12C87.6256 20.504 88.3296 21.0587 88.8843 21.784L86.5003 23.912C86.1696 23.496 85.8016 23.176 85.3963 22.952C85.0016 22.7173 84.5536 22.6 84.0523 22.6C83.6576 22.6 83.3003 22.664 82.9803 22.792C82.6603 22.92 82.3829 23.1067 82.1483 23.352C81.9243 23.5973 81.7483 23.896 81.6203 24.248C81.4923 24.5893 81.4283 24.9733 81.4283 25.4C81.4283 25.8267 81.4923 26.216 81.6203 26.568C81.7483 26.9093 81.9243 27.2027 82.1483 27.448C82.3829 27.6933 82.6603 27.88 82.9803 28.008C83.3003 28.136 83.6576 28.2 84.0523 28.2C84.5536 28.2 85.0016 28.088 85.3963 27.864C85.8016 27.6293 86.1696 27.304 86.5003 26.888L88.8843 29.016C88.3296 29.7307 87.6256 30.2853 86.7723 30.68C85.9296 31.064 84.9589 31.256 83.8603 31.256ZM89.9745 31V19.8H93.7505V28.072H98.8065V31H89.9745ZM98.7897 31L103.686 19.8H107.398L112.294 31H108.39L104.774 21.592H106.246L102.63 31H98.7897ZM101.702 29.048L102.662 26.328H107.814L108.774 29.048H101.702ZM112.896 31V19.8H116.672V31H112.896ZM118.49 31V19.8H121.594L126.074 27.112H124.442L128.794 19.8H131.898L131.93 31H128.49L128.458 24.984H129.002L126.026 29.992H124.362L121.258 24.984H121.93V31H118.49Z" fill="#F0F1F5"/>
<path d="M83.8603 31.256C82.9643 31.256 82.1323 31.1173 81.3643 30.84C80.6069 30.552 79.9456 30.1467 79.3803 29.624C78.8256 29.1013 78.3936 28.4827 78.0843 27.768C77.7749 27.0533 77.6203 26.264 77.6203 25.4C77.6203 24.536 77.7749 23.7467 78.0843 23.032C78.3936 22.3173 78.8256 21.6987 79.3803 21.176C79.9456 20.6533 80.6069 20.2533 81.3643 19.976C82.1323 19.688 82.9643 19.544 83.8603 19.544C84.9589 19.544 85.9296 19.736 86.7723 20.12C87.6256 20.504 88.3296 21.0587 88.8843 21.784L86.5003 23.912C86.1696 23.496 85.8016 23.176 85.3963 22.952C85.0016 22.7173 84.5536 22.6 84.0523 22.6C83.6576 22.6 83.3003 22.664 82.9803 22.792C82.6603 22.92 82.3829 23.1067 82.1483 23.352C81.9243 23.5973 81.7483 23.896 81.6203 24.248C81.4923 24.5893 81.4283 24.9733 81.4283 25.4C81.4283 25.8267 81.4923 26.216 81.6203 26.568C81.7483 26.9093 81.9243 27.2027 82.1483 27.448C82.3829 27.6933 82.6603 27.88 82.9803 28.008C83.3003 28.136 83.6576 28.2 84.0523 28.2C84.5536 28.2 85.0016 28.088 85.3963 27.864C85.8016 27.6293 86.1696 27.304 86.5003 26.888L88.8843 29.016C88.3296 29.7307 87.6256 30.2853 86.7723 30.68C85.9296 31.064 84.9589 31.256 83.8603 31.256ZM89.9745 31V19.8H93.7505V28.072H98.8065V31H89.9745ZM98.7897 31L103.686 19.8H107.398L112.294 31H108.39L104.774 21.592H106.246L102.63 31H98.7897ZM101.702 29.048L102.662 26.328H107.814L108.774 29.048H101.702ZM112.896 31V19.8H116.672V31H112.896ZM118.49 31V19.8H121.594L126.074 27.112H124.442L128.794 19.8H131.898L131.93 31H128.49L128.458 24.984H129.002L126.026 29.992H124.362L121.258 24.984H121.93V31H118.49Z" fill="url(#paint0_linear_112_1176)" fill-opacity="0.6" style="mix-blend-mode:soft-light"/>
<defs>
<filter id="filter0_ii_112_1176" x="-4" y="-4" width="218" height="58" filterUnits="userSpaceOnUse" color-interpolation-filters="sRGB">
<feFlood flood-opacity="0" result="BackgroundImageFix"/>
<feBlend mode="normal" in="SourceGraphic" in2="BackgroundImageFix" result="shape"/>
<feColorMatrix in="SourceAlpha" type="matrix" values="0 0 0 0 0 0 0 0 0 0 0 0 0 0 0 0 0 0 127 0" result="hardAlpha"/>
<feOffset dx="4" dy="4"/>
<feGaussianBlur stdDeviation="2"/>
<feComposite in2="hardAlpha" operator="arithmetic" k2="-1" k3="1"/>
<feColorMatrix type="matrix" values="0 0 0 0 0.0235294 0 0 0 0 0.0470588 0 0 0 0 0.0941176 0 0 0 1 0"/>
<feBlend mode="normal" in2="shape" result="effect1_innerShadow_112_1176"/>
<feColorMatrix in="SourceAlpha" type="matrix" values="0 0 0 0 0 0 0 0 0 0 0 0 0 0 0 0 0 0 127 0" result="hardAlpha"/>
<feOffset dx="-4" dy="-4"/>
<feGaussianBlur stdDeviation="2"/>
<feComposite in2="hardAlpha" operator="arithmetic" k2="-1" k3="1"/>
<feColorMatrix type="matrix" values="0 0 0 0 0.227451 0 0 0 0 0.266667 0 0 0 0 0.364706 0 0 0 0.5 0"/>
<feBlend mode="normal" in2="effect1_innerShadow_112_1176" result="effect2_innerShadow_112_1176"/>
</filter>
<linearGradient id="paint0_linear_112_1176" x1="210" y1="50" x2="187.468" y2="-44.6352" gradientUnits="userSpaceOnUse">
<stop/>
<stop offset="1" stop-color="white" stop-opacity="0"/>
</linearGradient>
</defs>
</svg>
