<svg width="35" height="35" viewBox="0 0 35 35" fill="none" xmlns="http://www.w3.org/2000/svg">
<path fill-rule="evenodd" clip-rule="evenodd" d="M17.5 0.700195C7.83125 0.700195 0 8.40835 0 17.9251C0 25.5472 5.00938 31.985 11.9656 34.2673C12.8406 34.418 13.1687 33.9013 13.1687 33.4491C13.1687 33.04 13.1469 31.6835 13.1469 30.241C8.75 31.0376 7.6125 29.1859 7.2625 28.217C7.06563 27.7218 6.2125 26.1931 5.46875 25.784C4.85625 25.461 3.98125 24.6644 5.44688 24.6429C6.825 24.6213 7.80938 25.8917 8.1375 26.4084C9.7125 29.0137 12.2281 28.2816 13.2344 27.8295C13.3875 26.7098 13.8469 25.9563 14.35 25.5256C10.4563 25.095 6.3875 23.6094 6.3875 17.0208C6.3875 15.1476 7.06563 13.5974 8.18125 12.3916C8.00625 11.961 7.39375 10.1954 8.35625 7.82701C8.35625 7.82701 9.82187 7.37486 13.1687 9.59257C14.5688 9.20501 16.0562 9.01123 17.5438 9.01123C19.0312 9.01123 20.5188 9.20501 21.9188 9.59257C25.2656 7.35333 26.7313 7.82701 26.7313 7.82701C27.6938 10.1954 27.0813 11.961 26.9063 12.3916C28.0219 13.5974 28.7 15.1261 28.7 17.0208C28.7 23.6309 24.6094 25.095 20.7156 25.5256C21.35 26.0639 21.8969 27.0974 21.8969 28.7122C21.8969 31.0161 21.875 32.8678 21.875 33.4491C21.875 33.9013 22.2031 34.4395 23.0781 34.2673C26.5521 33.1128 29.5709 30.9151 31.7095 27.9836C33.8481 25.052 34.999 21.5342 35 17.9251C35 8.40835 27.1688 0.700195 17.5 0.700195Z" fill="#60BFCF"/>
</svg>
