<svg width="1440" height="909" viewBox="0 0 1440 909" fill="none" xmlns="http://www.w3.org/2000/svg">
<g filter="url(#filter0_i_87_433)">
<path fill-rule="evenodd" clip-rule="evenodd" d="M1611 40.8407H-12V560.868V908H42.1C96.2 908 204.4 908 312.6 859.75C351.166 842.552 389.733 819.224 428.299 795.896C497.933 753.776 567.566 711.656 637.2 705.618C694.43 700.656 751.659 719.691 808.889 738.726C859.859 755.679 910.83 772.632 961.8 772.632C1034.36 772.632 1106.92 738.278 1179.47 703.923C1215.12 687.048 1250.76 670.172 1286.4 657.368C1394.6 618.5 1502.8 618.5 1556.9 618.5H1611L1611 560.868V40.8407Z" fill="#20365E" fill-opacity="0.5"/>
</g>
<path d="M-12 40.8407V40.3407H-12.5V40.8407H-12ZM1611 40.8407H1611.5V40.3407H1611V40.8407ZM-12 908H-12.5V908.5H-12V908ZM312.6 859.75L312.396 859.293L312.6 859.75ZM428.299 795.896L428.558 796.324L428.299 795.896ZM637.2 705.618L637.157 705.12L637.2 705.618ZM808.889 738.726L808.731 739.2L808.889 738.726ZM1179.47 703.923L1179.26 703.471L1179.47 703.923ZM1286.4 657.368L1286.23 656.898L1286.4 657.368ZM1611 618.5V619H1611.5V618.5H1611ZM1611 560.868H1610.5H1611ZM-12 41.3407H1611V40.3407H-12V41.3407ZM-11.5 560.868V40.8407H-12.5V560.868H-11.5ZM-12.5 560.868V908H-11.5V560.868H-12.5ZM-12 908.5H42.1V907.5H-12V908.5ZM42.1 908.5C96.2026 908.5 204.498 908.504 312.804 860.207L312.396 859.293C204.302 907.496 96.1974 907.5 42.1 907.5V908.5ZM312.804 860.207C351.404 842.994 389.997 819.648 428.558 796.324L428.04 795.468C389.468 818.8 350.929 842.11 312.396 859.293L312.804 860.207ZM428.558 796.324C498.222 754.186 567.749 712.142 637.243 706.116L637.157 705.12C567.384 711.17 497.644 753.366 428.04 795.468L428.558 796.324ZM637.243 706.116C694.351 701.164 751.48 720.158 808.731 739.2L809.047 738.251C751.839 719.224 694.508 700.147 637.157 705.12L637.243 706.116ZM808.731 739.2C859.685 756.148 910.734 773.132 961.8 773.132V772.132C910.925 772.132 860.034 755.21 809.047 738.251L808.731 739.2ZM961.8 773.132C1034.49 773.132 1107.16 738.717 1179.69 704.375L1179.26 703.471C1106.67 737.838 1034.22 772.132 961.8 772.132V773.132ZM1179.69 704.375C1215.33 687.497 1250.95 670.633 1286.57 657.839L1286.23 656.898C1250.56 669.711 1214.9 686.598 1179.26 703.471L1179.69 704.375ZM1286.57 657.839C1394.68 619.003 1502.8 619 1556.9 619V618C1502.8 618 1394.52 617.997 1286.23 656.898L1286.57 657.839ZM1556.9 619H1611V618H1556.9V619ZM1611.5 618.5L1611.5 560.868H1610.5L1610.5 618.5H1611.5ZM1610.5 40.8407V560.868H1611.5V40.8407H1610.5Z" fill="#FFBF00"/>
<g filter="url(#filter1_i_87_433)">
<path fill-rule="evenodd" clip-rule="evenodd" d="M1450.53 1H-12V521.027V868.159H36.7509C85.5019 868.159 183.004 868.159 280.506 819.909C315.259 802.711 350.012 779.383 384.765 756.055C447.514 713.935 510.263 671.815 573.011 665.777C624.582 660.815 676.154 679.85 727.725 698.885C773.656 715.838 819.586 732.791 865.517 732.791C930.9 732.791 996.284 698.437 1061.67 664.083C1093.79 647.207 1125.9 630.331 1158.02 617.527C1255.52 578.659 1353.03 578.659 1401.78 578.659H1450.53V521.027V1Z" fill="#262626"/>
</g>
<path d="M-12 1V0.5H-12.5V1H-12ZM1450.53 1H1451.03V0.5H1450.53V1ZM-12 868.159H-12.5V868.659H-12V868.159ZM280.506 819.909L280.284 819.461L280.506 819.909ZM384.765 756.055L385.044 756.47L384.765 756.055ZM573.011 665.777L572.963 665.28L573.011 665.777ZM727.725 698.885L727.552 699.354L727.725 698.885ZM1061.67 664.083L1061.43 663.64L1061.67 664.083ZM1158.02 617.527L1157.84 617.063L1158.02 617.527ZM1450.53 578.659V579.159H1451.03V578.659H1450.53ZM-12 1.5H1450.53V0.5H-12V1.5ZM-11.5 521.027V1H-12.5V521.027H-11.5ZM-12.5 521.027V868.159H-11.5V521.027H-12.5ZM-12 868.659H36.7509V867.659H-12V868.659ZM36.7509 868.659C85.5061 868.659 183.112 868.663 280.727 820.357L280.284 819.461C182.895 867.655 85.4977 867.659 36.7509 867.659V868.659ZM280.727 820.357C315.516 803.142 350.297 779.794 385.044 756.47L384.486 755.64C349.727 778.972 315.002 802.281 280.284 819.461L280.727 820.357ZM385.044 756.47C416.423 735.407 447.775 714.363 479.121 697.828C510.468 681.293 541.776 669.285 573.059 666.275L572.963 665.28C541.498 668.307 510.057 680.379 478.655 696.943C447.253 713.508 415.856 734.583 384.486 755.64L385.044 756.47ZM573.059 666.275C624.496 661.326 675.955 680.31 727.552 699.354L727.898 698.416C676.352 679.39 624.669 660.305 572.963 665.28L573.059 666.275ZM727.552 699.354C773.463 716.3 819.48 733.291 865.517 733.291V732.291C819.692 732.291 773.848 715.376 727.898 698.416L727.552 699.354ZM865.517 733.291C931.048 733.291 996.548 698.863 1061.9 664.525L1061.43 663.64C996.02 698.011 930.753 732.291 865.517 732.291V733.291ZM1061.9 664.525C1094.02 647.647 1126.12 630.784 1158.21 617.992L1157.84 617.063C1125.69 629.878 1093.55 646.767 1061.43 663.64L1061.9 664.525ZM1158.21 617.992C1255.61 579.163 1353.03 579.159 1401.78 579.159V578.159C1353.02 578.159 1255.44 578.156 1157.84 617.063L1158.21 617.992ZM1401.78 579.159H1450.53V578.159H1401.78V579.159ZM1451.03 578.659V521.027H1450.03V578.659H1451.03ZM1450.03 1V521.027H1451.03V1H1450.03Z" fill="#FFBF00"/>
<defs>
<filter id="filter0_i_87_433" x="-12.5" y="30.3407" width="1624" height="878.159" filterUnits="userSpaceOnUse" color-interpolation-filters="sRGB">
<feFlood flood-opacity="0" result="BackgroundImageFix"/>
<feBlend mode="normal" in="SourceGraphic" in2="BackgroundImageFix" result="shape"/>
<feColorMatrix in="SourceAlpha" type="matrix" values="0 0 0 0 0 0 0 0 0 0 0 0 0 0 0 0 0 0 127 0" result="hardAlpha"/>
<feOffset dy="-10"/>
<feGaussianBlur stdDeviation="7.5"/>
<feComposite in2="hardAlpha" operator="arithmetic" k2="-1" k3="1"/>
<feColorMatrix type="matrix" values="0 0 0 0 0.0823529 0 0 0 0 0.0823529 0 0 0 0 0.0823529 0 0 0 0.25 0"/>
<feBlend mode="normal" in2="shape" result="effect1_innerShadow_87_433"/>
</filter>
<filter id="filter1_i_87_433" x="-12.5" y="-9.5" width="1463.53" height="878.159" filterUnits="userSpaceOnUse" color-interpolation-filters="sRGB">
<feFlood flood-opacity="0" result="BackgroundImageFix"/>
<feBlend mode="normal" in="SourceGraphic" in2="BackgroundImageFix" result="shape"/>
<feColorMatrix in="SourceAlpha" type="matrix" values="0 0 0 0 0 0 0 0 0 0 0 0 0 0 0 0 0 0 127 0" result="hardAlpha"/>
<feOffset dy="-10"/>
<feGaussianBlur stdDeviation="7.5"/>
<feComposite in2="hardAlpha" operator="arithmetic" k2="-1" k3="1"/>
<feColorMatrix type="matrix" values="0 0 0 0 0.0823529 0 0 0 0 0.0823529 0 0 0 0 0.0823529 0 0 0 0.35 0"/>
<feBlend mode="normal" in2="shape" result="effect1_innerShadow_87_433"/>
</filter>
</defs>
</svg>
