<svg width="212" height="100" viewBox="0 0 212 100" fill="none" xmlns="http://www.w3.org/2000/svg">
<rect x="0.5" y="0.5" width="211" height="99" rx="7.5" fill="white" fill-opacity="0.54" stroke="#D3D3D3"/>
<rect x="0.5" y="55.5" width="211" height="29" fill="#121E34" stroke="#D3D3D3"/>
<path fill-rule="evenodd" clip-rule="evenodd" d="M116 70C116 75.5225 111.522 80 106 80C100.477 80 96 75.5225 96 70C96 64.4775 100.477 60 106 60C111.522 60 116 64.4775 116 70ZM106.358 67.3825C105.386 67.7867 103.442 68.6242 100.527 69.8942C100.053 70.0825 99.805 70.2667 99.7825 70.4467C99.7442 70.7517 100.126 70.8717 100.644 71.0342C100.715 71.0567 100.788 71.0792 100.863 71.1042C101.374 71.27 102.061 71.4642 102.418 71.4717C102.742 71.4783 103.103 71.345 103.503 71.0717C106.226 69.2325 107.632 68.3033 107.72 68.2833C107.783 68.2692 107.869 68.2508 107.927 68.3033C107.986 68.355 107.98 68.4533 107.974 68.48C107.936 68.6408 106.441 70.0317 105.666 70.7517C105.424 70.9758 105.253 71.135 105.218 71.1717C105.14 71.2525 105.06 71.33 104.983 71.4042C104.508 71.8608 104.153 72.2042 105.003 72.7642C105.412 73.0333 105.738 73.2558 106.064 73.4775C106.42 73.72 106.775 73.9617 107.235 74.2633C107.352 74.34 107.463 74.4192 107.573 74.4967C107.987 74.7925 108.359 75.0575 108.819 75.0158C109.086 74.9908 109.362 74.74 109.502 73.9908C109.833 72.2192 110.485 68.3825 110.636 66.8008C110.645 66.6695 110.639 66.5376 110.619 66.4075C110.607 66.3024 110.556 66.2058 110.476 66.1367C110.357 66.0392 110.172 66.0183 110.088 66.02C109.712 66.0267 109.136 66.2275 106.358 67.3825Z" fill="white" fill-opacity="0.54"/>
<path d="M21.26 23.6H22.46V32H21.26V23.6ZM27.1348 23.972C26.4468 23.972 26.1028 24.344 26.1028 25.088V25.64H27.9508V26.588H26.1268V32H24.9748V26.588H23.8948V25.64H24.9748V25.076C24.9748 24.444 25.1588 23.944 25.5268 23.576C25.8948 23.208 26.4108 23.024 27.0748 23.024C27.3308 23.024 27.5708 23.056 27.7948 23.12C28.0188 23.184 28.2108 23.276 28.3708 23.396L28.0228 24.272C27.7588 24.072 27.4628 23.972 27.1348 23.972ZM37.888 25.64L34.804 32.636C34.532 33.284 34.212 33.74 33.844 34.004C33.484 34.268 33.048 34.4 32.536 34.4C32.224 34.4 31.92 34.348 31.624 34.244C31.336 34.148 31.096 34.004 30.904 33.812L31.396 32.948C31.724 33.26 32.104 33.416 32.536 33.416C32.816 33.416 33.048 33.34 33.232 33.188C33.424 33.044 33.596 32.792 33.748 32.432L33.952 31.988L31.144 25.64H32.344L34.564 30.728L36.76 25.64H37.888ZM41.5113 32.072C40.8793 32.072 40.3113 31.932 39.8073 31.652C39.3033 31.372 38.9073 30.988 38.6193 30.5C38.3393 30.004 38.1993 29.444 38.1993 28.82C38.1993 28.196 38.3393 27.64 38.6193 27.152C38.9073 26.656 39.3033 26.272 39.8073 26C40.3113 25.72 40.8793 25.58 41.5113 25.58C42.1433 25.58 42.7073 25.72 43.2033 26C43.7073 26.272 44.0993 26.656 44.3793 27.152C44.6673 27.64 44.8113 28.196 44.8113 28.82C44.8113 29.444 44.6673 30.004 44.3793 30.5C44.0993 30.988 43.7073 31.372 43.2033 31.652C42.7073 31.932 42.1433 32.072 41.5113 32.072ZM41.5113 31.064C41.9193 31.064 42.2833 30.972 42.6033 30.788C42.9313 30.596 43.1873 30.332 43.3713 29.996C43.5553 29.652 43.6473 29.26 43.6473 28.82C43.6473 28.38 43.5553 27.992 43.3713 27.656C43.1873 27.312 42.9313 27.048 42.6033 26.864C42.2833 26.68 41.9193 26.588 41.5113 26.588C41.1033 26.588 40.7353 26.68 40.4073 26.864C40.0873 27.048 39.8313 27.312 39.6393 27.656C39.4553 27.992 39.3633 28.38 39.3633 28.82C39.3633 29.26 39.4553 29.652 39.6393 29.996C39.8313 30.332 40.0873 30.596 40.4073 30.788C40.7353 30.972 41.1033 31.064 41.5113 31.064ZM52.3325 25.64V32H51.2405V31.04C51.0085 31.368 50.7005 31.624 50.3165 31.808C49.9405 31.984 49.5285 32.072 49.0805 32.072C48.2325 32.072 47.5645 31.84 47.0765 31.376C46.5885 30.904 46.3445 30.212 46.3445 29.3V25.64H47.4965V29.168C47.4965 29.784 47.6445 30.252 47.9405 30.572C48.2365 30.884 48.6605 31.04 49.2125 31.04C49.8205 31.04 50.3005 30.856 50.6525 30.488C51.0045 30.12 51.1805 29.6 51.1805 28.928V25.64H52.3325ZM61.1443 25.58C61.9523 25.58 62.5923 25.816 63.0643 26.288C63.5443 26.752 63.7843 27.436 63.7843 28.34V32H62.6323V28.472C62.6323 27.856 62.4843 27.392 62.1883 27.08C61.8923 26.768 61.4683 26.612 60.9163 26.612C60.2923 26.612 59.8003 26.796 59.4403 27.164C59.0803 27.524 58.9003 28.044 58.9003 28.724V32H57.7483V25.64H58.8523V26.6C59.0843 26.272 59.3963 26.02 59.7883 25.844C60.1883 25.668 60.6403 25.58 61.1443 25.58ZM71.6994 28.856C71.6994 28.944 71.6914 29.06 71.6754 29.204H66.5154C66.5874 29.764 66.8314 30.216 67.2474 30.56C67.6714 30.896 68.1954 31.064 68.8194 31.064C69.5794 31.064 70.1914 30.808 70.6554 30.296L71.2914 31.04C71.0034 31.376 70.6434 31.632 70.2114 31.808C69.7874 31.984 69.3114 32.072 68.7834 32.072C68.1114 32.072 67.5154 31.936 66.9954 31.664C66.4754 31.384 66.0714 30.996 65.7834 30.5C65.5034 30.004 65.3634 29.444 65.3634 28.82C65.3634 28.204 65.4994 27.648 65.7714 27.152C66.0514 26.656 66.4314 26.272 66.9114 26C67.3994 25.72 67.9474 25.58 68.5554 25.58C69.1634 25.58 69.7034 25.72 70.1754 26C70.6554 26.272 71.0274 26.656 71.2914 27.152C71.5634 27.648 71.6994 28.216 71.6994 28.856ZM68.5554 26.552C68.0034 26.552 67.5394 26.72 67.1634 27.056C66.7954 27.392 66.5794 27.832 66.5154 28.376H70.5954C70.5314 27.84 70.3114 27.404 69.9354 27.068C69.5674 26.724 69.1074 26.552 68.5554 26.552ZM79.047 28.856C79.047 28.944 79.039 29.06 79.023 29.204H73.863C73.935 29.764 74.179 30.216 74.595 30.56C75.019 30.896 75.543 31.064 76.167 31.064C76.927 31.064 77.539 30.808 78.003 30.296L78.639 31.04C78.351 31.376 77.991 31.632 77.559 31.808C77.135 31.984 76.659 32.072 76.131 32.072C75.459 32.072 74.863 31.936 74.343 31.664C73.823 31.384 73.419 30.996 73.131 30.5C72.851 30.004 72.711 29.444 72.711 28.82C72.711 28.204 72.847 27.648 73.119 27.152C73.399 26.656 73.779 26.272 74.259 26C74.747 25.72 75.295 25.58 75.903 25.58C76.511 25.58 77.051 25.72 77.523 26C78.003 26.272 78.375 26.656 78.639 27.152C78.911 27.648 79.047 28.216 79.047 28.856ZM75.903 26.552C75.351 26.552 74.887 26.72 74.511 27.056C74.143 27.392 73.927 27.832 73.863 28.376H77.943C77.879 27.84 77.659 27.404 77.283 27.068C76.915 26.724 76.455 26.552 75.903 26.552ZM86.6467 23.096V32H85.5427V30.992C85.2867 31.344 84.9627 31.612 84.5707 31.796C84.1787 31.98 83.7467 32.072 83.2747 32.072C82.6587 32.072 82.1067 31.936 81.6187 31.664C81.1307 31.392 80.7467 31.012 80.4667 30.524C80.1947 30.028 80.0587 29.46 80.0587 28.82C80.0587 28.18 80.1947 27.616 80.4667 27.128C80.7467 26.64 81.1307 26.26 81.6187 25.988C82.1067 25.716 82.6587 25.58 83.2747 25.58C83.7307 25.58 84.1507 25.668 84.5347 25.844C84.9187 26.012 85.2387 26.264 85.4947 26.6V23.096H86.6467ZM83.3707 31.064C83.7707 31.064 84.1347 30.972 84.4627 30.788C84.7907 30.596 85.0467 30.332 85.2307 29.996C85.4147 29.652 85.5067 29.26 85.5067 28.82C85.5067 28.38 85.4147 27.992 85.2307 27.656C85.0467 27.312 84.7907 27.048 84.4627 26.864C84.1347 26.68 83.7707 26.588 83.3707 26.588C82.9627 26.588 82.5947 26.68 82.2667 26.864C81.9467 27.048 81.6907 27.312 81.4987 27.656C81.3147 27.992 81.2227 28.38 81.2227 28.82C81.2227 29.26 81.3147 29.652 81.4987 29.996C81.6907 30.332 81.9467 30.596 82.2667 30.788C82.5947 30.972 82.9627 31.064 83.3707 31.064ZM94.365 25.58C95.245 25.58 95.917 25.796 96.381 26.228C96.853 26.66 97.089 27.304 97.089 28.16V32H95.997V31.16C95.805 31.456 95.529 31.684 95.169 31.844C94.817 31.996 94.397 32.072 93.909 32.072C93.197 32.072 92.625 31.9 92.193 31.556C91.769 31.212 91.557 30.76 91.557 30.2C91.557 29.64 91.761 29.192 92.169 28.856C92.577 28.512 93.225 28.34 94.113 28.34H95.937V28.112C95.937 27.616 95.793 27.236 95.505 26.972C95.217 26.708 94.793 26.576 94.233 26.576C93.857 26.576 93.489 26.64 93.129 26.768C92.769 26.888 92.465 27.052 92.217 27.26L91.737 26.396C92.065 26.132 92.457 25.932 92.913 25.796C93.369 25.652 93.853 25.58 94.365 25.58ZM94.101 31.184C94.541 31.184 94.921 31.088 95.241 30.896C95.561 30.696 95.793 30.416 95.937 30.056V29.168H94.161C93.185 29.168 92.697 29.496 92.697 30.152C92.697 30.472 92.821 30.724 93.069 30.908C93.317 31.092 93.661 31.184 94.101 31.184ZM102.617 25.58C103.425 25.58 104.065 25.816 104.537 26.288C105.017 26.752 105.257 27.436 105.257 28.34V32H104.105V28.472C104.105 27.856 103.957 27.392 103.661 27.08C103.365 26.768 102.941 26.612 102.389 26.612C101.765 26.612 101.273 26.796 100.913 27.164C100.553 27.524 100.373 28.044 100.373 28.724V32H99.2209V25.64H100.325V26.6C100.557 26.272 100.869 26.02 101.261 25.844C101.661 25.668 102.113 25.58 102.617 25.58ZM112.9 25.64L109.816 32.636C109.544 33.284 109.224 33.74 108.856 34.004C108.496 34.268 108.06 34.4 107.548 34.4C107.236 34.4 106.932 34.348 106.636 34.244C106.348 34.148 106.108 34.004 105.916 33.812L106.408 32.948C106.736 33.26 107.116 33.416 107.548 33.416C107.828 33.416 108.06 33.34 108.244 33.188C108.436 33.044 108.608 32.792 108.76 32.432L108.964 31.988L106.156 25.64H107.356L109.576 30.728L111.772 25.64H112.9ZM120.593 25.58C121.401 25.58 122.041 25.816 122.513 26.288C122.993 26.752 123.233 27.436 123.233 28.34V32H122.081V28.472C122.081 27.856 121.933 27.392 121.637 27.08C121.341 26.768 120.917 26.612 120.365 26.612C119.741 26.612 119.249 26.796 118.889 27.164C118.529 27.524 118.349 28.044 118.349 28.724V32H117.197V23.096H118.349V26.54C118.589 26.236 118.901 26 119.285 25.832C119.677 25.664 120.113 25.58 120.593 25.58ZM131.149 28.856C131.149 28.944 131.141 29.06 131.125 29.204H125.965C126.037 29.764 126.281 30.216 126.697 30.56C127.121 30.896 127.645 31.064 128.269 31.064C129.029 31.064 129.641 30.808 130.105 30.296L130.741 31.04C130.453 31.376 130.093 31.632 129.661 31.808C129.237 31.984 128.761 32.072 128.233 32.072C127.561 32.072 126.965 31.936 126.445 31.664C125.925 31.384 125.521 30.996 125.233 30.5C124.953 30.004 124.813 29.444 124.813 28.82C124.813 28.204 124.949 27.648 125.221 27.152C125.501 26.656 125.881 26.272 126.361 26C126.849 25.72 127.397 25.58 128.005 25.58C128.613 25.58 129.153 25.72 129.625 26C130.105 26.272 130.477 26.656 130.741 27.152C131.013 27.648 131.149 28.216 131.149 28.856ZM128.005 26.552C127.453 26.552 126.989 26.72 126.613 27.056C126.245 27.392 126.029 27.832 125.965 28.376H130.045C129.981 27.84 129.761 27.404 129.385 27.068C129.017 26.724 128.557 26.552 128.005 26.552ZM132.748 23.096H133.9V32H132.748V23.096ZM139.472 25.58C140.088 25.58 140.64 25.716 141.128 25.988C141.616 26.26 141.996 26.64 142.268 27.128C142.548 27.616 142.688 28.18 142.688 28.82C142.688 29.46 142.548 30.028 142.268 30.524C141.996 31.012 141.616 31.392 141.128 31.664C140.64 31.936 140.088 32.072 139.472 32.072C139.016 32.072 138.596 31.984 138.212 31.808C137.836 31.632 137.516 31.376 137.252 31.04V34.328H136.1V25.64H137.204V26.648C137.46 26.296 137.784 26.032 138.176 25.856C138.568 25.672 139 25.58 139.472 25.58ZM139.376 31.064C139.784 31.064 140.148 30.972 140.468 30.788C140.796 30.596 141.052 30.332 141.236 29.996C141.428 29.652 141.524 29.26 141.524 28.82C141.524 28.38 141.428 27.992 141.236 27.656C141.052 27.312 140.796 27.048 140.468 26.864C140.148 26.68 139.784 26.588 139.376 26.588C138.976 26.588 138.612 26.684 138.284 26.876C137.964 27.06 137.708 27.32 137.516 27.656C137.332 27.992 137.24 28.38 137.24 28.82C137.24 29.26 137.332 29.652 137.516 29.996C137.7 30.332 137.956 30.596 138.284 30.788C138.612 30.972 138.976 31.064 139.376 31.064ZM144.427 30.428C144.651 30.428 144.835 30.508 144.979 30.668C145.131 30.82 145.207 31.012 145.207 31.244C145.207 31.364 145.191 31.48 145.159 31.592C145.135 31.704 145.083 31.876 145.003 32.108L144.439 33.776H143.683L144.127 31.988C143.975 31.932 143.851 31.84 143.755 31.712C143.667 31.576 143.623 31.42 143.623 31.244C143.623 31.004 143.699 30.808 143.851 30.656C144.003 30.504 144.195 30.428 144.427 30.428ZM153.452 25.58C154.068 25.58 154.62 25.716 155.108 25.988C155.596 26.26 155.976 26.64 156.248 27.128C156.528 27.616 156.668 28.18 156.668 28.82C156.668 29.46 156.528 30.028 156.248 30.524C155.976 31.012 155.596 31.392 155.108 31.664C154.62 31.936 154.068 32.072 153.452 32.072C152.996 32.072 152.576 31.984 152.192 31.808C151.816 31.632 151.496 31.376 151.232 31.04V34.328H150.08V25.64H151.184V26.648C151.44 26.296 151.764 26.032 152.156 25.856C152.548 25.672 152.98 25.58 153.452 25.58ZM153.356 31.064C153.764 31.064 154.128 30.972 154.448 30.788C154.776 30.596 155.032 30.332 155.216 29.996C155.408 29.652 155.504 29.26 155.504 28.82C155.504 28.38 155.408 27.992 155.216 27.656C155.032 27.312 154.776 27.048 154.448 26.864C154.128 26.68 153.764 26.588 153.356 26.588C152.956 26.588 152.592 26.684 152.264 26.876C151.944 27.06 151.688 27.32 151.496 27.656C151.312 27.992 151.22 28.38 151.22 28.82C151.22 29.26 151.312 29.652 151.496 29.996C151.68 30.332 151.936 30.596 152.264 30.788C152.592 30.972 152.956 31.064 153.356 31.064ZM158.26 23.096H159.412V32H158.26V23.096ZM167.36 28.856C167.36 28.944 167.352 29.06 167.336 29.204H162.176C162.248 29.764 162.492 30.216 162.908 30.56C163.332 30.896 163.856 31.064 164.48 31.064C165.24 31.064 165.852 30.808 166.316 30.296L166.952 31.04C166.664 31.376 166.304 31.632 165.872 31.808C165.448 31.984 164.972 32.072 164.444 32.072C163.772 32.072 163.176 31.936 162.656 31.664C162.136 31.384 161.732 30.996 161.444 30.5C161.164 30.004 161.024 29.444 161.024 28.82C161.024 28.204 161.16 27.648 161.432 27.152C161.712 26.656 162.092 26.272 162.572 26C163.06 25.72 163.608 25.58 164.216 25.58C164.824 25.58 165.364 25.72 165.836 26C166.316 26.272 166.688 26.656 166.952 27.152C167.224 27.648 167.36 28.216 167.36 28.856ZM164.216 26.552C163.664 26.552 163.2 26.72 162.824 27.056C162.456 27.392 162.24 27.832 162.176 28.376H166.256C166.192 27.84 165.972 27.404 165.596 27.068C165.228 26.724 164.768 26.552 164.216 26.552ZM171.099 25.58C171.979 25.58 172.651 25.796 173.115 26.228C173.587 26.66 173.823 27.304 173.823 28.16V32H172.731V31.16C172.539 31.456 172.263 31.684 171.903 31.844C171.551 31.996 171.131 32.072 170.643 32.072C169.931 32.072 169.359 31.9 168.927 31.556C168.503 31.212 168.291 30.76 168.291 30.2C168.291 29.64 168.495 29.192 168.903 28.856C169.311 28.512 169.959 28.34 170.847 28.34H172.671V28.112C172.671 27.616 172.527 27.236 172.239 26.972C171.951 26.708 171.527 26.576 170.967 26.576C170.591 26.576 170.223 26.64 169.863 26.768C169.503 26.888 169.199 27.052 168.951 27.26L168.471 26.396C168.799 26.132 169.191 25.932 169.647 25.796C170.103 25.652 170.587 25.58 171.099 25.58ZM170.835 31.184C171.275 31.184 171.655 31.088 171.975 30.896C172.295 30.696 172.527 30.416 172.671 30.056V29.168H170.895C169.919 29.168 169.431 29.496 169.431 30.152C169.431 30.472 169.555 30.724 169.803 30.908C170.051 31.092 170.395 31.184 170.835 31.184ZM177.779 32.072C177.259 32.072 176.759 32.004 176.279 31.868C175.799 31.724 175.423 31.544 175.151 31.328L175.631 30.416C175.911 30.616 176.251 30.776 176.651 30.896C177.051 31.016 177.455 31.076 177.863 31.076C178.871 31.076 179.375 30.788 179.375 30.212C179.375 30.02 179.307 29.868 179.171 29.756C179.035 29.644 178.863 29.564 178.655 29.516C178.455 29.46 178.167 29.4 177.791 29.336C177.279 29.256 176.859 29.164 176.531 29.06C176.211 28.956 175.935 28.78 175.703 28.532C175.471 28.284 175.355 27.936 175.355 27.488C175.355 26.912 175.595 26.452 176.075 26.108C176.555 25.756 177.199 25.58 178.007 25.58C178.431 25.58 178.855 25.632 179.279 25.736C179.703 25.84 180.051 25.98 180.323 26.156L179.831 27.068C179.311 26.732 178.699 26.564 177.995 26.564C177.507 26.564 177.135 26.644 176.879 26.804C176.623 26.964 176.495 27.176 176.495 27.44C176.495 27.648 176.567 27.812 176.711 27.932C176.855 28.052 177.031 28.14 177.239 28.196C177.455 28.252 177.755 28.316 178.139 28.388C178.651 28.476 179.063 28.572 179.375 28.676C179.695 28.772 179.967 28.94 180.191 29.18C180.415 29.42 180.527 29.756 180.527 30.188C180.527 30.764 180.279 31.224 179.783 31.568C179.295 31.904 178.627 32.072 177.779 32.072ZM187.715 28.856C187.715 28.944 187.707 29.06 187.691 29.204H182.531C182.603 29.764 182.847 30.216 183.263 30.56C183.687 30.896 184.211 31.064 184.835 31.064C185.595 31.064 186.207 30.808 186.671 30.296L187.307 31.04C187.019 31.376 186.659 31.632 186.227 31.808C185.803 31.984 185.327 32.072 184.799 32.072C184.127 32.072 183.531 31.936 183.011 31.664C182.491 31.384 182.087 30.996 181.799 30.5C181.519 30.004 181.379 29.444 181.379 28.82C181.379 28.204 181.515 27.648 181.787 27.152C182.067 26.656 182.447 26.272 182.927 26C183.415 25.72 183.963 25.58 184.571 25.58C185.179 25.58 185.719 25.72 186.191 26C186.671 26.272 187.043 26.656 187.307 27.152C187.579 27.648 187.715 28.216 187.715 28.856ZM184.571 26.552C184.019 26.552 183.555 26.72 183.179 27.056C182.811 27.392 182.595 27.832 182.531 28.376H186.611C186.547 27.84 186.327 27.404 185.951 27.068C185.583 26.724 185.123 26.552 184.571 26.552ZM23.924 47.084C23.26 47.084 22.664 46.944 22.136 46.664C21.608 46.384 21.196 45.996 20.9 45.5C20.604 44.996 20.456 44.428 20.456 43.796C20.456 43.164 20.604 42.6 20.9 42.104C21.196 41.608 21.604 41.22 22.124 40.94C22.652 40.66 23.252 40.52 23.924 40.52C24.556 40.52 25.108 40.648 25.58 40.904C26.06 41.16 26.42 41.528 26.66 42.008L25.508 42.68C25.324 42.384 25.092 42.164 24.812 42.02C24.54 41.868 24.24 41.792 23.912 41.792C23.352 41.792 22.888 41.976 22.52 42.344C22.152 42.704 21.968 43.188 21.968 43.796C21.968 44.404 22.148 44.892 22.508 45.26C22.876 45.62 23.344 45.8 23.912 45.8C24.24 45.8 24.54 45.728 24.812 45.584C25.092 45.432 25.324 45.208 25.508 44.912L26.66 45.584C26.412 46.064 26.048 46.436 25.568 46.7C25.096 46.956 24.548 47.084 23.924 47.084ZM30.7429 47.084C30.0949 47.084 29.5109 46.944 28.9909 46.664C28.4709 46.384 28.0629 45.996 27.7669 45.5C27.4789 44.996 27.3349 44.428 27.3349 43.796C27.3349 43.164 27.4789 42.6 27.7669 42.104C28.0629 41.608 28.4709 41.22 28.9909 40.94C29.5109 40.66 30.0949 40.52 30.7429 40.52C31.3989 40.52 31.9869 40.66 32.5069 40.94C33.0269 41.22 33.4309 41.608 33.7189 42.104C34.0149 42.6 34.1629 43.164 34.1629 43.796C34.1629 44.428 34.0149 44.996 33.7189 45.5C33.4309 45.996 33.0269 46.384 32.5069 46.664C31.9869 46.944 31.3989 47.084 30.7429 47.084ZM30.7429 45.8C31.2949 45.8 31.7509 45.616 32.1109 45.248C32.4709 44.88 32.6509 44.396 32.6509 43.796C32.6509 43.196 32.4709 42.712 32.1109 42.344C31.7509 41.976 31.2949 41.792 30.7429 41.792C30.1909 41.792 29.7349 41.976 29.3749 42.344C29.0229 42.712 28.8469 43.196 28.8469 43.796C28.8469 44.396 29.0229 44.88 29.3749 45.248C29.7349 45.616 30.1909 45.8 30.7429 45.8ZM39.2333 40.52C40.0413 40.52 40.6893 40.756 41.1773 41.228C41.6653 41.7 41.9093 42.4 41.9093 43.328V47H40.4093V43.52C40.4093 42.96 40.2773 42.54 40.0133 42.26C39.7493 41.972 39.3733 41.828 38.8853 41.828C38.3333 41.828 37.8973 41.996 37.5773 42.332C37.2573 42.66 37.0973 43.136 37.0973 43.76V47H35.5973V40.592H37.0253V41.42C37.2733 41.124 37.5853 40.9 37.9613 40.748C38.3373 40.596 38.7613 40.52 39.2333 40.52ZM47.6641 46.652C47.4881 46.796 47.2721 46.904 47.0161 46.976C46.7681 47.048 46.5041 47.084 46.2241 47.084C45.5201 47.084 44.9761 46.9 44.5921 46.532C44.2081 46.164 44.0161 45.628 44.0161 44.924V41.84H42.9601V40.64H44.0161V39.176H45.5161V40.64H47.2321V41.84H45.5161V44.888C45.5161 45.2 45.5921 45.44 45.7441 45.608C45.8961 45.768 46.1161 45.848 46.4041 45.848C46.7401 45.848 47.0201 45.76 47.2441 45.584L47.6641 46.652ZM51.3461 40.52C52.2901 40.52 53.0101 40.748 53.5061 41.204C54.0101 41.652 54.2621 42.332 54.2621 43.244V47H52.8461V46.22C52.6621 46.5 52.3981 46.716 52.0541 46.868C51.7181 47.012 51.3101 47.084 50.8301 47.084C50.3501 47.084 49.9301 47.004 49.5701 46.844C49.2101 46.676 48.9301 46.448 48.7301 46.16C48.5381 45.864 48.4421 45.532 48.4421 45.164C48.4421 44.588 48.6541 44.128 49.0781 43.784C49.5101 43.432 50.1861 43.256 51.1061 43.256H52.7621V43.16C52.7621 42.712 52.6261 42.368 52.3541 42.128C52.0901 41.888 51.6941 41.768 51.1661 41.768C50.8061 41.768 50.4501 41.824 50.0981 41.936C49.7541 42.048 49.4621 42.204 49.2221 42.404L48.6341 41.312C48.9701 41.056 49.3741 40.86 49.8461 40.724C50.3181 40.588 50.8181 40.52 51.3461 40.52ZM51.1421 45.992C51.5181 45.992 51.8501 45.908 52.1381 45.74C52.4341 45.564 52.6421 45.316 52.7621 44.996V44.252H51.2141C50.3501 44.252 49.9181 44.536 49.9181 45.104C49.9181 45.376 50.0261 45.592 50.2421 45.752C50.4581 45.912 50.7581 45.992 51.1421 45.992ZM59.1857 47.084C58.5217 47.084 57.9257 46.944 57.3977 46.664C56.8697 46.384 56.4577 45.996 56.1617 45.5C55.8657 44.996 55.7177 44.428 55.7177 43.796C55.7177 43.164 55.8657 42.6 56.1617 42.104C56.4577 41.608 56.8657 41.22 57.3857 40.94C57.9137 40.66 58.5137 40.52 59.1857 40.52C59.8177 40.52 60.3697 40.648 60.8417 40.904C61.3217 41.16 61.6817 41.528 61.9217 42.008L60.7697 42.68C60.5857 42.384 60.3537 42.164 60.0737 42.02C59.8017 41.868 59.5017 41.792 59.1737 41.792C58.6137 41.792 58.1497 41.976 57.7817 42.344C57.4137 42.704 57.2297 43.188 57.2297 43.796C57.2297 44.404 57.4097 44.892 57.7697 45.26C58.1377 45.62 58.6057 45.8 59.1737 45.8C59.5017 45.8 59.8017 45.728 60.0737 45.584C60.3537 45.432 60.5857 45.208 60.7697 44.912L61.9217 45.584C61.6737 46.064 61.3097 46.436 60.8297 46.7C60.3577 46.956 59.8097 47.084 59.1857 47.084ZM67.1524 46.652C66.9764 46.796 66.7604 46.904 66.5044 46.976C66.2564 47.048 65.9924 47.084 65.7124 47.084C65.0084 47.084 64.4644 46.9 64.0804 46.532C63.6964 46.164 63.5044 45.628 63.5044 44.924V41.84H62.4484V40.64H63.5044V39.176H65.0044V40.64H66.7204V41.84H65.0044V44.888C65.0044 45.2 65.0804 45.44 65.2324 45.608C65.3844 45.768 65.6044 45.848 65.8924 45.848C66.2284 45.848 66.5084 45.76 66.7324 45.584L67.1524 46.652ZM77.813 40.592V47H76.385V46.184C76.145 46.472 75.845 46.696 75.485 46.856C75.125 47.008 74.737 47.084 74.321 47.084C73.465 47.084 72.789 46.848 72.293 46.376C71.805 45.896 71.561 45.188 71.561 44.252V40.592H73.061V44.048C73.061 44.624 73.189 45.056 73.445 45.344C73.709 45.624 74.081 45.764 74.561 45.764C75.097 45.764 75.521 45.6 75.833 45.272C76.153 44.936 76.313 44.456 76.313 43.832V40.592H77.813ZM81.757 47.084C81.237 47.084 80.729 47.016 80.233 46.88C79.737 46.744 79.341 46.572 79.045 46.364L79.621 45.224C79.909 45.416 80.253 45.572 80.653 45.692C81.061 45.804 81.461 45.86 81.853 45.86C82.749 45.86 83.197 45.624 83.197 45.152C83.197 44.928 83.081 44.772 82.849 44.684C82.625 44.596 82.261 44.512 81.757 44.432C81.229 44.352 80.797 44.26 80.461 44.156C80.133 44.052 79.845 43.872 79.597 43.616C79.357 43.352 79.237 42.988 79.237 42.524C79.237 41.916 79.489 41.432 79.993 41.072C80.505 40.704 81.193 40.52 82.057 40.52C82.497 40.52 82.937 40.572 83.377 40.676C83.817 40.772 84.177 40.904 84.457 41.072L83.881 42.212C83.337 41.892 82.725 41.732 82.045 41.732C81.605 41.732 81.269 41.8 81.037 41.936C80.813 42.064 80.701 42.236 80.701 42.452C80.701 42.692 80.821 42.864 81.061 42.968C81.309 43.064 81.689 43.156 82.201 43.244C82.713 43.324 83.133 43.416 83.461 43.52C83.789 43.624 84.069 43.8 84.301 44.048C84.541 44.296 84.661 44.648 84.661 45.104C84.661 45.704 84.401 46.184 83.881 46.544C83.361 46.904 82.653 47.084 81.757 47.084ZM95.0052 40.64L92.2212 47H91.0452L88.2612 40.64H89.4612L91.6452 45.74L93.8772 40.64H95.0052ZM96.0803 40.64H97.2323V47H96.0803V40.64ZM96.6563 39.416C96.4323 39.416 96.2443 39.344 96.0923 39.2C95.9483 39.056 95.8763 38.88 95.8763 38.672C95.8763 38.464 95.9483 38.288 96.0923 38.144C96.2443 37.992 96.4323 37.916 96.6563 37.916C96.8803 37.916 97.0643 37.988 97.2083 38.132C97.3603 38.268 97.4363 38.44 97.4363 38.648C97.4363 38.864 97.3603 39.048 97.2083 39.2C97.0643 39.344 96.8803 39.416 96.6563 39.416ZM101.748 40.58C102.628 40.58 103.3 40.796 103.764 41.228C104.236 41.66 104.472 42.304 104.472 43.16V47H103.38V46.16C103.188 46.456 102.912 46.684 102.552 46.844C102.2 46.996 101.78 47.072 101.292 47.072C100.58 47.072 100.008 46.9 99.5758 46.556C99.1518 46.212 98.9398 45.76 98.9398 45.2C98.9398 44.64 99.1438 44.192 99.5518 43.856C99.9598 43.512 100.608 43.34 101.496 43.34H103.32V43.112C103.32 42.616 103.176 42.236 102.888 41.972C102.6 41.708 102.176 41.576 101.616 41.576C101.24 41.576 100.872 41.64 100.512 41.768C100.152 41.888 99.8478 42.052 99.5998 42.26L99.1198 41.396C99.4478 41.132 99.8398 40.932 100.296 40.796C100.752 40.652 101.236 40.58 101.748 40.58ZM101.484 46.184C101.924 46.184 102.304 46.088 102.624 45.896C102.944 45.696 103.176 45.416 103.32 45.056V44.168H101.544C100.568 44.168 100.08 44.496 100.08 45.152C100.08 45.472 100.204 45.724 100.452 45.908C100.7 46.092 101.044 46.184 101.484 46.184ZM111.66 39.92H108.876V38.6H116.004V39.92H113.22V47H111.66V39.92ZM122.399 43.832C122.399 43.936 122.391 44.084 122.375 44.276H117.347C117.435 44.748 117.663 45.124 118.031 45.404C118.407 45.676 118.871 45.812 119.423 45.812C120.127 45.812 120.707 45.58 121.163 45.116L121.967 46.04C121.679 46.384 121.315 46.644 120.875 46.82C120.435 46.996 119.939 47.084 119.387 47.084C118.683 47.084 118.063 46.944 117.527 46.664C116.991 46.384 116.575 45.996 116.279 45.5C115.991 44.996 115.847 44.428 115.847 43.796C115.847 43.172 115.987 42.612 116.267 42.116C116.555 41.612 116.951 41.22 117.455 40.94C117.959 40.66 118.527 40.52 119.159 40.52C119.783 40.52 120.339 40.66 120.827 40.94C121.323 41.212 121.707 41.6 121.979 42.104C122.259 42.6 122.399 43.176 122.399 43.832ZM119.159 41.72C118.679 41.72 118.271 41.864 117.935 42.152C117.607 42.432 117.407 42.808 117.335 43.28H120.971C120.907 42.816 120.711 42.44 120.383 42.152C120.055 41.864 119.647 41.72 119.159 41.72ZM123.839 38.096H125.339V47H123.839V38.096ZM133.332 43.832C133.332 43.936 133.324 44.084 133.308 44.276H128.28C128.368 44.748 128.596 45.124 128.964 45.404C129.34 45.676 129.804 45.812 130.356 45.812C131.06 45.812 131.64 45.58 132.096 45.116L132.9 46.04C132.612 46.384 132.248 46.644 131.808 46.82C131.368 46.996 130.872 47.084 130.32 47.084C129.616 47.084 128.996 46.944 128.46 46.664C127.924 46.384 127.508 45.996 127.212 45.5C126.924 44.996 126.78 44.428 126.78 43.796C126.78 43.172 126.92 42.612 127.2 42.116C127.488 41.612 127.884 41.22 128.388 40.94C128.892 40.66 129.46 40.52 130.092 40.52C130.716 40.52 131.272 40.66 131.76 40.94C132.256 41.212 132.64 41.6 132.912 42.104C133.192 42.6 133.332 43.176 133.332 43.832ZM130.092 41.72C129.612 41.72 129.204 41.864 128.868 42.152C128.54 42.432 128.34 42.808 128.268 43.28H131.904C131.84 42.816 131.644 42.44 131.316 42.152C130.988 41.864 130.58 41.72 130.092 41.72ZM141.133 40.592V46.028C141.133 48.284 139.981 49.412 137.677 49.412C137.061 49.412 136.477 49.332 135.925 49.172C135.373 49.02 134.917 48.796 134.557 48.5L135.229 47.372C135.509 47.604 135.861 47.788 136.285 47.924C136.717 48.068 137.153 48.14 137.593 48.14C138.297 48.14 138.813 47.98 139.141 47.66C139.469 47.34 139.633 46.852 139.633 46.196V45.86C139.377 46.14 139.065 46.352 138.697 46.496C138.329 46.64 137.925 46.712 137.485 46.712C136.877 46.712 136.325 46.584 135.829 46.328C135.341 46.064 134.953 45.696 134.665 45.224C134.385 44.752 134.245 44.212 134.245 43.604C134.245 42.996 134.385 42.46 134.665 41.996C134.953 41.524 135.341 41.16 135.829 40.904C136.325 40.648 136.877 40.52 137.485 40.52C137.949 40.52 138.369 40.596 138.745 40.748C139.129 40.9 139.449 41.132 139.705 41.444V40.592H141.133ZM137.713 45.44C138.281 45.44 138.745 45.272 139.105 44.936C139.473 44.592 139.657 44.148 139.657 43.604C139.657 43.068 139.473 42.632 139.105 42.296C138.745 41.96 138.281 41.792 137.713 41.792C137.137 41.792 136.665 41.96 136.297 42.296C135.937 42.632 135.757 43.068 135.757 43.604C135.757 44.148 135.937 44.592 136.297 44.936C136.665 45.272 137.137 45.44 137.713 45.44ZM144.533 41.528C144.965 40.856 145.725 40.52 146.813 40.52V41.948C146.685 41.924 146.569 41.912 146.465 41.912C145.881 41.912 145.425 42.084 145.097 42.428C144.769 42.764 144.605 43.252 144.605 43.892V47H143.105V40.592H144.533V41.528ZM150.498 40.52C151.442 40.52 152.162 40.748 152.658 41.204C153.162 41.652 153.414 42.332 153.414 43.244V47H151.998V46.22C151.814 46.5 151.55 46.716 151.206 46.868C150.87 47.012 150.462 47.084 149.982 47.084C149.502 47.084 149.082 47.004 148.722 46.844C148.362 46.676 148.082 46.448 147.882 46.16C147.69 45.864 147.594 45.532 147.594 45.164C147.594 44.588 147.806 44.128 148.23 43.784C148.662 43.432 149.338 43.256 150.258 43.256H151.914V43.16C151.914 42.712 151.778 42.368 151.506 42.128C151.242 41.888 150.846 41.768 150.318 41.768C149.958 41.768 149.602 41.824 149.25 41.936C148.906 42.048 148.614 42.204 148.374 42.404L147.786 41.312C148.122 41.056 148.526 40.86 148.998 40.724C149.47 40.588 149.97 40.52 150.498 40.52ZM150.294 45.992C150.67 45.992 151.002 45.908 151.29 45.74C151.586 45.564 151.794 45.316 151.914 44.996V44.252H150.366C149.502 44.252 149.07 44.536 149.07 45.104C149.07 45.376 149.178 45.592 149.394 45.752C149.61 45.912 149.91 45.992 150.294 45.992ZM163.427 40.52C164.235 40.52 164.875 40.756 165.347 41.228C165.819 41.692 166.055 42.392 166.055 43.328V47H164.555V43.52C164.555 42.96 164.431 42.54 164.183 42.26C163.935 41.972 163.579 41.828 163.115 41.828C162.611 41.828 162.207 41.996 161.903 42.332C161.599 42.66 161.447 43.132 161.447 43.748V47H159.947V43.52C159.947 42.96 159.823 42.54 159.575 42.26C159.327 41.972 158.971 41.828 158.507 41.828C157.995 41.828 157.587 41.992 157.283 42.32C156.987 42.648 156.839 43.124 156.839 43.748V47H155.339V40.592H156.767V41.408C157.007 41.12 157.307 40.9 157.667 40.748C158.027 40.596 158.427 40.52 158.867 40.52C159.347 40.52 159.771 40.612 160.139 40.796C160.515 40.972 160.811 41.236 161.027 41.588C161.291 41.252 161.631 40.992 162.047 40.808C162.463 40.616 162.923 40.52 163.427 40.52Z" fill="#121E34"/>
</svg>
