<svg width="22" height="22" viewBox="0 0 22 22" fill="none" xmlns="http://www.w3.org/2000/svg">
<circle cx="11" cy="11" r="11" fill="white" fill-opacity="0.54"/>
<path d="M10.108 12.752C10.108 12.248 10.22 11.8327 10.444 11.506C10.6773 11.17 11.0133 10.806 11.452 10.414C11.788 10.1153 12.0353 9.85867 12.194 9.644C12.362 9.42 12.446 9.168 12.446 8.888C12.446 8.496 12.2873 8.17867 11.97 7.936C11.6527 7.69333 11.228 7.572 10.696 7.572C9.688 7.572 8.92733 7.93133 8.414 8.65L7.056 7.768C7.45733 7.21733 7.97533 6.79733 8.61 6.508C9.24467 6.20933 9.99133 6.06 10.85 6.06C11.8953 6.06 12.726 6.28867 13.342 6.746C13.9673 7.194 14.28 7.81467 14.28 8.608C14.28 8.99067 14.2147 9.32667 14.084 9.616C13.9627 9.90533 13.8133 10.1527 13.636 10.358C13.4587 10.554 13.2253 10.7827 12.936 11.044C12.5813 11.3613 12.3153 11.6413 12.138 11.884C11.97 12.1267 11.886 12.416 11.886 12.752H10.108ZM11.004 16.098C10.6773 16.098 10.4067 15.9953 10.192 15.79C9.98667 15.5753 9.884 15.314 9.884 15.006C9.884 14.698 9.98667 14.4413 10.192 14.236C10.4067 14.0307 10.6773 13.928 11.004 13.928C11.3213 13.928 11.5827 14.0307 11.788 14.236C12.0027 14.4413 12.11 14.698 12.11 15.006C12.11 15.314 12.0027 15.5753 11.788 15.79C11.5827 15.9953 11.3213 16.098 11.004 16.098Z" fill="#121E34"/>
</svg>
