<svg width="222" height="62" viewBox="0 0 222 62" fill="none" xmlns="http://www.w3.org/2000/svg">
<g filter="url(#filter0_dd_1307_799)">
<rect x="6.5" y="6.5" width="209" height="49" rx="7.5" stroke="#121E34"/>
</g>
<path d="M108.634 32.394L106.632 34.424V37H105.596V27.2H106.632V33.122L112.386 27.2H113.576L109.334 31.638L113.87 37H112.638L108.634 32.394ZM121.409 33.626H115.249C115.305 34.3913 115.599 35.012 116.131 35.488C116.663 35.9547 117.335 36.188 118.147 36.188C118.605 36.188 119.025 36.1087 119.407 35.95C119.79 35.782 120.121 35.5393 120.401 35.222L120.961 35.866C120.635 36.258 120.224 36.5567 119.729 36.762C119.244 36.9673 118.707 37.07 118.119 37.07C117.363 37.07 116.691 36.9113 116.103 36.594C115.525 36.2673 115.072 35.8193 114.745 35.25C114.419 34.6807 114.255 34.0367 114.255 33.318C114.255 32.5993 114.409 31.9553 114.717 31.386C115.035 30.8167 115.464 30.3733 116.005 30.056C116.556 29.7387 117.172 29.58 117.853 29.58C118.535 29.58 119.146 29.7387 119.687 30.056C120.229 30.3733 120.653 30.8167 120.961 31.386C121.269 31.946 121.423 32.59 121.423 33.318L121.409 33.626ZM117.853 30.434C117.144 30.434 116.547 30.6627 116.061 31.12C115.585 31.568 115.315 32.156 115.249 32.884H120.471C120.406 32.156 120.131 31.568 119.645 31.12C119.169 30.6627 118.572 30.434 117.853 30.434ZM127.241 29.58C127.931 29.58 128.557 29.7387 129.117 30.056C129.677 30.364 130.115 30.8027 130.433 31.372C130.75 31.9413 130.909 32.59 130.909 33.318C130.909 34.0553 130.75 34.7087 130.433 35.278C130.115 35.8473 129.677 36.2907 129.117 36.608C128.566 36.916 127.941 37.07 127.241 37.07C126.643 37.07 126.102 36.9487 125.617 36.706C125.141 36.454 124.749 36.09 124.441 35.614V39.716H123.447V29.636H124.399V31.092C124.697 30.6067 125.089 30.2333 125.575 29.972C126.069 29.7107 126.625 29.58 127.241 29.58ZM127.171 36.188C127.684 36.188 128.151 36.0713 128.571 35.838C128.991 35.5953 129.317 35.2547 129.551 34.816C129.793 34.3773 129.915 33.878 129.915 33.318C129.915 32.758 129.793 32.2633 129.551 31.834C129.317 31.3953 128.991 31.0547 128.571 30.812C128.151 30.5693 127.684 30.448 127.171 30.448C126.648 30.448 126.177 30.5693 125.757 30.812C125.346 31.0547 125.019 31.3953 124.777 31.834C124.543 32.2633 124.427 32.758 124.427 33.318C124.427 33.878 124.543 34.3773 124.777 34.816C125.019 35.2547 125.346 35.5953 125.757 35.838C126.177 36.0713 126.648 36.188 127.171 36.188ZM132.935 26.612H133.929V37H132.935V26.612ZM137.647 31.078C137.88 30.5833 138.225 30.21 138.683 29.958C139.149 29.706 139.723 29.58 140.405 29.58V30.546L140.167 30.532C139.392 30.532 138.785 30.77 138.347 31.246C137.908 31.722 137.689 32.3893 137.689 33.248V37H136.695V29.636H137.647V31.078Z" fill="#F0F1F5"/>
<path d="M108.634 32.394L106.632 34.424V37H105.596V27.2H106.632V33.122L112.386 27.2H113.576L109.334 31.638L113.87 37H112.638L108.634 32.394ZM121.409 33.626H115.249C115.305 34.3913 115.599 35.012 116.131 35.488C116.663 35.9547 117.335 36.188 118.147 36.188C118.605 36.188 119.025 36.1087 119.407 35.95C119.79 35.782 120.121 35.5393 120.401 35.222L120.961 35.866C120.635 36.258 120.224 36.5567 119.729 36.762C119.244 36.9673 118.707 37.07 118.119 37.07C117.363 37.07 116.691 36.9113 116.103 36.594C115.525 36.2673 115.072 35.8193 114.745 35.25C114.419 34.6807 114.255 34.0367 114.255 33.318C114.255 32.5993 114.409 31.9553 114.717 31.386C115.035 30.8167 115.464 30.3733 116.005 30.056C116.556 29.7387 117.172 29.58 117.853 29.58C118.535 29.58 119.146 29.7387 119.687 30.056C120.229 30.3733 120.653 30.8167 120.961 31.386C121.269 31.946 121.423 32.59 121.423 33.318L121.409 33.626ZM117.853 30.434C117.144 30.434 116.547 30.6627 116.061 31.12C115.585 31.568 115.315 32.156 115.249 32.884H120.471C120.406 32.156 120.131 31.568 119.645 31.12C119.169 30.6627 118.572 30.434 117.853 30.434ZM127.241 29.58C127.931 29.58 128.557 29.7387 129.117 30.056C129.677 30.364 130.115 30.8027 130.433 31.372C130.75 31.9413 130.909 32.59 130.909 33.318C130.909 34.0553 130.75 34.7087 130.433 35.278C130.115 35.8473 129.677 36.2907 129.117 36.608C128.566 36.916 127.941 37.07 127.241 37.07C126.643 37.07 126.102 36.9487 125.617 36.706C125.141 36.454 124.749 36.09 124.441 35.614V39.716H123.447V29.636H124.399V31.092C124.697 30.6067 125.089 30.2333 125.575 29.972C126.069 29.7107 126.625 29.58 127.241 29.58ZM127.171 36.188C127.684 36.188 128.151 36.0713 128.571 35.838C128.991 35.5953 129.317 35.2547 129.551 34.816C129.793 34.3773 129.915 33.878 129.915 33.318C129.915 32.758 129.793 32.2633 129.551 31.834C129.317 31.3953 128.991 31.0547 128.571 30.812C128.151 30.5693 127.684 30.448 127.171 30.448C126.648 30.448 126.177 30.5693 125.757 30.812C125.346 31.0547 125.019 31.3953 124.777 31.834C124.543 32.2633 124.427 32.758 124.427 33.318C124.427 33.878 124.543 34.3773 124.777 34.816C125.019 35.2547 125.346 35.5953 125.757 35.838C126.177 36.0713 126.648 36.188 127.171 36.188ZM132.935 26.612H133.929V37H132.935V26.612ZM137.647 31.078C137.88 30.5833 138.225 30.21 138.683 29.958C139.149 29.706 139.723 29.58 140.405 29.58V30.546L140.167 30.532C139.392 30.532 138.785 30.77 138.347 31.246C137.908 31.722 137.689 32.3893 137.689 33.248V37H136.695V29.636H137.647V31.078Z" fill="url(#paint0_linear_1307_799)" fill-opacity="0.6" style="mix-blend-mode:soft-light"/>
<path d="M88.911 39L84.427 33.11V39H81.178V25.662H84.427V31.514L88.873 25.662H92.692L87.524 32.198L92.882 39H88.911Z" fill="#FCFCFC"/>
<defs>
<filter id="filter0_dd_1307_799" x="0" y="0" width="222" height="62" filterUnits="userSpaceOnUse" color-interpolation-filters="sRGB">
<feFlood flood-opacity="0" result="BackgroundImageFix"/>
<feColorMatrix in="SourceAlpha" type="matrix" values="0 0 0 0 0 0 0 0 0 0 0 0 0 0 0 0 0 0 127 0" result="hardAlpha"/>
<feOffset dx="2" dy="2"/>
<feGaussianBlur stdDeviation="2"/>
<feColorMatrix type="matrix" values="0 0 0 0 0.0235294 0 0 0 0 0.0470588 0 0 0 0 0.0941176 0 0 0 1 0"/>
<feBlend mode="normal" in2="BackgroundImageFix" result="effect1_dropShadow_1307_799"/>
<feColorMatrix in="SourceAlpha" type="matrix" values="0 0 0 0 0 0 0 0 0 0 0 0 0 0 0 0 0 0 127 0" result="hardAlpha"/>
<feOffset dx="-2" dy="-2"/>
<feGaussianBlur stdDeviation="2"/>
<feColorMatrix type="matrix" values="0 0 0 0 0.227451 0 0 0 0 0.266667 0 0 0 0 0.364706 0 0 0 0.5 0"/>
<feBlend mode="normal" in2="effect1_dropShadow_1307_799" result="effect2_dropShadow_1307_799"/>
<feBlend mode="normal" in="SourceGraphic" in2="effect2_dropShadow_1307_799" result="shape"/>
</filter>
<linearGradient id="paint0_linear_1307_799" x1="141" y1="40" x2="128.101" y2="11.9264" gradientUnits="userSpaceOnUse">
<stop/>
<stop offset="1" stop-color="white" stop-opacity="0"/>
</linearGradient>
</defs>
</svg>
