<svg width="210" height="50" viewBox="0 0 210 50" fill="none" xmlns="http://www.w3.org/2000/svg">
<g filter="url(#filter0_ii_169_55)">
<rect width="210" height="50" rx="8" fill="#121E34"/>
</g>
<path d="M93.5926 19.8V31H90.4886L86.2326 25.912V31H82.5526V19.8H85.6566L89.9126 24.888V19.8H93.5926ZM104.724 28.152V31H95.412V19.8H104.516V22.648H99.124V23.96H103.86V26.68H99.124V28.152H104.724ZM113.188 31L111.252 28.008L109.364 31H105.059L109.108 25.352L105.204 19.8H109.444L111.348 22.616L113.204 19.8H117.268L113.38 25.208L117.508 31H113.188ZM120.235 22.728H116.955V19.8H127.291V22.728H124.011V31H120.235V22.728Z" fill="#F0F1F5"/>
<path d="M93.5926 19.8V31H90.4886L86.2326 25.912V31H82.5526V19.8H85.6566L89.9126 24.888V19.8H93.5926ZM104.724 28.152V31H95.412V19.8H104.516V22.648H99.124V23.96H103.86V26.68H99.124V28.152H104.724ZM113.188 31L111.252 28.008L109.364 31H105.059L109.108 25.352L105.204 19.8H109.444L111.348 22.616L113.204 19.8H117.268L113.38 25.208L117.508 31H113.188ZM120.235 22.728H116.955V19.8H127.291V22.728H124.011V31H120.235V22.728Z" fill="url(#paint0_linear_169_55)" fill-opacity="0.6" style="mix-blend-mode:soft-light"/>
<defs>
<filter id="filter0_ii_169_55" x="-4" y="-4" width="218" height="58" filterUnits="userSpaceOnUse" color-interpolation-filters="sRGB">
<feFlood flood-opacity="0" result="BackgroundImageFix"/>
<feBlend mode="normal" in="SourceGraphic" in2="BackgroundImageFix" result="shape"/>
<feColorMatrix in="SourceAlpha" type="matrix" values="0 0 0 0 0 0 0 0 0 0 0 0 0 0 0 0 0 0 127 0" result="hardAlpha"/>
<feOffset dx="4" dy="4"/>
<feGaussianBlur stdDeviation="2"/>
<feComposite in2="hardAlpha" operator="arithmetic" k2="-1" k3="1"/>
<feColorMatrix type="matrix" values="0 0 0 0 0.0235294 0 0 0 0 0.0470588 0 0 0 0 0.0941176 0 0 0 1 0"/>
<feBlend mode="normal" in2="shape" result="effect1_innerShadow_169_55"/>
<feColorMatrix in="SourceAlpha" type="matrix" values="0 0 0 0 0 0 0 0 0 0 0 0 0 0 0 0 0 0 127 0" result="hardAlpha"/>
<feOffset dx="-4" dy="-4"/>
<feGaussianBlur stdDeviation="2"/>
<feComposite in2="hardAlpha" operator="arithmetic" k2="-1" k3="1"/>
<feColorMatrix type="matrix" values="0 0 0 0 0.227451 0 0 0 0 0.266667 0 0 0 0 0.364706 0 0 0 0.5 0"/>
<feBlend mode="normal" in2="effect1_innerShadow_169_55" result="effect2_innerShadow_169_55"/>
</filter>
<linearGradient id="paint0_linear_169_55" x1="209" y1="50" x2="186.372" y2="-44.5865" gradientUnits="userSpaceOnUse">
<stop/>
<stop offset="1" stop-color="white" stop-opacity="0"/>
</linearGradient>
</defs>
</svg>
