<svg width="1440" height="1166" viewBox="0 0 1440 1166" fill="none" xmlns="http://www.w3.org/2000/svg">
<g filter="url(#filter0_i_60_14)">
<path fill-rule="evenodd" clip-rule="evenodd" d="M-14 1L48.965 37.8225C50.4512 38.6774 51.9713 39.5527 53.5245 40.447C118.874 78.0754 242.881 149.478 365.887 156.473H409.946C466.413 153.524 522.879 140.141 579.346 126.758C635.173 113.527 691 100.296 746.827 97.1476C827.431 92.5648 908.465 108.934 989.653 125.335C1035.31 134.558 1081.01 143.791 1126.72 149.313C1253.7 163.633 1379.63 149.313 1443.64 141.13L1506.6 133.97V156.473V311.946V986.002H1515L1506.6 991.347V993.162H1503.75L1451.64 1026.34L1449.62 1027.61C1385.61 1067.66 1260.23 1146.13 1134.85 1161.27C1008.13 1176.57 881.415 1142.07 754.698 1106.6C627.981 1071.82 501.264 1051.65 374.547 1051.65C247.829 1051.65 121.112 1056.25 57.7539 1065.99L-5.60461 1076.42V986.002H-4.5553V311.946H-14V1Z" fill="#262626"/>
</g>
<path d="M48.965 37.8225L48.7126 38.2541L48.7157 38.2559L48.965 37.8225ZM-14 1L-13.7476 0.568388L-14.5 0.128371V1H-14ZM53.5245 40.447L53.275 40.8803L53.5245 40.447ZM365.887 156.473L365.858 156.972L365.872 156.973H365.887V156.473ZM409.946 156.473V156.973H409.959L409.972 156.972L409.946 156.473ZM579.346 126.758L579.23 126.272L579.346 126.758ZM746.827 97.1476L746.855 97.6468L746.855 97.6468L746.827 97.1476ZM989.653 125.335L989.554 125.825L989.653 125.335ZM1126.72 149.313L1126.66 149.809L1126.66 149.81L1126.72 149.313ZM1443.64 141.13L1443.58 140.633L1443.58 140.634L1443.64 141.13ZM1506.6 133.97H1507.1V133.41L1506.55 133.473L1506.6 133.97ZM1506.6 986.002H1506.1V986.502H1506.6V986.002ZM1515 986.002L1515.27 986.424L1516.72 985.502H1515V986.002ZM1506.6 991.347L1506.34 990.925L1506.1 991.073V991.347H1506.6ZM1506.6 993.162V993.662H1507.1V993.162H1506.6ZM1503.75 993.162V992.662H1503.61L1503.49 992.74L1503.75 993.162ZM1451.64 1026.34L1451.91 1026.77L1451.91 1026.76L1451.64 1026.34ZM1449.62 1027.61L1449.35 1027.18L1449.62 1027.61ZM1134.85 1161.27L1134.79 1160.78L1134.85 1161.27ZM754.698 1106.6L754.832 1106.12L754.83 1106.12L754.698 1106.6ZM57.7539 1065.99L57.6779 1065.49L57.6727 1065.49L57.7539 1065.99ZM-5.60461 1076.42H-6.10461V1077.01L-5.52338 1076.91L-5.60461 1076.42ZM-5.60461 986.002V985.502H-6.10461V986.002H-5.60461ZM-4.5553 986.002V986.502H-4.0553V986.002H-4.5553ZM-4.5553 311.946H-4.0553V311.446H-4.5553V311.946ZM-14 311.946H-14.5V312.446H-14V311.946ZM49.2174 37.3909L-13.7476 0.568388L-14.2524 1.43161L48.7126 38.2541L49.2174 37.3909ZM53.774 40.0137C52.2208 39.1194 50.7006 38.244 49.2143 37.3891L48.7157 38.2559C50.2018 39.1107 51.7218 39.986 53.275 40.8803L53.774 40.0137ZM365.915 155.973C243.047 148.987 119.142 77.6525 53.774 40.0137L53.275 40.8803C118.607 78.4983 242.715 149.97 365.858 156.972L365.915 155.973ZM409.946 155.973H365.887V156.973H409.946V155.973ZM579.23 126.272C522.755 139.656 466.333 153.027 409.92 155.973L409.972 156.972C466.492 154.02 523.003 140.625 579.461 127.245L579.23 126.272ZM746.799 96.6484C690.92 99.7992 635.049 113.042 579.23 126.272L579.461 127.245C635.296 114.011 691.08 100.792 746.855 97.6468L746.799 96.6484ZM989.752 124.845C908.576 108.447 827.478 92.0613 746.799 96.6484L746.855 97.6468C827.384 93.0683 908.354 109.422 989.554 125.825L989.752 124.845ZM1126.78 148.816C1081.09 143.297 1035.41 134.069 989.752 124.845L989.554 125.825C1035.21 135.047 1080.93 144.284 1126.66 149.809L1126.78 148.816ZM1443.58 140.634C1379.57 148.816 1253.69 163.129 1126.77 148.816L1126.66 149.81C1253.7 164.137 1379.68 149.81 1443.7 141.626L1443.58 140.634ZM1506.55 133.473L1443.58 140.633L1443.7 141.627L1506.66 134.467L1506.55 133.473ZM1507.1 156.473V133.97H1506.1V156.473H1507.1ZM1507.1 311.946V156.473H1506.1V311.946H1507.1ZM1507.1 986.002V311.946H1506.1V986.002H1507.1ZM1506.6 986.502H1515V985.502H1506.6V986.502ZM1514.73 985.58L1506.34 990.925L1506.87 991.769L1515.27 986.424L1514.73 985.58ZM1507.1 993.162V991.347H1506.1V993.162H1507.1ZM1503.75 993.662H1506.6V992.662H1503.75V993.662ZM1503.49 992.74L1451.37 1025.92L1451.91 1026.76L1504.02 993.583L1503.49 992.74ZM1451.38 1025.92L1449.35 1027.18L1449.88 1028.03L1451.91 1026.77L1451.38 1025.92ZM1449.35 1027.18C1385.33 1067.25 1260.04 1145.65 1134.79 1160.78L1134.91 1161.77C1260.42 1146.61 1385.9 1068.08 1449.88 1028.03L1449.35 1027.18ZM1134.79 1160.78C1008.19 1176.06 881.566 1141.59 754.832 1106.12L754.563 1107.08C881.264 1142.55 1008.08 1177.09 1134.91 1161.77L1134.79 1160.78ZM754.83 1106.12C628.079 1071.33 501.317 1051.15 374.547 1051.15V1052.15C501.21 1052.15 627.882 1072.32 754.565 1107.08L754.83 1106.12ZM374.547 1051.15C247.831 1051.15 121.079 1055.75 57.678 1065.49L57.8299 1066.48C121.146 1056.75 247.828 1052.15 374.547 1052.15V1051.15ZM57.6727 1065.49L-5.68585 1075.93L-5.52338 1076.91L57.8351 1066.48L57.6727 1065.49ZM-5.10461 1076.42V986.002H-6.10461V1076.42H-5.10461ZM-5.60461 986.502H-4.5553V985.502H-5.60461V986.502ZM-5.0553 311.946V986.002H-4.0553V311.946H-5.0553ZM-14 312.446H-4.5553V311.446H-14V312.446ZM-14.5 1V311.946H-13.5V1H-14.5Z" fill="#FFBF00"/>
<defs>
<filter id="filter0_i_60_14" x="-14.5" y="-9.87158" width="1531.22" height="1175.37" filterUnits="userSpaceOnUse" color-interpolation-filters="sRGB">
<feFlood flood-opacity="0" result="BackgroundImageFix"/>
<feBlend mode="normal" in="SourceGraphic" in2="BackgroundImageFix" result="shape"/>
<feColorMatrix in="SourceAlpha" type="matrix" values="0 0 0 0 0 0 0 0 0 0 0 0 0 0 0 0 0 0 127 0" result="hardAlpha"/>
<feOffset dy="-10"/>
<feGaussianBlur stdDeviation="7.5"/>
<feComposite in2="hardAlpha" operator="arithmetic" k2="-1" k3="1"/>
<feColorMatrix type="matrix" values="0 0 0 0 0.0823529 0 0 0 0 0.0823529 0 0 0 0 0.0823529 0 0 0 0.35 0"/>
<feBlend mode="normal" in2="shape" result="effect1_innerShadow_60_14"/>
</filter>
</defs>
</svg>
