<svg width="1440" height="624" viewBox="0 0 1440 624" fill="none" xmlns="http://www.w3.org/2000/svg">
<g filter="url(#filter0_i_60_10)">
<path fill-rule="evenodd" clip-rule="evenodd" d="M-485 1L-402.186 20.6766C-400.232 21.1334 -398.233 21.601 -396.19 22.0788L-396.189 22.0791C-310.238 42.1865 -147.138 80.3419 14.6445 84.0791L14.6452 84.0791H72.5865C146.855 82.5034 221.123 75.352 295.391 68.2006C368.817 61.1303 442.243 54.06 515.669 52.3779C621.683 49.9289 728.261 58.6763 835.044 67.4403C895.091 72.3686 955.202 77.3021 1015.31 80.2531C1182.32 87.9051 1347.95 80.2531 1432.14 75.8805L1514.96 72.0545V167.158L1514.96 527.35H1526L1514.96 530.206V531.176H1511.21L1442.67 548.906L1440.01 549.582C1355.83 570.987 1190.92 612.918 1026.01 621.009C859.347 629.185 692.684 610.748 526.021 591.793C359.358 573.21 192.695 562.432 26.0314 562.432C-140.632 562.432 -307.295 564.888 -390.627 570.091L-473.958 575.666V527.35H-472.578V167.158H-485V1Z" fill="#20365E" fill-opacity="0.5"/>
</g>
<path d="M-402.186 20.6766L-402.302 21.1631L-402.3 21.1635L-402.186 20.6766ZM-485 1L-484.884 0.513543L-485.5 0.36728V1H-485ZM-396.19 22.0788L-396.304 22.5656L-396.303 22.5658L-396.19 22.0788ZM-396.189 22.0791L-396.075 21.5922L-396.076 21.592L-396.189 22.0791ZM14.6445 84.0791L14.633 84.579H14.6331L14.6445 84.0791ZM14.6452 84.0791L14.6338 84.5791H14.6452V84.0791ZM72.5865 84.0791V84.5792L72.5971 84.579L72.5865 84.0791ZM295.391 68.2006L295.439 68.6983L295.391 68.2006ZM515.669 52.3779L515.681 52.8777L515.681 52.8777L515.669 52.3779ZM835.044 67.4403L835.003 67.9386L835.044 67.4403ZM1015.31 80.2531L1015.29 80.7525L1015.29 80.7525L1015.31 80.2531ZM1432.14 75.8805L1432.12 75.381L1432.12 75.3812L1432.14 75.8805ZM1514.96 72.0545H1515.46V71.5308L1514.94 71.555L1514.96 72.0545ZM1514.96 167.158H1515.46H1514.96ZM1514.96 527.35H1514.46V527.85H1514.96V527.35ZM1526 527.35L1526.13 527.834L1526 526.85V527.35ZM1514.96 530.206L1514.83 529.722L1514.46 529.819V530.206H1514.96ZM1514.96 531.176V531.676H1515.46V531.176H1514.96ZM1511.21 531.176V530.676H1511.15L1511.08 530.692L1511.21 531.176ZM1442.67 548.906L1442.79 549.391L1442.79 549.39L1442.67 548.906ZM1440.01 549.582L1439.89 549.098L1440.01 549.582ZM1026.01 621.009L1026.04 621.508L1026.01 621.009ZM526.021 591.793L526.077 591.296L526.076 591.296L526.021 591.793ZM-390.627 570.091L-390.658 569.592L-390.66 569.592L-390.627 570.091ZM-473.958 575.666H-474.458V576.2L-473.925 576.165L-473.958 575.666ZM-473.958 527.35V526.85H-474.458V527.35H-473.958ZM-472.578 527.35V527.85H-472.078V527.35H-472.578ZM-472.578 167.158H-472.078V166.658H-472.578V167.158ZM-485 167.158H-485.5V167.658H-485V167.158ZM-402.07 20.1902L-484.884 0.513543L-485.116 1.48646L-402.302 21.1631L-402.07 20.1902ZM-396.076 21.5919C-398.119 21.1141 -400.118 20.6465 -402.072 20.1897L-402.3 21.1635C-400.346 21.6202 -398.347 22.0878 -396.304 22.5656L-396.076 21.5919ZM-396.076 21.592L-396.077 21.5917L-396.303 22.5658L-396.302 22.5661L-396.076 21.592ZM14.656 83.5792C-147.068 79.8434 -310.121 41.7004 -396.075 21.5922L-396.303 22.5659C-310.355 42.6725 -147.208 80.8404 14.633 84.579L14.656 83.5792ZM14.6565 83.5792L14.6559 83.5792L14.6331 84.579L14.6338 84.579L14.6565 83.5792ZM72.5865 83.5791H14.6452V84.5791H72.5865V83.5791ZM295.343 67.7029C221.072 74.8546 146.822 82.004 72.5759 83.5792L72.5971 84.579C146.887 83.0028 221.174 75.8494 295.439 68.6983L295.343 67.7029ZM515.658 51.878C442.21 53.5606 368.766 60.6329 295.343 67.7029L295.439 68.6983C368.868 61.6277 442.276 54.5594 515.681 52.8777L515.658 51.878ZM835.085 66.942C728.307 58.1783 621.702 49.4284 515.658 51.878L515.681 52.8777C621.663 50.4295 728.216 59.1742 835.003 67.9386L835.085 66.942ZM1015.34 79.7537C955.236 76.8032 895.133 71.8704 835.085 66.942L835.003 67.9386C895.049 72.8668 955.168 77.8011 1015.29 80.7525L1015.34 79.7537ZM1432.12 75.3812C1347.93 79.7536 1182.32 87.4044 1015.34 79.7536L1015.29 80.7525C1182.32 88.4058 1347.97 80.7525 1432.17 76.3798L1432.12 75.3812ZM1514.94 71.555L1432.12 75.381L1432.17 76.38L1514.98 72.5539L1514.94 71.555ZM1515.46 167.158V72.0545H1514.46V167.158H1515.46ZM1515.46 527.35L1515.46 167.158H1514.46L1514.46 527.35H1515.46ZM1514.96 527.85H1526V526.85H1514.96V527.85ZM1525.87 526.866L1514.83 529.722L1515.08 530.69L1526.13 527.834L1525.87 526.866ZM1515.46 531.176V530.206H1514.46V531.176H1515.46ZM1511.21 531.676H1514.96V530.676H1511.21V531.676ZM1511.08 530.692L1442.54 548.422L1442.79 549.39L1511.33 531.66L1511.08 530.692ZM1442.55 548.422L1439.89 549.098L1440.13 550.067L1442.79 549.391L1442.55 548.422ZM1439.89 549.098C1355.7 570.503 1190.84 612.422 1025.99 620.509L1026.04 621.508C1191 613.415 1355.95 571.471 1440.13 550.067L1439.89 549.098ZM1025.99 620.509C859.37 628.684 692.746 610.252 526.077 591.296L525.964 592.29C692.622 611.244 859.325 629.687 1026.04 621.508L1025.99 620.509ZM526.076 591.296C359.398 572.711 192.716 561.932 26.0314 561.932V562.932C192.673 562.932 359.317 573.709 525.965 592.29L526.076 591.296ZM26.0314 561.932C-140.631 561.932 -307.309 564.388 -390.658 569.592L-390.595 570.59C-307.281 565.388 -140.633 562.932 26.0314 562.932V561.932ZM-390.66 569.592L-473.992 575.167L-473.925 576.165L-390.593 570.59L-390.66 569.592ZM-473.458 575.666V527.35H-474.458V575.666H-473.458ZM-473.958 527.85H-472.578V526.85H-473.958V527.85ZM-473.078 167.158V527.35H-472.078V167.158H-473.078ZM-485 167.658H-472.578V166.658H-485V167.658ZM-485.5 1V167.158H-484.5V1H-485.5Z" fill="#FFBF00"/>
<defs>
<filter id="filter0_i_60_10" x="-485.5" y="-9.63281" width="2011.63" height="633.133" filterUnits="userSpaceOnUse" color-interpolation-filters="sRGB">
<feFlood flood-opacity="0" result="BackgroundImageFix"/>
<feBlend mode="normal" in="SourceGraphic" in2="BackgroundImageFix" result="shape"/>
<feColorMatrix in="SourceAlpha" type="matrix" values="0 0 0 0 0 0 0 0 0 0 0 0 0 0 0 0 0 0 127 0" result="hardAlpha"/>
<feOffset dy="-10"/>
<feGaussianBlur stdDeviation="7.5"/>
<feComposite in2="hardAlpha" operator="arithmetic" k2="-1" k3="1"/>
<feColorMatrix type="matrix" values="0 0 0 0 0.0823529 0 0 0 0 0.0823529 0 0 0 0 0.0823529 0 0 0 0.25 0"/>
<feBlend mode="normal" in2="shape" result="effect1_innerShadow_60_10"/>
</filter>
</defs>
</svg>
