<svg width="20" height="20" viewBox="0 0 20 20" fill="none" xmlns="http://www.w3.org/2000/svg">
<path d="M13.5397 7.20022C13.4257 7.34622 13.2097 7.36222 13.0777 7.23022C12.1657 6.31622 11.2717 5.79822 9.84171 5.87222C9.24171 5.90422 8.41771 6.39822 8.45571 7.09422C8.56571 9.19622 13.7137 8.70822 13.8737 11.7642C13.9737 13.6882 11.9977 14.6002 10.3597 14.6862C8.73971 14.7702 7.63771 14.2322 6.55571 13.1602C6.42971 13.0362 6.43571 12.8302 6.56771 12.7122C6.68771 12.6042 6.87171 12.6102 6.98771 12.7222C7.94371 13.6502 8.80771 14.1662 10.2737 14.0902C11.0517 14.0502 11.9417 13.5242 11.8957 12.6502C11.8017 10.8482 6.74171 11.2102 6.58371 8.19222C6.48371 6.26822 8.00971 5.36622 9.75571 5.27422C11.3917 5.18822 12.4017 5.73222 13.5057 6.78822C13.6217 6.89822 13.6357 7.07422 13.5397 7.20022ZM12.2577 13.5462C12.8677 13.1722 13.2737 12.5342 13.2737 11.7962C13.2737 9.29822 7.86571 9.74422 7.86571 7.31622C7.86571 6.96022 7.93771 6.61422 8.08571 6.29222L8.06971 6.26622C7.48571 6.59822 7.17571 7.32622 7.17571 7.99622C7.17571 10.8022 12.4877 10.1882 12.4877 12.4802C12.4877 12.8362 12.4457 13.2342 12.2277 13.5342L12.2577 13.5462Z" fill="white" fill-opacity="0.54"/>
<path d="M10.1018 17.99C14.5256 17.99 18.1118 14.4038 18.1118 9.97997C18.1118 5.55617 14.5256 1.96997 10.1018 1.96997C5.678 1.96997 2.0918 5.55617 2.0918 9.97997C2.0918 14.4038 5.678 17.99 10.1018 17.99Z" stroke="white" stroke-opacity="0.54" stroke-width="0.5" stroke-miterlimit="10" stroke-linecap="round"/>
</svg>
