<svg width="28" height="28" viewBox="0 0 28 28" fill="none" xmlns="http://www.w3.org/2000/svg">
<path d="M13.106 13.0948V8.93168C11.5066 8.84063 9.94953 8.50449 8.4594 7.92879C8.02613 9.51531 7.76779 11.2666 7.7036 13.0948H13.106Z" fill="#D3D3D3"/>
<path d="M13.106 19.0683V14.9052H7.7036C7.76779 16.7334 8.02613 18.4847 8.4594 20.0712C9.94953 19.4955 11.5066 19.1593 13.106 19.0683Z" fill="#D3D3D3"/>
<path d="M9.02105 6.21352C10.3159 6.72068 11.6897 7.02694 13.106 7.11799V1.32489C11.1427 1.92005 9.77241 4.27573 9.02105 6.21352Z" fill="#D3D3D3"/>
<path d="M18.979 21.7864C17.6841 21.2793 16.3103 20.973 14.894 20.882V26.675C16.8574 26.0799 18.2276 23.7242 18.979 21.7864Z" fill="#D3D3D3"/>
<path d="M5.91488 13.0948C5.98384 11.0037 6.29108 8.99479 6.81215 7.18059C5.56322 6.52244 4.41391 5.69799 3.37935 4.71889C1.36854 7.07041 0.191797 9.98681 0 13.0948H5.91488Z" fill="#D3D3D3"/>
<path d="M22.0851 14.9051C22.0162 16.9962 21.7089 19.0052 21.1879 20.8194C22.4368 21.4775 23.5861 22.302 24.6207 23.2811C26.6315 20.9295 27.8082 18.0131 28 14.9051H22.0851Z" fill="#D3D3D3"/>
<path d="M5.91488 14.9051H0C0.191797 18.0131 1.36854 20.9295 3.37935 23.2811C4.41391 22.302 5.56322 21.4776 6.81215 20.8194C6.29108 19.0052 5.98384 16.9962 5.91488 14.9051Z" fill="#D3D3D3"/>
<path d="M13.106 26.6751V20.882C11.6897 20.973 10.3159 21.2792 9.0211 21.7864C9.77361 23.7274 11.1442 26.0803 13.106 26.6751Z" fill="#D3D3D3"/>
<path d="M20.6022 22.5504C19.7575 24.6928 18.3834 26.9269 16.3874 27.9999C18.9808 27.5523 21.3869 26.3766 23.3678 24.573C22.5213 23.7766 21.593 23.0997 20.6022 22.5504Z" fill="#D3D3D3"/>
<path d="M7.39778 22.5504C6.40703 23.0997 5.47866 23.7766 4.63216 24.573C6.61306 26.3766 9.01924 27.5524 11.6126 28C9.61632 26.9267 8.2423 24.6923 7.39778 22.5504Z" fill="#D3D3D3"/>
<path d="M7.39778 5.44957C8.24252 3.30716 9.61659 1.07304 11.6126 0C9.01924 0.447602 6.61306 1.62333 4.63216 3.42699C5.47871 4.22338 6.40703 4.90027 7.39778 5.44957Z" fill="#D3D3D3"/>
<path d="M14.894 14.9051V19.0683C16.4934 19.1593 18.0505 19.4955 19.5406 20.0712C19.9739 18.4846 20.2322 16.7333 20.2964 14.9051H14.894Z" fill="#D3D3D3"/>
<path d="M21.1879 7.18059C21.7089 8.99479 22.0162 11.0037 22.0851 13.0948H28C27.8082 9.98681 26.6315 7.07041 24.6207 4.71889C23.5861 5.69799 22.4368 6.52239 21.1879 7.18059Z" fill="#D3D3D3"/>
<path d="M14.894 8.93163V13.0948H20.2964C20.2322 11.2666 19.9739 9.51525 19.5406 7.92874C18.0505 8.50443 16.4934 8.84063 14.894 8.93163Z" fill="#D3D3D3"/>
<path d="M14.894 1.32489V7.11793C16.3103 7.02694 17.6841 6.72068 18.9789 6.21347C18.2264 4.27257 16.8558 1.91961 14.894 1.32489Z" fill="#D3D3D3"/>
<path d="M16.3874 0C18.3837 1.0732 19.7577 3.30761 20.6022 5.44957C21.593 4.90027 22.5213 4.22333 23.3678 3.42694C21.3869 1.62339 18.9808 0.447602 16.3874 0Z" fill="#D3D3D3"/>
</svg>
