<svg width="482" height="50" viewBox="0 0 482 50" fill="none" xmlns="http://www.w3.org/2000/svg">
<g filter="url(#filter0_ii_112_1053)">
<rect width="482" height="50" rx="8" fill="#121E34"/>
</g>
<path d="M65.252 29.108C64.748 29.108 64.296 29.024 63.896 28.856C63.496 28.68 63.18 28.44 62.948 28.136C62.716 27.824 62.588 27.468 62.564 27.068H63.692C63.724 27.396 63.876 27.664 64.148 27.872C64.428 28.08 64.792 28.184 65.24 28.184C65.656 28.184 65.984 28.092 66.224 27.908C66.464 27.724 66.584 27.492 66.584 27.212C66.584 26.924 66.456 26.712 66.2 26.576C65.944 26.432 65.548 26.292 65.012 26.156C64.524 26.028 64.124 25.9 63.812 25.772C63.508 25.636 63.244 25.44 63.02 25.184C62.804 24.92 62.696 24.576 62.696 24.152C62.696 23.816 62.796 23.508 62.996 23.228C63.196 22.948 63.48 22.728 63.848 22.568C64.216 22.4 64.636 22.316 65.108 22.316C65.836 22.316 66.424 22.5 66.872 22.868C67.32 23.236 67.56 23.74 67.592 24.38H66.5C66.476 24.036 66.336 23.76 66.08 23.552C65.832 23.344 65.496 23.24 65.072 23.24C64.68 23.24 64.368 23.324 64.136 23.492C63.904 23.66 63.788 23.88 63.788 24.152C63.788 24.368 63.856 24.548 63.992 24.692C64.136 24.828 64.312 24.94 64.52 25.028C64.736 25.108 65.032 25.2 65.408 25.304C65.88 25.432 66.264 25.56 66.56 25.688C66.856 25.808 67.108 25.992 67.316 26.24C67.532 26.488 67.644 26.812 67.652 27.212C67.652 27.572 67.552 27.896 67.352 28.184C67.152 28.472 66.868 28.7 66.5 28.868C66.14 29.028 65.724 29.108 65.252 29.108ZM75.9435 25.46C75.9435 25.668 75.9315 25.888 75.9075 26.12H70.6515C70.6915 26.768 70.9115 27.276 71.3115 27.644C71.7195 28.004 72.2115 28.184 72.7875 28.184C73.2595 28.184 73.6515 28.076 73.9635 27.86C74.2835 27.636 74.5075 27.34 74.6355 26.972H75.8115C75.6355 27.604 75.2835 28.12 74.7555 28.52C74.2275 28.912 73.5715 29.108 72.7875 29.108C72.1635 29.108 71.6035 28.968 71.1075 28.688C70.6195 28.408 70.2355 28.012 69.9555 27.5C69.6755 26.98 69.5355 26.38 69.5355 25.7C69.5355 25.02 69.6715 24.424 69.9435 23.912C70.2155 23.4 70.5955 23.008 71.0835 22.736C71.5795 22.456 72.1475 22.316 72.7875 22.316C73.4115 22.316 73.9635 22.452 74.4435 22.724C74.9235 22.996 75.2915 23.372 75.5475 23.852C75.8115 24.324 75.9435 24.86 75.9435 25.46ZM74.8155 25.232C74.8155 24.816 74.7235 24.46 74.5395 24.164C74.3555 23.86 74.1035 23.632 73.7835 23.48C73.4715 23.32 73.1235 23.24 72.7395 23.24C72.1875 23.24 71.7155 23.416 71.3235 23.768C70.9395 24.12 70.7195 24.608 70.6635 25.232H74.8155ZM77.7269 25.7C77.7269 25.02 77.8629 24.428 78.1349 23.924C78.4069 23.412 78.7829 23.016 79.2629 22.736C79.7509 22.456 80.3069 22.316 80.9309 22.316C81.7389 22.316 82.4029 22.512 82.9229 22.904C83.4509 23.296 83.7989 23.84 83.9669 24.536H82.7909C82.6789 24.136 82.4589 23.82 82.1309 23.588C81.8109 23.356 81.4109 23.24 80.9309 23.24C80.3069 23.24 79.8029 23.456 79.4189 23.888C79.0349 24.312 78.8429 24.916 78.8429 25.7C78.8429 26.492 79.0349 27.104 79.4189 27.536C79.8029 27.968 80.3069 28.184 80.9309 28.184C81.4109 28.184 81.8109 28.072 82.1309 27.848C82.4509 27.624 82.6709 27.304 82.7909 26.888H83.9669C83.7909 27.56 83.4389 28.1 82.9109 28.508C82.3829 28.908 81.7229 29.108 80.9309 29.108C80.3069 29.108 79.7509 28.968 79.2629 28.688C78.7829 28.408 78.4069 28.012 78.1349 27.5C77.8629 26.988 77.7269 26.388 77.7269 25.7ZM87.266 23.492C87.458 23.116 87.73 22.824 88.082 22.616C88.442 22.408 88.878 22.304 89.39 22.304V23.432H89.102C87.878 23.432 87.266 24.096 87.266 25.424V29H86.174V22.424H87.266V23.492ZM97.4006 25.46C97.4006 25.668 97.3886 25.888 97.3646 26.12H92.1086C92.1486 26.768 92.3686 27.276 92.7686 27.644C93.1766 28.004 93.6686 28.184 94.2446 28.184C94.7166 28.184 95.1086 28.076 95.4206 27.86C95.7406 27.636 95.9646 27.34 96.0926 26.972H97.2686C97.0926 27.604 96.7406 28.12 96.2126 28.52C95.6846 28.912 95.0286 29.108 94.2446 29.108C93.6206 29.108 93.0606 28.968 92.5646 28.688C92.0766 28.408 91.6926 28.012 91.4126 27.5C91.1326 26.98 90.9926 26.38 90.9926 25.7C90.9926 25.02 91.1286 24.424 91.4006 23.912C91.6726 23.4 92.0526 23.008 92.5406 22.736C93.0366 22.456 93.6046 22.316 94.2446 22.316C94.8686 22.316 95.4206 22.452 95.9006 22.724C96.3806 22.996 96.7486 23.372 97.0046 23.852C97.2686 24.324 97.4006 24.86 97.4006 25.46ZM96.2726 25.232C96.2726 24.816 96.1806 24.46 95.9966 24.164C95.8126 23.86 95.5606 23.632 95.2406 23.48C94.9286 23.32 94.5806 23.24 94.1966 23.24C93.6446 23.24 93.1726 23.416 92.7806 23.768C92.3966 24.12 92.1766 24.608 92.1206 25.232H96.2726ZM100.924 23.324V27.2C100.924 27.52 100.992 27.748 101.128 27.884C101.264 28.012 101.5 28.076 101.836 28.076H102.64V29H101.656C101.048 29 100.592 28.86 100.288 28.58C99.984 28.3 99.832 27.84 99.832 27.2V23.324H98.98V22.424H99.832V20.768H100.924V22.424H102.64V23.324H100.924ZM104.245 21.32V20.324H106.501V29H105.397V21.32H104.245ZM117.215 22.304C117.727 22.304 118.183 22.412 118.583 22.628C118.983 22.836 119.299 23.152 119.531 23.576C119.763 24 119.879 24.516 119.879 25.124V29H118.799V25.28C118.799 24.624 118.635 24.124 118.307 23.78C117.987 23.428 117.551 23.252 116.999 23.252C116.431 23.252 115.979 23.436 115.643 23.804C115.307 24.164 115.139 24.688 115.139 25.376V29H114.059V25.28C114.059 24.624 113.895 24.124 113.567 23.78C113.247 23.428 112.811 23.252 112.259 23.252C111.691 23.252 111.239 23.436 110.903 23.804C110.567 24.164 110.399 24.688 110.399 25.376V29H109.307V22.424H110.399V23.372C110.615 23.028 110.903 22.764 111.263 22.58C111.631 22.396 112.035 22.304 112.475 22.304C113.027 22.304 113.515 22.428 113.939 22.676C114.363 22.924 114.679 23.288 114.887 23.768C115.071 23.304 115.375 22.944 115.799 22.688C116.223 22.432 116.695 22.304 117.215 22.304ZM124.748 29.108C124.244 29.108 123.792 29.024 123.392 28.856C122.992 28.68 122.676 28.44 122.444 28.136C122.212 27.824 122.084 27.468 122.06 27.068H123.188C123.22 27.396 123.372 27.664 123.644 27.872C123.924 28.08 124.288 28.184 124.736 28.184C125.152 28.184 125.48 28.092 125.72 27.908C125.96 27.724 126.08 27.492 126.08 27.212C126.08 26.924 125.952 26.712 125.696 26.576C125.44 26.432 125.044 26.292 124.508 26.156C124.02 26.028 123.62 25.9 123.308 25.772C123.004 25.636 122.74 25.44 122.516 25.184C122.3 24.92 122.192 24.576 122.192 24.152C122.192 23.816 122.292 23.508 122.492 23.228C122.692 22.948 122.976 22.728 123.344 22.568C123.712 22.4 124.132 22.316 124.604 22.316C125.332 22.316 125.92 22.5 126.368 22.868C126.816 23.236 127.056 23.74 127.088 24.38H125.996C125.972 24.036 125.832 23.76 125.576 23.552C125.328 23.344 124.992 23.24 124.568 23.24C124.176 23.24 123.864 23.324 123.632 23.492C123.4 23.66 123.284 23.88 123.284 24.152C123.284 24.368 123.352 24.548 123.488 24.692C123.632 24.828 123.808 24.94 124.016 25.028C124.232 25.108 124.528 25.2 124.904 25.304C125.376 25.432 125.76 25.56 126.056 25.688C126.352 25.808 126.604 25.992 126.812 26.24C127.028 26.488 127.14 26.812 127.148 27.212C127.148 27.572 127.048 27.896 126.848 28.184C126.648 28.472 126.364 28.7 125.996 28.868C125.636 29.028 125.22 29.108 124.748 29.108ZM132.644 22.304C133.444 22.304 134.092 22.548 134.588 23.036C135.084 23.516 135.332 24.212 135.332 25.124V29H134.252V25.28C134.252 24.624 134.088 24.124 133.76 23.78C133.432 23.428 132.984 23.252 132.416 23.252C131.84 23.252 131.38 23.432 131.036 23.792C130.7 24.152 130.532 24.676 130.532 25.364V29H129.44V22.424H130.532V23.36C130.748 23.024 131.04 22.764 131.408 22.58C131.784 22.396 132.196 22.304 132.644 22.304ZM141.129 22.304C141.625 22.304 142.073 22.412 142.473 22.628C142.873 22.836 143.185 23.152 143.409 23.576C143.641 24 143.757 24.516 143.757 25.124V29H142.677V25.28C142.677 24.624 142.513 24.124 142.185 23.78C141.857 23.428 141.409 23.252 140.841 23.252C140.265 23.252 139.805 23.432 139.461 23.792C139.125 24.152 138.957 24.676 138.957 25.364V29H137.865V20.12H138.957V23.36C139.173 23.024 139.469 22.764 139.845 22.58C140.229 22.396 140.657 22.304 141.129 22.304ZM147.515 26.672C147.595 27.128 147.779 27.48 148.067 27.728C148.363 27.976 148.759 28.1 149.255 28.1C149.919 28.1 150.407 27.84 150.719 27.32C151.039 26.8 151.191 25.924 151.175 24.692C151.007 25.052 150.727 25.336 150.335 25.544C149.943 25.744 149.507 25.844 149.027 25.844C148.491 25.844 148.011 25.736 147.587 25.52C147.171 25.296 146.843 24.972 146.603 24.548C146.363 24.124 146.243 23.612 146.243 23.012C146.243 22.156 146.491 21.468 146.987 20.948C147.483 20.42 148.187 20.156 149.099 20.156C150.219 20.156 151.003 20.52 151.451 21.248C151.907 21.976 152.135 23.06 152.135 24.5C152.135 25.508 152.043 26.34 151.859 26.996C151.683 27.652 151.379 28.152 150.947 28.496C150.523 28.84 149.939 29.012 149.195 29.012C148.379 29.012 147.743 28.792 147.287 28.352C146.831 27.912 146.571 27.352 146.507 26.672H147.515ZM149.207 24.92C149.743 24.92 150.183 24.756 150.527 24.428C150.871 24.092 151.043 23.64 151.043 23.072C151.043 22.472 150.875 21.988 150.539 21.62C150.203 21.252 149.731 21.068 149.123 21.068C148.563 21.068 148.115 21.244 147.779 21.596C147.451 21.948 147.287 22.412 147.287 22.988C147.287 23.572 147.451 24.04 147.779 24.392C148.107 24.744 148.583 24.92 149.207 24.92ZM157.312 22.316C157.88 22.316 158.376 22.44 158.8 22.688C159.232 22.936 159.552 23.248 159.76 23.624V22.424H160.864V29.144C160.864 29.744 160.736 30.276 160.48 30.74C160.224 31.212 159.856 31.58 159.376 31.844C158.904 32.108 158.352 32.24 157.72 32.24C156.856 32.24 156.136 32.036 155.56 31.628C154.984 31.22 154.644 30.664 154.54 29.96H155.62C155.74 30.36 155.988 30.68 156.364 30.92C156.74 31.168 157.192 31.292 157.72 31.292C158.32 31.292 158.808 31.104 159.184 30.728C159.568 30.352 159.76 29.824 159.76 29.144V27.764C159.544 28.148 159.224 28.468 158.8 28.724C158.376 28.98 157.88 29.108 157.312 29.108C156.728 29.108 156.196 28.964 155.716 28.676C155.244 28.388 154.872 27.984 154.6 27.464C154.328 26.944 154.192 26.352 154.192 25.688C154.192 25.016 154.328 24.428 154.6 23.924C154.872 23.412 155.244 23.016 155.716 22.736C156.196 22.456 156.728 22.316 157.312 22.316ZM159.76 25.7C159.76 25.204 159.66 24.772 159.46 24.404C159.26 24.036 158.988 23.756 158.644 23.564C158.308 23.364 157.936 23.264 157.528 23.264C157.12 23.264 156.748 23.36 156.412 23.552C156.076 23.744 155.808 24.024 155.608 24.392C155.408 24.76 155.308 25.192 155.308 25.688C155.308 26.192 155.408 26.632 155.608 27.008C155.808 27.376 156.076 27.66 156.412 27.86C156.748 28.052 157.12 28.148 157.528 28.148C157.936 28.148 158.308 28.052 158.644 27.86C158.988 27.66 159.26 27.376 159.46 27.008C159.66 26.632 159.76 26.196 159.76 25.7ZM164.551 23.492C164.743 23.116 165.015 22.824 165.367 22.616C165.727 22.408 166.163 22.304 166.675 22.304V23.432H166.387C165.163 23.432 164.551 24.096 164.551 25.424V29H163.459V22.424H164.551V23.492ZM169.778 20.12V29H168.686V20.12H169.778ZM174.717 29.108C174.213 29.108 173.761 29.024 173.361 28.856C172.961 28.68 172.645 28.44 172.413 28.136C172.181 27.824 172.053 27.468 172.029 27.068H173.157C173.189 27.396 173.341 27.664 173.613 27.872C173.893 28.08 174.257 28.184 174.705 28.184C175.121 28.184 175.449 28.092 175.689 27.908C175.929 27.724 176.049 27.492 176.049 27.212C176.049 26.924 175.921 26.712 175.665 26.576C175.409 26.432 175.013 26.292 174.477 26.156C173.989 26.028 173.589 25.9 173.277 25.772C172.973 25.636 172.709 25.44 172.485 25.184C172.269 24.92 172.161 24.576 172.161 24.152C172.161 23.816 172.261 23.508 172.461 23.228C172.661 22.948 172.945 22.728 173.313 22.568C173.681 22.4 174.101 22.316 174.573 22.316C175.301 22.316 175.889 22.5 176.337 22.868C176.785 23.236 177.025 23.74 177.057 24.38H175.965C175.941 24.036 175.801 23.76 175.545 23.552C175.297 23.344 174.961 23.24 174.537 23.24C174.145 23.24 173.833 23.324 173.601 23.492C173.369 23.66 173.253 23.88 173.253 24.152C173.253 24.368 173.321 24.548 173.457 24.692C173.601 24.828 173.777 24.94 173.985 25.028C174.201 25.108 174.497 25.2 174.873 25.304C175.345 25.432 175.729 25.56 176.025 25.688C176.321 25.808 176.573 25.992 176.781 26.24C176.997 26.488 177.109 26.812 177.117 27.212C177.117 27.572 177.017 27.896 176.817 28.184C176.617 28.472 176.333 28.7 175.965 28.868C175.605 29.028 175.189 29.108 174.717 29.108ZM185.072 22.424L181.112 32.096H179.984L181.28 28.928L178.628 22.424H179.84L181.904 27.752L183.944 22.424H185.072ZM190.352 29L188.792 26.552L187.292 29H186.152L188.276 25.736L186.152 22.424H187.388L188.948 24.86L190.436 22.424H191.576L189.464 25.676L191.588 29H190.352ZM196.124 22.316C196.692 22.316 197.188 22.44 197.612 22.688C198.044 22.936 198.364 23.248 198.572 23.624V22.424H199.676V29.144C199.676 29.744 199.548 30.276 199.292 30.74C199.036 31.212 198.668 31.58 198.188 31.844C197.716 32.108 197.164 32.24 196.532 32.24C195.668 32.24 194.948 32.036 194.372 31.628C193.796 31.22 193.456 30.664 193.352 29.96H194.432C194.552 30.36 194.8 30.68 195.176 30.92C195.552 31.168 196.004 31.292 196.532 31.292C197.132 31.292 197.62 31.104 197.996 30.728C198.38 30.352 198.572 29.824 198.572 29.144V27.764C198.356 28.148 198.036 28.468 197.612 28.724C197.188 28.98 196.692 29.108 196.124 29.108C195.54 29.108 195.008 28.964 194.528 28.676C194.056 28.388 193.684 27.984 193.412 27.464C193.14 26.944 193.004 26.352 193.004 25.688C193.004 25.016 193.14 24.428 193.412 23.924C193.684 23.412 194.056 23.016 194.528 22.736C195.008 22.456 195.54 22.316 196.124 22.316ZM198.572 25.7C198.572 25.204 198.472 24.772 198.272 24.404C198.072 24.036 197.8 23.756 197.456 23.564C197.12 23.364 196.748 23.264 196.34 23.264C195.932 23.264 195.56 23.36 195.224 23.552C194.888 23.744 194.62 24.024 194.42 24.392C194.22 24.76 194.12 25.192 194.12 25.688C194.12 26.192 194.22 26.632 194.42 27.008C194.62 27.376 194.888 27.66 195.224 27.86C195.56 28.052 195.932 28.148 196.34 28.148C196.748 28.148 197.12 28.052 197.456 27.86C197.8 27.66 198.072 27.376 198.272 27.008C198.472 26.632 198.572 26.196 198.572 25.7ZM208.104 22.424V29H207.012V28.028C206.804 28.364 206.512 28.628 206.136 28.82C205.768 29.004 205.36 29.096 204.912 29.096C204.4 29.096 203.94 28.992 203.532 28.784C203.124 28.568 202.8 28.248 202.56 27.824C202.328 27.4 202.212 26.884 202.212 26.276V22.424H203.292V26.132C203.292 26.78 203.456 27.28 203.784 27.632C204.112 27.976 204.56 28.148 205.128 28.148C205.712 28.148 206.172 27.968 206.508 27.608C206.844 27.248 207.012 26.724 207.012 26.036V22.424H208.104ZM210.289 25.7C210.289 25.02 210.425 24.428 210.697 23.924C210.969 23.412 211.345 23.016 211.825 22.736C212.313 22.456 212.869 22.316 213.493 22.316C214.301 22.316 214.965 22.512 215.485 22.904C216.013 23.296 216.361 23.84 216.529 24.536H215.353C215.241 24.136 215.021 23.82 214.693 23.588C214.373 23.356 213.973 23.24 213.493 23.24C212.869 23.24 212.365 23.456 211.981 23.888C211.597 24.312 211.405 24.916 211.405 25.7C211.405 26.492 211.597 27.104 211.981 27.536C212.365 27.968 212.869 28.184 213.493 28.184C213.973 28.184 214.373 28.072 214.693 27.848C215.013 27.624 215.233 27.304 215.353 26.888H216.529C216.353 27.56 216.001 28.1 215.473 28.508C214.945 28.908 214.285 29.108 213.493 29.108C212.869 29.108 212.313 28.968 211.825 28.688C211.345 28.408 210.969 28.012 210.697 27.5C210.425 26.988 210.289 26.388 210.289 25.7ZM219.829 20.12V29H218.737V20.12H219.829ZM222.032 25.688C222.032 25.016 222.168 24.428 222.44 23.924C222.712 23.412 223.084 23.016 223.556 22.736C224.036 22.456 224.572 22.316 225.164 22.316C225.676 22.316 226.152 22.436 226.592 22.676C227.032 22.908 227.368 23.216 227.6 23.6V20.12H228.704V29H227.6V27.764C227.384 28.156 227.064 28.48 226.64 28.736C226.216 28.984 225.72 29.108 225.152 29.108C224.568 29.108 224.036 28.964 223.556 28.676C223.084 28.388 222.712 27.984 222.44 27.464C222.168 26.944 222.032 26.352 222.032 25.688ZM227.6 25.7C227.6 25.204 227.5 24.772 227.3 24.404C227.1 24.036 226.828 23.756 226.484 23.564C226.148 23.364 225.776 23.264 225.368 23.264C224.96 23.264 224.588 23.36 224.252 23.552C223.916 23.744 223.648 24.024 223.448 24.392C223.248 24.76 223.148 25.192 223.148 25.688C223.148 26.192 223.248 26.632 223.448 27.008C223.648 27.376 223.916 27.66 224.252 27.86C224.588 28.052 224.96 28.148 225.368 28.148C225.776 28.148 226.148 28.052 226.484 27.86C226.828 27.66 227.1 27.376 227.3 27.008C227.5 26.632 227.6 26.196 227.6 25.7ZM232.703 24.488C232.255 24.312 231.911 24.056 231.671 23.72C231.431 23.384 231.311 22.976 231.311 22.496C231.311 22.064 231.419 21.676 231.635 21.332C231.851 20.98 232.171 20.704 232.595 20.504C233.027 20.296 233.547 20.192 234.155 20.192C234.763 20.192 235.279 20.296 235.703 20.504C236.135 20.704 236.459 20.98 236.675 21.332C236.899 21.676 237.011 22.064 237.011 22.496C237.011 22.96 236.887 23.368 236.639 23.72C236.391 24.064 236.051 24.32 235.619 24.488C236.115 24.64 236.507 24.908 236.795 25.292C237.091 25.668 237.239 26.124 237.239 26.66C237.239 27.18 237.111 27.636 236.855 28.028C236.599 28.412 236.235 28.712 235.763 28.928C235.299 29.136 234.763 29.24 234.155 29.24C233.547 29.24 233.011 29.136 232.547 28.928C232.091 28.712 231.735 28.412 231.479 28.028C231.223 27.636 231.095 27.18 231.095 26.66C231.095 26.124 231.239 25.664 231.527 25.28C231.815 24.896 232.207 24.632 232.703 24.488ZM235.955 22.628C235.955 22.14 235.795 21.764 235.475 21.5C235.155 21.236 234.715 21.104 234.155 21.104C233.603 21.104 233.167 21.236 232.847 21.5C232.527 21.764 232.367 22.144 232.367 22.64C232.367 23.088 232.531 23.448 232.859 23.72C233.195 23.992 233.627 24.128 234.155 24.128C234.691 24.128 235.123 23.992 235.451 23.72C235.787 23.44 235.955 23.076 235.955 22.628ZM234.155 24.968C233.563 24.968 233.079 25.108 232.703 25.388C232.327 25.66 232.139 26.072 232.139 26.624C232.139 27.136 232.319 27.548 232.679 27.86C233.047 28.172 233.539 28.328 234.155 28.328C234.771 28.328 235.259 28.172 235.619 27.86C235.979 27.548 236.159 27.136 236.159 26.624C236.159 26.088 235.975 25.68 235.607 25.4C235.239 25.112 234.755 24.968 234.155 24.968ZM239.211 25.688C239.211 25.016 239.347 24.428 239.619 23.924C239.891 23.412 240.263 23.016 240.735 22.736C241.215 22.456 241.751 22.316 242.343 22.316C242.911 22.316 243.407 22.444 243.831 22.7C244.263 22.948 244.579 23.256 244.779 23.624V22.424H245.883V32.12H244.779V27.788C244.571 28.156 244.251 28.468 243.819 28.724C243.387 28.98 242.883 29.108 242.307 29.108C241.731 29.108 241.207 28.964 240.735 28.676C240.263 28.388 239.891 27.984 239.619 27.464C239.347 26.944 239.211 26.352 239.211 25.688ZM244.779 25.7C244.779 25.204 244.679 24.772 244.479 24.404C244.279 24.036 244.007 23.756 243.663 23.564C243.327 23.364 242.955 23.264 242.547 23.264C242.139 23.264 241.767 23.36 241.431 23.552C241.095 23.744 240.827 24.024 240.627 24.392C240.427 24.76 240.327 25.192 240.327 25.688C240.327 26.192 240.427 26.632 240.627 27.008C240.827 27.376 241.095 27.66 241.431 27.86C241.767 28.052 242.139 28.148 242.547 28.148C242.955 28.148 243.327 28.052 243.663 27.86C244.007 27.66 244.279 27.376 244.479 27.008C244.679 26.632 244.779 26.196 244.779 25.7ZM251.191 22.316C251.759 22.316 252.255 22.44 252.679 22.688C253.111 22.936 253.431 23.248 253.639 23.624V22.424H254.743V29.144C254.743 29.744 254.615 30.276 254.359 30.74C254.103 31.212 253.735 31.58 253.255 31.844C252.783 32.108 252.231 32.24 251.599 32.24C250.735 32.24 250.015 32.036 249.439 31.628C248.863 31.22 248.523 30.664 248.419 29.96H249.499C249.619 30.36 249.867 30.68 250.243 30.92C250.619 31.168 251.071 31.292 251.599 31.292C252.199 31.292 252.687 31.104 253.063 30.728C253.447 30.352 253.639 29.824 253.639 29.144V27.764C253.423 28.148 253.103 28.468 252.679 28.724C252.255 28.98 251.759 29.108 251.191 29.108C250.607 29.108 250.075 28.964 249.595 28.676C249.123 28.388 248.751 27.984 248.479 27.464C248.207 26.944 248.071 26.352 248.071 25.688C248.071 25.016 248.207 24.428 248.479 23.924C248.751 23.412 249.123 23.016 249.595 22.736C250.075 22.456 250.607 22.316 251.191 22.316ZM253.639 25.7C253.639 25.204 253.539 24.772 253.339 24.404C253.139 24.036 252.867 23.756 252.523 23.564C252.187 23.364 251.815 23.264 251.407 23.264C250.999 23.264 250.627 23.36 250.291 23.552C249.955 23.744 249.687 24.024 249.487 24.392C249.287 24.76 249.187 25.192 249.187 25.688C249.187 26.192 249.287 26.632 249.487 27.008C249.687 27.376 249.955 27.66 250.291 27.86C250.627 28.052 250.999 28.148 251.407 28.148C251.815 28.148 252.187 28.052 252.523 27.86C252.867 27.66 253.139 27.376 253.339 27.008C253.539 26.632 253.639 26.196 253.639 25.7ZM261.994 22.388C261.818 21.5 261.27 21.056 260.35 21.056C259.638 21.056 259.106 21.332 258.754 21.884C258.402 22.428 258.23 23.328 258.238 24.584C258.422 24.168 258.726 23.844 259.15 23.612C259.582 23.372 260.062 23.252 260.59 23.252C261.414 23.252 262.07 23.508 262.558 24.02C263.054 24.532 263.302 25.24 263.302 26.144C263.302 26.688 263.194 27.176 262.978 27.608C262.77 28.04 262.45 28.384 262.018 28.64C261.594 28.896 261.078 29.024 260.47 29.024C259.646 29.024 259.002 28.84 258.538 28.472C258.074 28.104 257.75 27.596 257.566 26.948C257.382 26.3 257.29 25.5 257.29 24.548C257.29 21.612 258.314 20.144 260.362 20.144C261.146 20.144 261.762 20.356 262.21 20.78C262.658 21.204 262.922 21.74 263.002 22.388H261.994ZM260.362 24.176C260.018 24.176 259.694 24.248 259.39 24.392C259.086 24.528 258.838 24.74 258.646 25.028C258.462 25.308 258.37 25.652 258.37 26.06C258.37 26.668 258.546 27.164 258.898 27.548C259.25 27.924 259.754 28.112 260.41 28.112C260.97 28.112 261.414 27.94 261.742 27.596C262.078 27.244 262.246 26.772 262.246 26.18C262.246 25.556 262.086 25.068 261.766 24.716C261.446 24.356 260.978 24.176 260.362 24.176ZM266.521 28.1H269.749V29H265.273V28.1L268.465 23.312H265.297V22.424H269.725V23.312L266.521 28.1ZM271.604 28.124C272.62 27.308 273.416 26.64 273.992 26.12C274.568 25.592 275.052 25.044 275.444 24.476C275.844 23.9 276.044 23.336 276.044 22.784C276.044 22.264 275.916 21.856 275.66 21.56C275.412 21.256 275.008 21.104 274.448 21.104C273.904 21.104 273.48 21.276 273.176 21.62C272.88 21.956 272.72 22.408 272.696 22.976H271.64C271.672 22.08 271.944 21.388 272.456 20.9C272.968 20.412 273.628 20.168 274.436 20.168C275.26 20.168 275.912 20.396 276.392 20.852C276.88 21.308 277.124 21.936 277.124 22.736C277.124 23.4 276.924 24.048 276.524 24.68C276.132 25.304 275.684 25.856 275.18 26.336C274.676 26.808 274.032 27.36 273.248 27.992H277.376V28.904H271.604V28.124ZM279.161 25.688C279.161 25.016 279.297 24.428 279.569 23.924C279.841 23.412 280.213 23.016 280.685 22.736C281.165 22.456 281.701 22.316 282.293 22.316C282.805 22.316 283.281 22.436 283.721 22.676C284.161 22.908 284.497 23.216 284.729 23.6V20.12H285.833V29H284.729V27.764C284.513 28.156 284.193 28.48 283.769 28.736C283.345 28.984 282.849 29.108 282.281 29.108C281.697 29.108 281.165 28.964 280.685 28.676C280.213 28.388 279.841 27.984 279.569 27.464C279.297 26.944 279.161 26.352 279.161 25.688ZM284.729 25.7C284.729 25.204 284.629 24.772 284.429 24.404C284.229 24.036 283.957 23.756 283.613 23.564C283.277 23.364 282.905 23.264 282.497 23.264C282.089 23.264 281.717 23.36 281.381 23.552C281.045 23.744 280.777 24.024 280.577 24.392C280.377 24.76 280.277 25.192 280.277 25.688C280.277 26.192 280.377 26.632 280.577 27.008C280.777 27.376 281.045 27.66 281.381 27.86C281.717 28.052 282.089 28.148 282.497 28.148C282.905 28.148 283.277 28.052 283.613 27.86C283.957 27.66 284.229 27.376 284.429 27.008C284.629 26.632 284.729 26.196 284.729 25.7ZM287.984 27.068V26.24L292.196 20.408H293.504V26.12H294.704V27.068H293.504V29H292.424V27.068H287.984ZM292.472 21.548L289.244 26.12H292.472V21.548ZM305.485 22.424L303.433 29H302.305L300.721 23.78L299.137 29H298.009L295.945 22.424H297.061L298.573 27.944L300.205 22.424H301.321L302.917 27.956L304.405 22.424H305.485ZM308.411 23.492C308.603 23.116 308.875 22.824 309.227 22.616C309.587 22.408 310.023 22.304 310.535 22.304V23.432H310.247C309.023 23.432 308.411 24.096 308.411 25.424V29H307.319V22.424H308.411V23.492ZM313.877 23.324V27.2C313.877 27.52 313.945 27.748 314.081 27.884C314.217 28.012 314.453 28.076 314.789 28.076H315.593V29H314.609C314.001 29 313.545 28.86 313.241 28.58C312.937 28.3 312.785 27.84 312.785 27.2V23.324H311.933V22.424H312.785V20.768H313.877V22.424H315.593V23.324H313.877ZM323.498 22.424V29H322.406V28.028C322.198 28.364 321.906 28.628 321.53 28.82C321.162 29.004 320.754 29.096 320.306 29.096C319.794 29.096 319.334 28.992 318.926 28.784C318.518 28.568 318.194 28.248 317.954 27.824C317.722 27.4 317.606 26.884 317.606 26.276V22.424H318.686V26.132C318.686 26.78 318.85 27.28 319.178 27.632C319.506 27.976 319.954 28.148 320.522 28.148C321.106 28.148 321.566 27.968 321.902 27.608C322.238 27.248 322.406 26.724 322.406 26.036V22.424H323.498ZM332.092 25.46C332.092 25.668 332.08 25.888 332.056 26.12H326.8C326.84 26.768 327.06 27.276 327.46 27.644C327.868 28.004 328.36 28.184 328.936 28.184C329.408 28.184 329.8 28.076 330.112 27.86C330.432 27.636 330.656 27.34 330.784 26.972H331.96C331.784 27.604 331.432 28.12 330.904 28.52C330.376 28.912 329.72 29.108 328.936 29.108C328.312 29.108 327.752 28.968 327.256 28.688C326.768 28.408 326.384 28.012 326.104 27.5C325.824 26.98 325.684 26.38 325.684 25.7C325.684 25.02 325.82 24.424 326.092 23.912C326.364 23.4 326.744 23.008 327.232 22.736C327.728 22.456 328.296 22.316 328.936 22.316C329.56 22.316 330.112 22.452 330.592 22.724C331.072 22.996 331.44 23.372 331.696 23.852C331.96 24.324 332.092 24.86 332.092 25.46ZM330.964 25.232C330.964 24.816 330.872 24.46 330.688 24.164C330.504 23.86 330.252 23.632 329.932 23.48C329.62 23.32 329.272 23.24 328.888 23.24C328.336 23.24 327.864 23.416 327.472 23.768C327.088 24.12 326.868 24.608 326.812 25.232H330.964ZM333.875 25.688C333.875 25.016 334.011 24.428 334.283 23.924C334.555 23.412 334.927 23.016 335.399 22.736C335.879 22.456 336.415 22.316 337.007 22.316C337.575 22.316 338.071 22.444 338.495 22.7C338.927 22.948 339.243 23.256 339.443 23.624V22.424H340.547V32.12H339.443V27.788C339.235 28.156 338.915 28.468 338.483 28.724C338.051 28.98 337.547 29.108 336.971 29.108C336.395 29.108 335.871 28.964 335.399 28.676C334.927 28.388 334.555 27.984 334.283 27.464C334.011 26.944 333.875 26.352 333.875 25.688ZM339.443 25.7C339.443 25.204 339.343 24.772 339.143 24.404C338.943 24.036 338.671 23.756 338.327 23.564C337.991 23.364 337.619 23.264 337.211 23.264C336.803 23.264 336.431 23.36 336.095 23.552C335.759 23.744 335.491 24.024 335.291 24.392C335.091 24.76 334.991 25.192 334.991 25.688C334.991 26.192 335.091 26.632 335.291 27.008C335.491 27.376 335.759 27.66 336.095 27.86C336.431 28.052 336.803 28.148 337.211 28.148C337.619 28.148 337.991 28.052 338.327 27.86C338.671 27.66 338.943 27.376 339.143 27.008C339.343 26.632 339.443 26.196 339.443 25.7ZM348.807 22.424L344.847 32.096H343.719L345.015 28.928L342.363 22.424H343.575L345.639 27.752L347.679 22.424H348.807ZM350.45 22.508C350.506 21.772 350.79 21.196 351.302 20.78C351.814 20.364 352.478 20.156 353.294 20.156C353.838 20.156 354.306 20.256 354.698 20.456C355.098 20.648 355.398 20.912 355.598 21.248C355.806 21.584 355.91 21.964 355.91 22.388C355.91 22.884 355.766 23.312 355.478 23.672C355.198 24.032 354.83 24.264 354.374 24.368V24.428C354.894 24.556 355.306 24.808 355.61 25.184C355.914 25.56 356.066 26.052 356.066 26.66C356.066 27.116 355.962 27.528 355.754 27.896C355.546 28.256 355.234 28.54 354.818 28.748C354.402 28.956 353.902 29.06 353.318 29.06C352.47 29.06 351.774 28.84 351.23 28.4C350.686 27.952 350.382 27.32 350.318 26.504H351.374C351.43 26.984 351.626 27.376 351.962 27.68C352.298 27.984 352.746 28.136 353.306 28.136C353.866 28.136 354.29 27.992 354.578 27.704C354.874 27.408 355.022 27.028 355.022 26.564C355.022 25.964 354.822 25.532 354.422 25.268C354.022 25.004 353.418 24.872 352.61 24.872H352.334V23.96H352.622C353.358 23.952 353.914 23.832 354.29 23.6C354.666 23.36 354.854 22.992 354.854 22.496C354.854 22.072 354.714 21.732 354.434 21.476C354.162 21.22 353.77 21.092 353.258 21.092C352.762 21.092 352.362 21.22 352.058 21.476C351.754 21.732 351.574 22.076 351.518 22.508H350.45ZM359.695 26.672C359.775 27.128 359.959 27.48 360.247 27.728C360.543 27.976 360.939 28.1 361.435 28.1C362.099 28.1 362.587 27.84 362.899 27.32C363.219 26.8 363.371 25.924 363.355 24.692C363.187 25.052 362.907 25.336 362.515 25.544C362.123 25.744 361.687 25.844 361.207 25.844C360.671 25.844 360.191 25.736 359.767 25.52C359.351 25.296 359.023 24.972 358.783 24.548C358.543 24.124 358.423 23.612 358.423 23.012C358.423 22.156 358.671 21.468 359.167 20.948C359.663 20.42 360.367 20.156 361.279 20.156C362.399 20.156 363.183 20.52 363.631 21.248C364.087 21.976 364.315 23.06 364.315 24.5C364.315 25.508 364.223 26.34 364.039 26.996C363.863 27.652 363.559 28.152 363.127 28.496C362.703 28.84 362.119 29.012 361.375 29.012C360.559 29.012 359.923 28.792 359.467 28.352C359.011 27.912 358.751 27.352 358.687 26.672H359.695ZM361.387 24.92C361.923 24.92 362.363 24.756 362.707 24.428C363.051 24.092 363.223 23.64 363.223 23.072C363.223 22.472 363.055 21.988 362.719 21.62C362.383 21.252 361.911 21.068 361.303 21.068C360.743 21.068 360.295 21.244 359.959 21.596C359.631 21.948 359.467 22.412 359.467 22.988C359.467 23.572 359.631 24.04 359.959 24.392C360.287 24.744 360.763 24.92 361.387 24.92ZM366.575 22.508C366.631 21.772 366.915 21.196 367.427 20.78C367.939 20.364 368.603 20.156 369.419 20.156C369.963 20.156 370.431 20.256 370.823 20.456C371.223 20.648 371.523 20.912 371.723 21.248C371.931 21.584 372.035 21.964 372.035 22.388C372.035 22.884 371.891 23.312 371.603 23.672C371.323 24.032 370.955 24.264 370.499 24.368V24.428C371.019 24.556 371.431 24.808 371.735 25.184C372.039 25.56 372.191 26.052 372.191 26.66C372.191 27.116 372.087 27.528 371.879 27.896C371.671 28.256 371.359 28.54 370.943 28.748C370.527 28.956 370.027 29.06 369.443 29.06C368.595 29.06 367.899 28.84 367.355 28.4C366.811 27.952 366.507 27.32 366.443 26.504H367.499C367.555 26.984 367.751 27.376 368.087 27.68C368.423 27.984 368.871 28.136 369.431 28.136C369.991 28.136 370.415 27.992 370.703 27.704C370.999 27.408 371.147 27.028 371.147 26.564C371.147 25.964 370.947 25.532 370.547 25.268C370.147 25.004 369.543 24.872 368.735 24.872H368.459V23.96H368.747C369.483 23.952 370.039 23.832 370.415 23.6C370.791 23.36 370.979 22.992 370.979 22.496C370.979 22.072 370.839 21.732 370.559 21.476C370.287 21.22 369.895 21.092 369.383 21.092C368.887 21.092 368.487 21.22 368.183 21.476C367.879 21.732 367.699 22.076 367.643 22.508H366.575ZM376.924 29.108C376.42 29.108 375.968 29.024 375.568 28.856C375.168 28.68 374.852 28.44 374.62 28.136C374.388 27.824 374.26 27.468 374.236 27.068H375.364C375.396 27.396 375.548 27.664 375.82 27.872C376.1 28.08 376.464 28.184 376.912 28.184C377.328 28.184 377.656 28.092 377.896 27.908C378.136 27.724 378.256 27.492 378.256 27.212C378.256 26.924 378.128 26.712 377.872 26.576C377.616 26.432 377.22 26.292 376.684 26.156C376.196 26.028 375.796 25.9 375.484 25.772C375.18 25.636 374.916 25.44 374.692 25.184C374.476 24.92 374.368 24.576 374.368 24.152C374.368 23.816 374.468 23.508 374.668 23.228C374.868 22.948 375.152 22.728 375.52 22.568C375.888 22.4 376.308 22.316 376.78 22.316C377.508 22.316 378.096 22.5 378.544 22.868C378.992 23.236 379.232 23.74 379.264 24.38H378.172C378.148 24.036 378.008 23.76 377.752 23.552C377.504 23.344 377.168 23.24 376.744 23.24C376.352 23.24 376.04 23.324 375.808 23.492C375.576 23.66 375.46 23.88 375.46 24.152C375.46 24.368 375.528 24.548 375.664 24.692C375.808 24.828 375.984 24.94 376.192 25.028C376.408 25.108 376.704 25.2 377.08 25.304C377.552 25.432 377.936 25.56 378.232 25.688C378.528 25.808 378.78 25.992 378.988 26.24C379.204 26.488 379.316 26.812 379.324 27.212C379.324 27.572 379.224 27.896 379.024 28.184C378.824 28.472 378.54 28.7 378.172 28.868C377.812 29.028 377.396 29.108 376.924 29.108ZM381.171 27.068V26.24L385.383 20.408H386.691V26.12H387.891V27.068H386.691V29H385.611V27.068H381.171ZM385.659 21.548L382.431 26.12H385.659V21.548ZM395.744 22.424V29H394.652V28.028C394.444 28.364 394.152 28.628 393.776 28.82C393.408 29.004 393 29.096 392.552 29.096C392.04 29.096 391.58 28.992 391.172 28.784C390.764 28.568 390.44 28.248 390.2 27.824C389.968 27.4 389.852 26.884 389.852 26.276V22.424H390.932V26.132C390.932 26.78 391.096 27.28 391.424 27.632C391.752 27.976 392.2 28.148 392.768 28.148C393.352 28.148 393.812 27.968 394.148 27.608C394.484 27.248 394.652 26.724 394.652 26.036V22.424H395.744ZM397.93 25.688C397.93 25.016 398.066 24.428 398.338 23.924C398.61 23.412 398.982 23.016 399.454 22.736C399.934 22.456 400.47 22.316 401.062 22.316C401.63 22.316 402.126 22.444 402.55 22.7C402.982 22.948 403.298 23.256 403.498 23.624V22.424H404.602V32.12H403.498V27.788C403.29 28.156 402.97 28.468 402.538 28.724C402.106 28.98 401.602 29.108 401.026 29.108C400.45 29.108 399.926 28.964 399.454 28.676C398.982 28.388 398.61 27.984 398.338 27.464C398.066 26.944 397.93 26.352 397.93 25.688ZM403.498 25.7C403.498 25.204 403.398 24.772 403.198 24.404C402.998 24.036 402.726 23.756 402.382 23.564C402.046 23.364 401.674 23.264 401.266 23.264C400.858 23.264 400.486 23.36 400.15 23.552C399.814 23.744 399.546 24.024 399.346 24.392C399.146 24.76 399.046 25.192 399.046 25.688C399.046 26.192 399.146 26.632 399.346 27.008C399.546 27.376 399.814 27.66 400.15 27.86C400.486 28.052 400.858 28.148 401.266 28.148C401.674 28.148 402.046 28.052 402.382 27.86C402.726 27.66 402.998 27.376 403.198 27.008C403.398 26.632 403.498 26.196 403.498 25.7Z" fill="white" fill-opacity="0.54"/>
<path d="M443.155 29.2724L436.353 22.953C435.882 22.5162 435.882 21.8099 436.353 21.3777L437.483 20.3276C437.953 19.8908 438.713 19.8908 439.178 20.3276L444 24.807L448.822 20.3276C449.292 19.8908 450.052 19.8908 450.517 20.3276L451.647 21.3777C452.118 21.8145 452.118 22.5208 451.647 22.953L444.845 29.2724C444.385 29.7092 443.625 29.7092 443.155 29.2724Z" fill="white" fill-opacity="0.54"/>
<path d="M43.5397 22.2002C43.4257 22.3462 43.2097 22.3622 43.0777 22.2302C42.1657 21.3162 41.2717 20.7982 39.8417 20.8722C39.2417 20.9042 38.4177 21.3982 38.4557 22.0942C38.5657 24.1962 43.7137 23.7082 43.8737 26.7642C43.9737 28.6882 41.9977 29.6002 40.3597 29.6862C38.7397 29.7702 37.6377 29.2322 36.5557 28.1602C36.4297 28.0362 36.4357 27.8302 36.5677 27.7122C36.6877 27.6042 36.8717 27.6102 36.9877 27.7222C37.9437 28.6502 38.8077 29.1662 40.2737 29.0902C41.0517 29.0502 41.9417 28.5242 41.8957 27.6502C41.8017 25.8482 36.7417 26.2102 36.5837 23.1922C36.4837 21.2682 38.0097 20.3662 39.7557 20.2742C41.3917 20.1882 42.4017 20.7322 43.5057 21.7882C43.6217 21.8982 43.6357 22.0742 43.5397 22.2002ZM42.2577 28.5462C42.8677 28.1722 43.2737 27.5342 43.2737 26.7962C43.2737 24.2982 37.8657 24.7442 37.8657 22.3162C37.8657 21.9602 37.9377 21.6142 38.0857 21.2922L38.0697 21.2662C37.4857 21.5982 37.1757 22.3262 37.1757 22.9962C37.1757 25.8022 42.4877 25.1882 42.4877 27.4802C42.4877 27.8362 42.4457 28.2342 42.2277 28.5342L42.2577 28.5462Z" fill="white" fill-opacity="0.54"/>
<path d="M40.1018 32.99C44.5256 32.99 48.1118 29.4038 48.1118 24.98C48.1118 20.5562 44.5256 16.97 40.1018 16.97C35.678 16.97 32.0918 20.5562 32.0918 24.98C32.0918 29.4038 35.678 32.99 40.1018 32.99Z" stroke="white" stroke-opacity="0.54" stroke-width="0.5" stroke-miterlimit="10" stroke-linecap="round"/>
<defs>
<filter id="filter0_ii_112_1053" x="-4" y="-4" width="490" height="58" filterUnits="userSpaceOnUse" color-interpolation-filters="sRGB">
<feFlood flood-opacity="0" result="BackgroundImageFix"/>
<feBlend mode="normal" in="SourceGraphic" in2="BackgroundImageFix" result="shape"/>
<feColorMatrix in="SourceAlpha" type="matrix" values="0 0 0 0 0 0 0 0 0 0 0 0 0 0 0 0 0 0 127 0" result="hardAlpha"/>
<feOffset dx="4" dy="4"/>
<feGaussianBlur stdDeviation="2"/>
<feComposite in2="hardAlpha" operator="arithmetic" k2="-1" k3="1"/>
<feColorMatrix type="matrix" values="0 0 0 0 0.0235294 0 0 0 0 0.0470588 0 0 0 0 0.0941176 0 0 0 1 0"/>
<feBlend mode="normal" in2="shape" result="effect1_innerShadow_112_1053"/>
<feColorMatrix in="SourceAlpha" type="matrix" values="0 0 0 0 0 0 0 0 0 0 0 0 0 0 0 0 0 0 127 0" result="hardAlpha"/>
<feOffset dx="-4" dy="-4"/>
<feGaussianBlur stdDeviation="2"/>
<feComposite in2="hardAlpha" operator="arithmetic" k2="-1" k3="1"/>
<feColorMatrix type="matrix" values="0 0 0 0 0.227451 0 0 0 0 0.266667 0 0 0 0 0.364706 0 0 0 0.5 0"/>
<feBlend mode="normal" in2="effect1_innerShadow_112_1053" result="effect2_innerShadow_112_1053"/>
</filter>
</defs>
</svg>
