<svg width="210" height="50" viewBox="0 0 210 50" fill="none" xmlns="http://www.w3.org/2000/svg">
<g filter="url(#filter0_ii_112_1050)">
<rect width="210" height="50" rx="8" fill="#121E34"/>
</g>
<path d="M31.0668 27.45H28.0268L27.4668 29H26.5068L29.0268 22.07H30.0768L32.5868 29H31.6268L31.0668 27.45ZM30.8068 26.71L29.5468 23.19L28.2868 26.71H30.8068ZM34.905 22.63C34.7317 22.63 34.585 22.57 34.465 22.45C34.345 22.33 34.285 22.1833 34.285 22.01C34.285 21.8367 34.345 21.69 34.465 21.57C34.585 21.45 34.7317 21.39 34.905 21.39C35.0717 21.39 35.2117 21.45 35.325 21.57C35.445 21.69 35.505 21.8367 35.505 22.01C35.505 22.1833 35.445 22.33 35.325 22.45C35.2117 22.57 35.0717 22.63 34.905 22.63ZM35.345 23.52V29H34.435V23.52H35.345ZM38.556 24.41C38.716 24.0967 38.9426 23.8533 39.236 23.68C39.536 23.5067 39.8993 23.42 40.326 23.42V24.36H40.086C39.066 24.36 38.556 24.9133 38.556 26.02V29H37.646V23.52H38.556V24.41ZM41.7864 26.24C41.7864 25.68 41.8998 25.19 42.1264 24.77C42.3531 24.3433 42.6631 24.0133 43.0564 23.78C43.4564 23.5467 43.9031 23.43 44.3964 23.43C44.8231 23.43 45.2198 23.53 45.5864 23.73C45.9531 23.9233 46.2331 24.18 46.4264 24.5V21.6H47.3464V29H46.4264V27.97C46.2464 28.2967 45.9798 28.5667 45.6264 28.78C45.2731 28.9867 44.8598 29.09 44.3864 29.09C43.8998 29.09 43.4564 28.97 43.0564 28.73C42.6631 28.49 42.3531 28.1533 42.1264 27.72C41.8998 27.2867 41.7864 26.7933 41.7864 26.24ZM46.4264 26.25C46.4264 25.8367 46.3431 25.4767 46.1764 25.17C46.0098 24.8633 45.7831 24.63 45.4964 24.47C45.2164 24.3033 44.9064 24.22 44.5664 24.22C44.2264 24.22 43.9164 24.3 43.6364 24.46C43.3564 24.62 43.1331 24.8533 42.9664 25.16C42.7998 25.4667 42.7164 25.8267 42.7164 26.24C42.7164 26.66 42.7998 27.0267 42.9664 27.34C43.1331 27.6467 43.3564 27.8833 43.6364 28.05C43.9164 28.21 44.2264 28.29 44.5664 28.29C44.9064 28.29 45.2164 28.21 45.4964 28.05C45.7831 27.8833 46.0098 27.6467 46.1764 27.34C46.3431 27.0267 46.4264 26.6633 46.4264 26.25ZM50.5443 24.41C50.7043 24.0967 50.9309 23.8533 51.2243 23.68C51.5243 23.5067 51.8876 23.42 52.3143 23.42V24.36H52.0743C51.0543 24.36 50.5443 24.9133 50.5443 26.02V29H49.6343V23.52H50.5443V24.41ZM56.5047 29.09C55.9914 29.09 55.5247 28.9733 55.1047 28.74C54.6914 28.5067 54.3647 28.1767 54.1247 27.75C53.8914 27.3167 53.7747 26.8167 53.7747 26.25C53.7747 25.69 53.8947 25.1967 54.1347 24.77C54.3814 24.3367 54.7147 24.0067 55.1347 23.78C55.5547 23.5467 56.0247 23.43 56.5447 23.43C57.0647 23.43 57.5347 23.5467 57.9547 23.78C58.3747 24.0067 58.7047 24.3333 58.9447 24.76C59.1914 25.1867 59.3147 25.6833 59.3147 26.25C59.3147 26.8167 59.1881 27.3167 58.9347 27.75C58.6881 28.1767 58.3514 28.5067 57.9247 28.74C57.4981 28.9733 57.0247 29.09 56.5047 29.09ZM56.5047 28.29C56.8314 28.29 57.1381 28.2133 57.4247 28.06C57.7114 27.9067 57.9414 27.6767 58.1147 27.37C58.2947 27.0633 58.3847 26.69 58.3847 26.25C58.3847 25.81 58.2981 25.4367 58.1247 25.13C57.9514 24.8233 57.7247 24.5967 57.4447 24.45C57.1647 24.2967 56.8614 24.22 56.5347 24.22C56.2014 24.22 55.8947 24.2967 55.6147 24.45C55.3414 24.5967 55.1214 24.8233 54.9547 25.13C54.7881 25.4367 54.7047 25.81 54.7047 26.25C54.7047 26.6967 54.7847 27.0733 54.9447 27.38C55.1114 27.6867 55.3314 27.9167 55.6047 28.07C55.8781 28.2167 56.1781 28.29 56.5047 28.29ZM62.1712 24.53C62.3512 24.2167 62.6179 23.9567 62.9712 23.75C63.3312 23.5367 63.7479 23.43 64.2212 23.43C64.7079 23.43 65.1479 23.5467 65.5412 23.78C65.9412 24.0133 66.2545 24.3433 66.4812 24.77C66.7079 25.19 66.8212 25.68 66.8212 26.24C66.8212 26.7933 66.7079 27.2867 66.4812 27.72C66.2545 28.1533 65.9412 28.49 65.5412 28.73C65.1479 28.97 64.7079 29.09 64.2212 29.09C63.7545 29.09 63.3412 28.9867 62.9812 28.78C62.6279 28.5667 62.3579 28.3033 62.1712 27.99V31.6H61.2612V23.52H62.1712V24.53ZM65.8912 26.24C65.8912 25.8267 65.8079 25.4667 65.6412 25.16C65.4745 24.8533 65.2479 24.62 64.9612 24.46C64.6812 24.3 64.3712 24.22 64.0312 24.22C63.6979 24.22 63.3879 24.3033 63.1012 24.47C62.8212 24.63 62.5945 24.8667 62.4212 25.18C62.2545 25.4867 62.1712 25.8433 62.1712 26.25C62.1712 26.6633 62.2545 27.0267 62.4212 27.34C62.5945 27.6467 62.8212 27.8833 63.1012 28.05C63.3879 28.21 63.6979 28.29 64.0312 28.29C64.3712 28.29 64.6812 28.21 64.9612 28.05C65.2479 27.8833 65.4745 27.6467 65.6412 27.34C65.8079 27.0267 65.8912 26.66 65.8912 26.24ZM71.845 26.24C71.845 25.68 71.9584 25.19 72.185 24.77C72.4117 24.3433 72.7217 24.0133 73.115 23.78C73.515 23.5467 73.9584 23.43 74.445 23.43C74.925 23.43 75.3417 23.5333 75.695 23.74C76.0484 23.9467 76.3117 24.2067 76.485 24.52V23.52H77.405V29H76.485V27.98C76.305 28.3 76.035 28.5667 75.675 28.78C75.3217 28.9867 74.9084 29.09 74.435 29.09C73.9484 29.09 73.5084 28.97 73.115 28.73C72.7217 28.49 72.4117 28.1533 72.185 27.72C71.9584 27.2867 71.845 26.7933 71.845 26.24ZM76.485 26.25C76.485 25.8367 76.4017 25.4767 76.235 25.17C76.0684 24.8633 75.8417 24.63 75.555 24.47C75.275 24.3033 74.965 24.22 74.625 24.22C74.285 24.22 73.975 24.3 73.695 24.46C73.415 24.62 73.1917 24.8533 73.025 25.16C72.8584 25.4667 72.775 25.8267 72.775 26.24C72.775 26.66 72.8584 27.0267 73.025 27.34C73.1917 27.6467 73.415 27.8833 73.695 28.05C73.975 28.21 74.285 28.29 74.625 28.29C74.965 28.29 75.275 28.21 75.555 28.05C75.8417 27.8833 76.0684 27.6467 76.235 27.34C76.4017 27.0267 76.485 26.6633 76.485 26.25ZM86.2829 23.42C86.7095 23.42 87.0895 23.51 87.4229 23.69C87.7562 23.8633 88.0195 24.1267 88.2129 24.48C88.4062 24.8333 88.5029 25.2633 88.5029 25.77V29H87.6029V25.9C87.6029 25.3533 87.4662 24.9367 87.1929 24.65C86.9262 24.3567 86.5629 24.21 86.1029 24.21C85.6295 24.21 85.2529 24.3633 84.9729 24.67C84.6929 24.97 84.5529 25.4067 84.5529 25.98V29H83.6529V25.9C83.6529 25.3533 83.5162 24.9367 83.2429 24.65C82.9762 24.3567 82.6129 24.21 82.1529 24.21C81.6795 24.21 81.3029 24.3633 81.0229 24.67C80.7429 24.97 80.6029 25.4067 80.6029 25.98V29H79.6929V23.52H80.6029V24.31C80.7829 24.0233 81.0229 23.8033 81.3229 23.65C81.6295 23.4967 81.9662 23.42 82.3329 23.42C82.7929 23.42 83.1995 23.5233 83.5529 23.73C83.9062 23.9367 84.1695 24.24 84.3429 24.64C84.4962 24.2533 84.7495 23.9533 85.1029 23.74C85.4562 23.5267 85.8495 23.42 86.2829 23.42ZM93.1356 29.09C92.6223 29.09 92.1556 28.9733 91.7356 28.74C91.3223 28.5067 90.9956 28.1767 90.7556 27.75C90.5223 27.3167 90.4056 26.8167 90.4056 26.25C90.4056 25.69 90.5256 25.1967 90.7656 24.77C91.0123 24.3367 91.3456 24.0067 91.7656 23.78C92.1856 23.5467 92.6556 23.43 93.1756 23.43C93.6956 23.43 94.1656 23.5467 94.5856 23.78C95.0056 24.0067 95.3356 24.3333 95.5756 24.76C95.8223 25.1867 95.9456 25.6833 95.9456 26.25C95.9456 26.8167 95.8189 27.3167 95.5656 27.75C95.3189 28.1767 94.9823 28.5067 94.5556 28.74C94.1289 28.9733 93.6556 29.09 93.1356 29.09ZM93.1356 28.29C93.4623 28.29 93.7689 28.2133 94.0556 28.06C94.3423 27.9067 94.5723 27.6767 94.7456 27.37C94.9256 27.0633 95.0156 26.69 95.0156 26.25C95.0156 25.81 94.9289 25.4367 94.7556 25.13C94.5823 24.8233 94.3556 24.5967 94.0756 24.45C93.7956 24.2967 93.4923 24.22 93.1656 24.22C92.8323 24.22 92.5256 24.2967 92.2456 24.45C91.9723 24.5967 91.7523 24.8233 91.5856 25.13C91.4189 25.4367 91.3356 25.81 91.3356 26.25C91.3356 26.6967 91.4156 27.0733 91.5756 27.38C91.7423 27.6867 91.9623 27.9167 92.2356 28.07C92.5089 28.2167 92.8089 28.29 93.1356 28.29ZM102.752 23.52V29H101.842V28.19C101.669 28.47 101.425 28.69 101.112 28.85C100.805 29.0033 100.465 29.08 100.092 29.08C99.6654 29.08 99.2821 28.9933 98.9421 28.82C98.6021 28.64 98.3321 28.3733 98.1321 28.02C97.9387 27.6667 97.8421 27.2367 97.8421 26.73V23.52H98.7421V26.61C98.7421 27.15 98.8787 27.5667 99.1521 27.86C99.4254 28.1467 99.7987 28.29 100.272 28.29C100.759 28.29 101.142 28.14 101.422 27.84C101.702 27.54 101.842 27.1033 101.842 26.53V23.52H102.752ZM107.709 23.42C108.375 23.42 108.915 23.6233 109.329 24.03C109.742 24.43 109.949 25.01 109.949 25.77V29H109.049V25.9C109.049 25.3533 108.912 24.9367 108.639 24.65C108.365 24.3567 107.992 24.21 107.519 24.21C107.039 24.21 106.655 24.36 106.369 24.66C106.089 24.96 105.949 25.3967 105.949 25.97V29H105.039V23.52H105.949V24.3C106.129 24.02 106.372 23.8033 106.679 23.65C106.992 23.4967 107.335 23.42 107.709 23.42ZM113.295 24.27V27.5C113.295 27.7667 113.352 27.9567 113.465 28.07C113.578 28.1767 113.775 28.23 114.055 28.23H114.725V29H113.905C113.398 29 113.018 28.8833 112.765 28.65C112.512 28.4167 112.385 28.0333 112.385 27.5V24.27H111.675V23.52H112.385V22.14H113.295V23.52H114.725V24.27H113.295ZM122.334 30.86C121.694 30.2333 121.194 29.4367 120.834 28.47C120.48 27.5033 120.304 26.46 120.304 25.34C120.304 24.1933 120.49 23.1233 120.864 22.13C121.244 21.13 121.784 20.3067 122.484 19.66H123.434V19.75C122.687 20.45 122.124 21.2933 121.744 22.28C121.37 23.26 121.184 24.28 121.184 25.34C121.184 26.3733 121.36 27.36 121.714 28.3C122.074 29.24 122.597 30.0633 123.284 30.77V30.86H122.334ZM124.945 26.25C124.945 25.6833 125.058 25.19 125.285 24.77C125.511 24.3433 125.825 24.0133 126.225 23.78C126.631 23.5467 127.095 23.43 127.615 23.43C128.288 23.43 128.841 23.5933 129.275 23.92C129.715 24.2467 130.005 24.7 130.145 25.28H129.165C129.071 24.9467 128.888 24.6833 128.615 24.49C128.348 24.2967 128.015 24.2 127.615 24.2C127.095 24.2 126.675 24.38 126.355 24.74C126.035 25.0933 125.875 25.5967 125.875 26.25C125.875 26.91 126.035 27.42 126.355 27.78C126.675 28.14 127.095 28.32 127.615 28.32C128.015 28.32 128.348 28.2267 128.615 28.04C128.881 27.8533 129.065 27.5867 129.165 27.24H130.145C129.998 27.8 129.705 28.25 129.265 28.59C128.825 28.9233 128.275 29.09 127.615 29.09C127.095 29.09 126.631 28.9733 126.225 28.74C125.825 28.5067 125.511 28.1767 125.285 27.75C125.058 27.3233 124.945 26.8233 124.945 26.25ZM133.019 24.41C133.179 24.0967 133.406 23.8533 133.699 23.68C133.999 23.5067 134.362 23.42 134.789 23.42V24.36H134.549C133.529 24.36 133.019 24.9133 133.019 26.02V29H132.109V23.52H133.019V24.41ZM141.589 26.05C141.589 26.2233 141.579 26.4067 141.559 26.6H137.179C137.213 27.14 137.396 27.5633 137.729 27.87C138.069 28.17 138.479 28.32 138.959 28.32C139.353 28.32 139.679 28.23 139.939 28.05C140.206 27.8633 140.393 27.6167 140.499 27.31H141.479C141.333 27.8367 141.039 28.2667 140.599 28.6C140.159 28.9267 139.613 29.09 138.959 29.09C138.439 29.09 137.973 28.9733 137.559 28.74C137.153 28.5067 136.833 28.1767 136.599 27.75C136.366 27.3167 136.249 26.8167 136.249 26.25C136.249 25.6833 136.363 25.1867 136.589 24.76C136.816 24.3333 137.133 24.0067 137.539 23.78C137.953 23.5467 138.426 23.43 138.959 23.43C139.479 23.43 139.939 23.5433 140.339 23.77C140.739 23.9967 141.046 24.31 141.259 24.71C141.479 25.1033 141.589 25.55 141.589 26.05ZM140.649 25.86C140.649 25.5133 140.573 25.2167 140.419 24.97C140.266 24.7167 140.056 24.5267 139.789 24.4C139.529 24.2667 139.239 24.2 138.919 24.2C138.459 24.2 138.066 24.3467 137.739 24.64C137.419 24.9333 137.236 25.34 137.189 25.86H140.649ZM143.201 26.24C143.201 25.68 143.314 25.19 143.541 24.77C143.767 24.3433 144.077 24.0133 144.471 23.78C144.871 23.5467 145.314 23.43 145.801 23.43C146.281 23.43 146.697 23.5333 147.051 23.74C147.404 23.9467 147.667 24.2067 147.841 24.52V23.52H148.761V29H147.841V27.98C147.661 28.3 147.391 28.5667 147.031 28.78C146.677 28.9867 146.264 29.09 145.791 29.09C145.304 29.09 144.864 28.97 144.471 28.73C144.077 28.49 143.767 28.1533 143.541 27.72C143.314 27.2867 143.201 26.7933 143.201 26.24ZM147.841 26.25C147.841 25.8367 147.757 25.4767 147.591 25.17C147.424 24.8633 147.197 24.63 146.911 24.47C146.631 24.3033 146.321 24.22 145.981 24.22C145.641 24.22 145.331 24.3 145.051 24.46C144.771 24.62 144.547 24.8533 144.381 25.16C144.214 25.4667 144.131 25.8267 144.131 26.24C144.131 26.66 144.214 27.0267 144.381 27.34C144.547 27.6467 144.771 27.8833 145.051 28.05C145.331 28.21 145.641 28.29 145.981 28.29C146.321 28.29 146.631 28.21 146.911 28.05C147.197 27.8833 147.424 27.6467 147.591 27.34C147.757 27.0267 147.841 26.6633 147.841 26.25ZM152.158 24.27V27.5C152.158 27.7667 152.215 27.9567 152.328 28.07C152.442 28.1767 152.638 28.23 152.918 28.23H153.588V29H152.768C152.262 29 151.882 28.8833 151.628 28.65C151.375 28.4167 151.248 28.0333 151.248 27.5V24.27H150.538V23.52H151.248V22.14H152.158V23.52H153.588V24.27H152.158ZM160.441 26.05C160.441 26.2233 160.431 26.4067 160.411 26.6H156.031C156.064 27.14 156.248 27.5633 156.581 27.87C156.921 28.17 157.331 28.32 157.811 28.32C158.204 28.32 158.531 28.23 158.791 28.05C159.058 27.8633 159.244 27.6167 159.351 27.31H160.331C160.184 27.8367 159.891 28.2667 159.451 28.6C159.011 28.9267 158.464 29.09 157.811 29.09C157.291 29.09 156.824 28.9733 156.411 28.74C156.004 28.5067 155.684 28.1767 155.451 27.75C155.218 27.3167 155.101 26.8167 155.101 26.25C155.101 25.6833 155.214 25.1867 155.441 24.76C155.668 24.3333 155.984 24.0067 156.391 23.78C156.804 23.5467 157.278 23.43 157.811 23.43C158.331 23.43 158.791 23.5433 159.191 23.77C159.591 23.9967 159.898 24.31 160.111 24.71C160.331 25.1033 160.441 25.55 160.441 26.05ZM159.501 25.86C159.501 25.5133 159.424 25.2167 159.271 24.97C159.118 24.7167 158.908 24.5267 158.641 24.4C158.381 24.2667 158.091 24.2 157.771 24.2C157.311 24.2 156.918 24.3467 156.591 24.64C156.271 24.9333 156.088 25.34 156.041 25.86H159.501ZM171.568 22.03L168.938 29H167.888L165.258 22.03H166.228L168.418 28.04L170.608 22.03H171.568ZM177.096 29L174.226 25.82V29H173.316V22.03H174.226V25.26L177.106 22.03H178.256L175.096 25.52L178.286 29H177.096ZM179.762 30.86V30.77C180.449 30.0633 180.969 29.24 181.322 28.3C181.682 27.36 181.862 26.3733 181.862 25.34C181.862 24.28 181.672 23.26 181.292 22.28C180.919 21.2933 180.359 20.45 179.612 19.75V19.66H180.562C181.262 20.3067 181.799 21.13 182.172 22.13C182.552 23.1233 182.742 24.1933 182.742 25.34C182.742 26.46 182.562 27.5033 182.202 28.47C181.849 29.4367 181.352 30.2333 180.712 30.86H179.762Z" fill="white" fill-opacity="0.54"/>
<defs>
<filter id="filter0_ii_112_1050" x="-4" y="-4" width="218" height="58" filterUnits="userSpaceOnUse" color-interpolation-filters="sRGB">
<feFlood flood-opacity="0" result="BackgroundImageFix"/>
<feBlend mode="normal" in="SourceGraphic" in2="BackgroundImageFix" result="shape"/>
<feColorMatrix in="SourceAlpha" type="matrix" values="0 0 0 0 0 0 0 0 0 0 0 0 0 0 0 0 0 0 127 0" result="hardAlpha"/>
<feOffset dx="4" dy="4"/>
<feGaussianBlur stdDeviation="2"/>
<feComposite in2="hardAlpha" operator="arithmetic" k2="-1" k3="1"/>
<feColorMatrix type="matrix" values="0 0 0 0 0.0235294 0 0 0 0 0.0470588 0 0 0 0 0.0941176 0 0 0 1 0"/>
<feBlend mode="normal" in2="shape" result="effect1_innerShadow_112_1050"/>
<feColorMatrix in="SourceAlpha" type="matrix" values="0 0 0 0 0 0 0 0 0 0 0 0 0 0 0 0 0 0 127 0" result="hardAlpha"/>
<feOffset dx="-4" dy="-4"/>
<feGaussianBlur stdDeviation="2"/>
<feComposite in2="hardAlpha" operator="arithmetic" k2="-1" k3="1"/>
<feColorMatrix type="matrix" values="0 0 0 0 0.227451 0 0 0 0 0.266667 0 0 0 0 0.364706 0 0 0 0.5 0"/>
<feBlend mode="normal" in2="effect1_innerShadow_112_1050" result="effect2_innerShadow_112_1050"/>
</filter>
</defs>
</svg>
