<svg width="210" height="50" viewBox="0 0 210 50" fill="none" xmlns="http://www.w3.org/2000/svg">
<g filter="url(#filter0_ii_169_56)">
<rect width="210" height="50" rx="8" fill="#121E34"/>
</g>
<path d="M15.3513 27.512H12.2073L11.7033 29H9.55528L12.6033 20.576H14.9793L18.0273 29H15.8553L15.3513 27.512ZM14.8233 25.928L13.7793 22.844L12.7473 25.928H14.8233ZM20.7369 21.608C20.3769 21.608 20.0809 21.504 19.8489 21.296C19.6249 21.08 19.5129 20.816 19.5129 20.504C19.5129 20.184 19.6249 19.92 19.8489 19.712C20.0809 19.496 20.3769 19.388 20.7369 19.388C21.0889 19.388 21.3769 19.496 21.6009 19.712C21.8329 19.92 21.9489 20.184 21.9489 20.504C21.9489 20.816 21.8329 21.08 21.6009 21.296C21.3769 21.504 21.0889 21.608 20.7369 21.608ZM21.7569 22.304V29H19.7049V22.304H21.7569ZM26.046 23.42C26.286 23.052 26.586 22.764 26.946 22.556C27.306 22.34 27.706 22.232 28.146 22.232V24.404H27.582C27.07 24.404 26.686 24.516 26.43 24.74C26.174 24.956 26.046 25.34 26.046 25.892V29H23.994V22.304H26.046V23.42ZM29.4688 25.64C29.4688 24.952 29.5968 24.348 29.8528 23.828C30.1168 23.308 30.4728 22.908 30.9208 22.628C31.3688 22.348 31.8688 22.208 32.4208 22.208C32.8608 22.208 33.2608 22.3 33.6208 22.484C33.9888 22.668 34.2768 22.916 34.4848 23.228V20.12H36.5368V29H34.4848V28.04C34.2928 28.36 34.0168 28.616 33.6568 28.808C33.3048 29 32.8928 29.096 32.4208 29.096C31.8688 29.096 31.3688 28.956 30.9208 28.676C30.4728 28.388 30.1168 27.984 29.8528 27.464C29.5968 26.936 29.4688 26.328 29.4688 25.64ZM34.4848 25.652C34.4848 25.14 34.3408 24.736 34.0528 24.44C33.7728 24.144 33.4288 23.996 33.0208 23.996C32.6128 23.996 32.2648 24.144 31.9768 24.44C31.6968 24.728 31.5568 25.128 31.5568 25.64C31.5568 26.152 31.6968 26.56 31.9768 26.864C32.2648 27.16 32.6128 27.308 33.0208 27.308C33.4288 27.308 33.7728 27.16 34.0528 26.864C34.3408 26.568 34.4848 26.164 34.4848 25.652ZM40.8233 23.42C41.0633 23.052 41.3633 22.764 41.7233 22.556C42.0833 22.34 42.4833 22.232 42.9233 22.232V24.404H42.3593C41.8473 24.404 41.4633 24.516 41.2073 24.74C40.9513 24.956 40.8233 25.34 40.8233 25.892V29H38.7713V22.304H40.8233V23.42ZM47.7022 29.096C47.0462 29.096 46.4542 28.956 45.9262 28.676C45.4062 28.396 44.9942 27.996 44.6902 27.476C44.3942 26.956 44.2462 26.348 44.2462 25.652C44.2462 24.964 44.3982 24.36 44.7022 23.84C45.0062 23.312 45.4222 22.908 45.9502 22.628C46.4782 22.348 47.0702 22.208 47.7262 22.208C48.3822 22.208 48.9742 22.348 49.5022 22.628C50.0302 22.908 50.4462 23.312 50.7502 23.84C51.0542 24.36 51.2062 24.964 51.2062 25.652C51.2062 26.34 51.0502 26.948 50.7382 27.476C50.4342 27.996 50.0142 28.396 49.4782 28.676C48.9502 28.956 48.3582 29.096 47.7022 29.096ZM47.7022 27.32C48.0942 27.32 48.4262 27.176 48.6982 26.888C48.9782 26.6 49.1182 26.188 49.1182 25.652C49.1182 25.116 48.9822 24.704 48.7102 24.416C48.4462 24.128 48.1182 23.984 47.7262 23.984C47.3262 23.984 46.9942 24.128 46.7302 24.416C46.4662 24.696 46.3342 25.108 46.3342 25.652C46.3342 26.188 46.4622 26.6 46.7182 26.888C46.9822 27.176 47.3102 27.32 47.7022 27.32ZM55.0968 23.252C55.2968 22.94 55.5728 22.688 55.9248 22.496C56.2768 22.304 56.6888 22.208 57.1608 22.208C57.7128 22.208 58.2128 22.348 58.6608 22.628C59.1088 22.908 59.4608 23.308 59.7168 23.828C59.9808 24.348 60.1128 24.952 60.1128 25.64C60.1128 26.328 59.9808 26.936 59.7168 27.464C59.4608 27.984 59.1088 28.388 58.6608 28.676C58.2128 28.956 57.7128 29.096 57.1608 29.096C56.6968 29.096 56.2848 29 55.9248 28.808C55.5728 28.616 55.2968 28.368 55.0968 28.064V32.192H53.0448V22.304H55.0968V23.252ZM58.0248 25.64C58.0248 25.128 57.8808 24.728 57.5928 24.44C57.3128 24.144 56.9648 23.996 56.5488 23.996C56.1408 23.996 55.7928 24.144 55.5048 24.44C55.2248 24.736 55.0848 25.14 55.0848 25.652C55.0848 26.164 55.2248 26.568 55.5048 26.864C55.7928 27.16 56.1408 27.308 56.5488 27.308C56.9568 27.308 57.3048 27.16 57.5928 26.864C57.8808 26.56 58.0248 26.152 58.0248 25.64ZM64.8243 25.64C64.8243 24.952 64.9523 24.348 65.2083 23.828C65.4723 23.308 65.8283 22.908 66.2763 22.628C66.7243 22.348 67.2243 22.208 67.7763 22.208C68.2483 22.208 68.6603 22.304 69.0123 22.496C69.3723 22.688 69.6483 22.94 69.8403 23.252V22.304H71.8923V29H69.8403V28.052C69.6403 28.364 69.3603 28.616 69.0003 28.808C68.6483 29 68.2363 29.096 67.7643 29.096C67.2203 29.096 66.7243 28.956 66.2763 28.676C65.8283 28.388 65.4723 27.984 65.2083 27.464C64.9523 26.936 64.8243 26.328 64.8243 25.64ZM69.8403 25.652C69.8403 25.14 69.6963 24.736 69.4083 24.44C69.1283 24.144 68.7843 23.996 68.3763 23.996C67.9683 23.996 67.6203 24.144 67.3323 24.44C67.0523 24.728 66.9123 25.128 66.9123 25.64C66.9123 26.152 67.0523 26.56 67.3323 26.864C67.6203 27.16 67.9683 27.308 68.3763 27.308C68.7843 27.308 69.1283 27.16 69.4083 26.864C69.6963 26.568 69.8403 26.164 69.8403 25.652ZM82.6708 22.232C83.5028 22.232 84.1628 22.484 84.6508 22.988C85.1468 23.492 85.3948 24.192 85.3948 25.088V29H83.3548V25.364C83.3548 24.932 83.2388 24.6 83.0068 24.368C82.7828 24.128 82.4708 24.008 82.0708 24.008C81.6708 24.008 81.3548 24.128 81.1228 24.368C80.8988 24.6 80.7868 24.932 80.7868 25.364V29H78.7468V25.364C78.7468 24.932 78.6308 24.6 78.3988 24.368C78.1748 24.128 77.8628 24.008 77.4628 24.008C77.0628 24.008 76.7468 24.128 76.5148 24.368C76.2908 24.6 76.1788 24.932 76.1788 25.364V29H74.1268V22.304H76.1788V23.144C76.3868 22.864 76.6588 22.644 76.9948 22.484C77.3308 22.316 77.7108 22.232 78.1348 22.232C78.6388 22.232 79.0868 22.34 79.4788 22.556C79.8788 22.772 80.1908 23.08 80.4148 23.48C80.6468 23.112 80.9628 22.812 81.3628 22.58C81.7628 22.348 82.1988 22.232 82.6708 22.232ZM90.6279 29.096C89.9719 29.096 89.3799 28.956 88.8519 28.676C88.3319 28.396 87.9199 27.996 87.6159 27.476C87.3199 26.956 87.1719 26.348 87.1719 25.652C87.1719 24.964 87.3239 24.36 87.6279 23.84C87.9319 23.312 88.3479 22.908 88.8759 22.628C89.4039 22.348 89.9959 22.208 90.6519 22.208C91.3079 22.208 91.8999 22.348 92.4279 22.628C92.9559 22.908 93.3719 23.312 93.6759 23.84C93.9799 24.36 94.1319 24.964 94.1319 25.652C94.1319 26.34 93.9759 26.948 93.6639 27.476C93.3599 27.996 92.9399 28.396 92.4039 28.676C91.8759 28.956 91.2839 29.096 90.6279 29.096ZM90.6279 27.32C91.0199 27.32 91.3519 27.176 91.6239 26.888C91.9039 26.6 92.0439 26.188 92.0439 25.652C92.0439 25.116 91.9079 24.704 91.6359 24.416C91.3719 24.128 91.0439 23.984 90.6519 23.984C90.2519 23.984 89.9199 24.128 89.6559 24.416C89.3919 24.696 89.2599 25.108 89.2599 25.652C89.2599 26.188 89.3879 26.6 89.6439 26.888C89.9079 27.176 90.2359 27.32 90.6279 27.32ZM102.583 22.304V29H100.531V28.088C100.323 28.384 100.039 28.624 99.6786 28.808C99.3266 28.984 98.9346 29.072 98.5026 29.072C97.9906 29.072 97.5386 28.96 97.1466 28.736C96.7546 28.504 96.4506 28.172 96.2346 27.74C96.0186 27.308 95.9106 26.8 95.9106 26.216V22.304H97.9506V25.94C97.9506 26.388 98.0666 26.736 98.2986 26.984C98.5306 27.232 98.8426 27.356 99.2346 27.356C99.6346 27.356 99.9506 27.232 100.183 26.984C100.415 26.736 100.531 26.388 100.531 25.94V22.304H102.583ZM108.887 22.232C109.671 22.232 110.295 22.488 110.759 23C111.231 23.504 111.467 24.2 111.467 25.088V29H109.427V25.364C109.427 24.916 109.311 24.568 109.079 24.32C108.847 24.072 108.535 23.948 108.143 23.948C107.751 23.948 107.439 24.072 107.207 24.32C106.975 24.568 106.859 24.916 106.859 25.364V29H104.807V22.304H106.859V23.192C107.067 22.896 107.347 22.664 107.699 22.496C108.051 22.32 108.447 22.232 108.887 22.232ZM117.374 27.26V29H116.33C115.586 29 115.006 28.82 114.59 28.46C114.174 28.092 113.966 27.496 113.966 26.672V24.008H113.15V22.304H113.966V20.672H116.018V22.304H117.362V24.008H116.018V26.696C116.018 26.896 116.066 27.04 116.162 27.128C116.258 27.216 116.418 27.26 116.642 27.26H117.374ZM125.32 31.508C124.544 30.764 123.94 29.804 123.508 28.628C123.076 27.452 122.86 26.184 122.86 24.824C122.86 23.448 123.084 22.164 123.532 20.972C123.98 19.772 124.616 18.796 125.44 18.044H127.456V18.236C126.616 19.068 125.968 20.068 125.512 21.236C125.056 22.396 124.828 23.592 124.828 24.824C124.828 26.048 125.048 27.228 125.488 28.364C125.928 29.5 126.548 30.484 127.348 31.316V31.508H125.32ZM128.621 25.652C128.621 24.956 128.761 24.348 129.041 23.828C129.329 23.308 129.725 22.908 130.229 22.628C130.741 22.348 131.325 22.208 131.981 22.208C132.821 22.208 133.521 22.428 134.081 22.868C134.649 23.308 135.021 23.928 135.197 24.728H133.013C132.829 24.216 132.473 23.96 131.945 23.96C131.569 23.96 131.269 24.108 131.045 24.404C130.821 24.692 130.709 25.108 130.709 25.652C130.709 26.196 130.821 26.616 131.045 26.912C131.269 27.2 131.569 27.344 131.945 27.344C132.473 27.344 132.829 27.088 133.013 26.576H135.197C135.021 27.36 134.649 27.976 134.081 28.424C133.513 28.872 132.813 29.096 131.981 29.096C131.325 29.096 130.741 28.956 130.229 28.676C129.725 28.396 129.329 27.996 129.041 27.476C128.761 26.956 128.621 26.348 128.621 25.652ZM139.097 23.42C139.337 23.052 139.637 22.764 139.997 22.556C140.357 22.34 140.757 22.232 141.197 22.232V24.404H140.633C140.121 24.404 139.737 24.516 139.481 24.74C139.225 24.956 139.097 25.34 139.097 25.892V29H137.045V22.304H139.097V23.42ZM149.24 25.544C149.24 25.736 149.228 25.936 149.204 26.144H144.56C144.592 26.56 144.724 26.88 144.956 27.104C145.196 27.32 145.488 27.428 145.832 27.428C146.344 27.428 146.7 27.212 146.9 26.78H149.084C148.972 27.22 148.768 27.616 148.472 27.968C148.184 28.32 147.82 28.596 147.38 28.796C146.94 28.996 146.448 29.096 145.904 29.096C145.248 29.096 144.664 28.956 144.152 28.676C143.64 28.396 143.24 27.996 142.952 27.476C142.664 26.956 142.52 26.348 142.52 25.652C142.52 24.956 142.66 24.348 142.94 23.828C143.228 23.308 143.628 22.908 144.14 22.628C144.652 22.348 145.24 22.208 145.904 22.208C146.552 22.208 147.128 22.344 147.632 22.616C148.136 22.888 148.528 23.276 148.808 23.78C149.096 24.284 149.24 24.872 149.24 25.544ZM147.14 25.004C147.14 24.652 147.02 24.372 146.78 24.164C146.54 23.956 146.24 23.852 145.88 23.852C145.536 23.852 145.244 23.952 145.004 24.152C144.772 24.352 144.628 24.636 144.572 25.004H147.14ZM150.664 25.64C150.664 24.952 150.792 24.348 151.048 23.828C151.312 23.308 151.668 22.908 152.116 22.628C152.564 22.348 153.064 22.208 153.616 22.208C154.088 22.208 154.5 22.304 154.852 22.496C155.212 22.688 155.488 22.94 155.68 23.252V22.304H157.732V29H155.68V28.052C155.48 28.364 155.2 28.616 154.84 28.808C154.488 29 154.076 29.096 153.604 29.096C153.06 29.096 152.564 28.956 152.116 28.676C151.668 28.388 151.312 27.984 151.048 27.464C150.792 26.936 150.664 26.328 150.664 25.64ZM155.68 25.652C155.68 25.14 155.536 24.736 155.248 24.44C154.968 24.144 154.624 23.996 154.216 23.996C153.808 23.996 153.46 24.144 153.172 24.44C152.892 24.728 152.752 25.128 152.752 25.64C152.752 26.152 152.892 26.56 153.172 26.864C153.46 27.16 153.808 27.308 154.216 27.308C154.624 27.308 154.968 27.16 155.248 26.864C155.536 26.568 155.68 26.164 155.68 25.652ZM163.699 27.26V29H162.655C161.911 29 161.331 28.82 160.915 28.46C160.499 28.092 160.291 27.496 160.291 26.672V24.008H159.475V22.304H160.291V20.672H162.343V22.304H163.687V24.008H162.343V26.696C162.343 26.896 162.391 27.04 162.487 27.128C162.583 27.216 162.743 27.26 162.967 27.26H163.699ZM171.904 25.544C171.904 25.736 171.892 25.936 171.868 26.144H167.224C167.256 26.56 167.388 26.88 167.62 27.104C167.86 27.32 168.152 27.428 168.496 27.428C169.008 27.428 169.364 27.212 169.564 26.78H171.748C171.636 27.22 171.432 27.616 171.136 27.968C170.848 28.32 170.484 28.596 170.044 28.796C169.604 28.996 169.112 29.096 168.568 29.096C167.912 29.096 167.328 28.956 166.816 28.676C166.304 28.396 165.904 27.996 165.616 27.476C165.328 26.956 165.184 26.348 165.184 25.652C165.184 24.956 165.324 24.348 165.604 23.828C165.892 23.308 166.292 22.908 166.804 22.628C167.316 22.348 167.904 22.208 168.568 22.208C169.216 22.208 169.792 22.344 170.296 22.616C170.8 22.888 171.192 23.276 171.472 23.78C171.76 24.284 171.904 24.872 171.904 25.544ZM169.804 25.004C169.804 24.652 169.684 24.372 169.444 24.164C169.204 23.956 168.904 23.852 168.544 23.852C168.2 23.852 167.908 23.952 167.668 24.152C167.436 24.352 167.292 24.636 167.236 25.004H169.804ZM184.937 20.576L181.949 29H179.381L176.393 20.576H178.577L180.665 26.936L182.765 20.576H184.937ZM191.429 29L188.597 25.28V29H186.545V20.576H188.597V24.272L191.405 20.576H193.817L190.553 24.704L193.937 29H191.429ZM195.11 31.508V31.316C195.91 30.484 196.53 29.5 196.97 28.364C197.41 27.228 197.63 26.048 197.63 24.824C197.63 23.592 197.402 22.396 196.946 21.236C196.49 20.068 195.842 19.068 195.002 18.236V18.044H197.018C197.842 18.796 198.478 19.772 198.926 20.972C199.374 22.164 199.598 23.448 199.598 24.824C199.598 26.184 199.382 27.452 198.95 28.628C198.518 29.804 197.914 30.764 197.138 31.508H195.11Z" fill="#FEFFFF"/>
<defs>
<filter id="filter0_ii_169_56" x="-4" y="-4" width="218" height="58" filterUnits="userSpaceOnUse" color-interpolation-filters="sRGB">
<feFlood flood-opacity="0" result="BackgroundImageFix"/>
<feBlend mode="normal" in="SourceGraphic" in2="BackgroundImageFix" result="shape"/>
<feColorMatrix in="SourceAlpha" type="matrix" values="0 0 0 0 0 0 0 0 0 0 0 0 0 0 0 0 0 0 127 0" result="hardAlpha"/>
<feOffset dx="4" dy="4"/>
<feGaussianBlur stdDeviation="2"/>
<feComposite in2="hardAlpha" operator="arithmetic" k2="-1" k3="1"/>
<feColorMatrix type="matrix" values="0 0 0 0 0.0235294 0 0 0 0 0.0470588 0 0 0 0 0.0941176 0 0 0 1 0"/>
<feBlend mode="normal" in2="shape" result="effect1_innerShadow_169_56"/>
<feColorMatrix in="SourceAlpha" type="matrix" values="0 0 0 0 0 0 0 0 0 0 0 0 0 0 0 0 0 0 127 0" result="hardAlpha"/>
<feOffset dx="-4" dy="-4"/>
<feGaussianBlur stdDeviation="2"/>
<feComposite in2="hardAlpha" operator="arithmetic" k2="-1" k3="1"/>
<feColorMatrix type="matrix" values="0 0 0 0 0.227451 0 0 0 0 0.266667 0 0 0 0 0.364706 0 0 0 0.5 0"/>
<feBlend mode="normal" in2="effect1_innerShadow_169_56" result="effect2_innerShadow_169_56"/>
</filter>
</defs>
</svg>
