<svg width="28" height="34" viewBox="0 0 28 34" fill="none" xmlns="http://www.w3.org/2000/svg">
<path d="M17.4999 33.8112C18.621 33.8112 19.5987 32.8253 19.5987 31.6948V26.7522H21C21.8409 26.7522 22.4013 26.1868 22.4013 25.3391V11.2222H5.59855V25.3392C5.59855 26.1871 6.15908 26.7523 6.99989 26.7523H8.40134V31.695C8.40134 32.8255 9.37876 33.8113 10.5001 33.8113C11.621 33.8113 12.5985 32.8255 12.5985 31.695V26.7523H15.4013V31.695C15.4012 32.8253 16.3789 33.8112 17.4999 33.8112Z" fill="#D3D3D3"/>
<path d="M25.9015 25.3392C27.0226 25.3392 28 24.3534 28 23.2228V13.3377C28 12.2132 27.0226 11.2222 25.9015 11.2222C24.7803 11.2222 23.8028 12.2132 23.8028 13.3377V23.2228C23.8028 24.3533 24.7802 25.3392 25.9015 25.3392Z" fill="#D3D3D3"/>
<path d="M2.09849 25.3392C3.21968 25.3392 4.1972 24.3534 4.1972 23.2228V13.3377C4.1972 12.2132 3.21979 11.2222 2.09849 11.2222C0.977415 11.2222 0 12.2132 0 13.3377V23.2228C0 24.3533 0.977415 25.3392 2.09849 25.3392Z" fill="#D3D3D3"/>
<path d="M20.7196 0.213239C20.4395 -0.0710796 20.0224 -0.0710796 19.7422 0.213239L17.8627 2.10226L17.776 2.18959C16.6615 1.62682 15.412 1.34577 14.0205 1.34307C14.0136 1.34307 14.0069 1.34284 14.0001 1.34284H13.9999C13.9928 1.34284 13.9864 1.34307 13.9793 1.34307C12.5879 1.34577 11.3384 1.62682 10.224 2.18959L8.25768 0.213239C7.9773 -0.0710796 7.56043 -0.0710796 7.28027 0.213239C6.99989 0.495978 6.99989 0.915573 7.28027 1.19809L9.09838 3.03183C8.51255 3.42626 7.98133 3.90893 7.51936 4.46098C6.41339 5.78295 5.70797 7.50341 5.61096 9.3675C5.61007 9.38691 5.60817 9.40609 5.60727 9.42549C5.60134 9.55242 5.59855 9.68003 5.59855 9.80808H22.4013C22.4013 9.68003 22.3983 9.55242 22.3926 9.42549C22.3917 9.40609 22.3898 9.38691 22.3887 9.3675C22.2919 7.50341 21.5863 5.78283 20.4803 4.46109C20.0186 3.90904 19.4871 3.42637 18.9013 3.03194L20.7196 1.1982C21 0.915573 21 0.495978 20.7196 0.213239ZM10.4974 7.34072C9.91759 7.34072 9.44757 6.86674 9.44757 6.28208C9.44757 5.69742 9.91759 5.22345 10.4974 5.22345C11.0772 5.22345 11.5472 5.69742 11.5472 6.28208C11.5472 6.86674 11.0772 7.34072 10.4974 7.34072ZM17.5025 7.34072C16.9227 7.34072 16.4527 6.86674 16.4527 6.28208C16.4527 5.69742 16.9227 5.22345 17.5025 5.22345C18.0823 5.22345 18.5523 5.69742 18.5523 6.28208C18.5523 6.86674 18.0823 7.34072 17.5025 7.34072Z" fill="#D3D3D3"/>
</svg>
