<svg width="27" height="31" viewBox="0 0 27 31" fill="none" xmlns="http://www.w3.org/2000/svg">
<path d="M22.5734 16.3824C22.5579 13.8414 23.7515 11.9263 26.1618 10.5143C24.8137 8.65135 22.7743 7.62675 20.0858 7.42928C17.5403 7.23554 14.7554 8.85999 13.7356 8.85999C12.6579 8.85999 10.1936 7.49634 8.25451 7.49634C4.25279 7.55596 0 10.5739 0 16.714C0 18.5285 0.343777 20.4026 1.03133 22.3325C1.95064 24.8736 5.26481 31.0994 8.72189 30.9988C10.5296 30.9578 11.8082 29.7618 14.1605 29.7618C16.4433 29.7618 17.6253 30.9988 19.6416 30.9988C23.1296 30.9504 26.127 25.2908 27 22.7424C22.3223 20.6149 22.5734 16.5128 22.5734 16.3824ZM18.5137 5.01867C20.4721 2.77573 20.2944 0.733986 20.2365 0C18.506 0.0968712 16.5051 1.13637 15.3657 2.41433C14.1103 3.78543 13.3725 5.48068 13.5309 7.39202C15.4004 7.52988 17.1077 6.60215 18.5137 5.01867Z" fill="#D3D3D3"/>
</svg>
