<svg width="70" height="71" viewBox="0 0 70 71" fill="none" xmlns="http://www.w3.org/2000/svg">
<g filter="url(#filter0_ddd_60_124)">
<path d="M20 19.6C20 16.2397 20 14.5595 20.654 13.2761C21.2292 12.1471 22.1471 11.2292 23.2761 10.654C24.5595 10 26.2397 10 29.6 10H40.4C43.7603 10 45.4405 10 46.7239 10.654C47.8529 11.2292 48.7708 12.1471 49.346 13.2761C50 14.5595 50 16.2397 50 19.6V31.4C50 34.7603 50 36.4405 49.346 37.7239C48.7708 38.8529 47.8529 39.7708 46.7239 40.346C45.4405 41 43.7603 41 40.4 41H20V19.6Z" fill="url(#paint0_linear_60_124)"/>
</g>
<path d="M35.607 32.7474V33.4036C34.0339 33.4036 32.5648 32.5325 31.4703 30.9512C30.4036 29.412 29.8166 27.3703 29.8166 25.2018C29.8166 23.0332 30.4036 20.9915 31.4703 19.4523C32.5642 17.8721 34.0334 17 35.607 17V17.6561C32.7896 17.6561 30.4978 21.0413 30.4978 25.2018C30.4978 29.3623 32.7896 32.7474 35.607 32.7474ZM30.709 19.1871H29.8455C29.7801 19.2732 29.7159 19.3616 29.6531 19.4523C28.587 20.9915 28 23.036 28 25.2018C28 27.3676 28.587 29.412 29.6537 30.9512C29.7165 31.042 29.7806 31.1304 29.8461 31.2164H30.7096C29.476 29.8385 28.6812 27.6558 28.6812 25.2018C28.6812 22.7478 29.476 20.5672 30.709 19.1871ZM40.2898 27.9357H38.4732C38.2076 28.7406 37.8283 29.4487 37.3662 30.0135H38.1996C38.5035 29.5675 38.7558 29.0908 38.9518 28.5919H40.0378C39.2879 30.3027 37.9913 31.4351 36.5153 31.4351C34.1991 31.4351 32.3144 28.6389 32.3144 25.2018C32.3144 21.7647 34.1991 18.9684 36.5153 18.9684C38.1712 18.9684 39.6058 20.3977 40.2898 22.4679H41C40.781 21.7279 40.4472 21.0241 40.01 20.3802C39.0869 19.0477 37.8459 18.3123 36.5153 18.3123C35.1846 18.3123 33.9437 19.0466 33.0206 20.3802C32.1259 21.6739 31.6332 23.3865 31.6332 25.2018C31.6332 27.0171 32.1259 28.7307 33.0206 30.0233C33.9431 31.358 35.1846 32.0913 36.5153 32.0913C37.8459 32.0913 39.0869 31.3569 40.01 30.0233C40.4472 29.3794 40.781 28.6756 41 27.9357H40.2898ZM38.4732 22.4679H39.1834C38.9653 21.7317 38.6337 21.0313 38.1996 20.3901H37.3668C37.7163 20.8252 38.0041 21.3033 38.2223 21.8117H37.1358C36.9383 21.3091 36.6838 20.829 36.3768 20.3802C36.3001 20.2709 36.2207 20.1642 36.1395 20.062H35.2556C35.8511 20.6695 36.3342 21.4979 36.6566 22.4679H38.4732ZM35.2556 30.3416H36.1395C36.2207 30.2393 36.3001 30.1343 36.3768 30.0233C36.814 29.3794 37.1478 28.6756 37.3668 27.9357H36.6566C36.3359 28.9068 35.8511 29.7352 35.2556 30.3416Z" fill="#FEFFFF"/>
<defs>
<filter id="filter0_ddd_60_124" x="0" y="0" width="70" height="71" filterUnits="userSpaceOnUse" color-interpolation-filters="sRGB">
<feFlood flood-opacity="0" result="BackgroundImageFix"/>
<feColorMatrix in="SourceAlpha" type="matrix" values="0 0 0 0 0 0 0 0 0 0 0 0 0 0 0 0 0 0 127 0" result="hardAlpha"/>
<feOffset/>
<feGaussianBlur stdDeviation="0.5"/>
<feColorMatrix type="matrix" values="0 0 0 0 0 0 0 0 0 0 0 0 0 0 0 0 0 0 0.04 0"/>
<feBlend mode="normal" in2="BackgroundImageFix" result="effect1_dropShadow_60_124"/>
<feColorMatrix in="SourceAlpha" type="matrix" values="0 0 0 0 0 0 0 0 0 0 0 0 0 0 0 0 0 0 127 0" result="hardAlpha"/>
<feOffset dy="2"/>
<feGaussianBlur stdDeviation="3"/>
<feColorMatrix type="matrix" values="0 0 0 0 0 0 0 0 0 0 0 0 0 0 0 0 0 0 0.04 0"/>
<feBlend mode="normal" in2="effect1_dropShadow_60_124" result="effect2_dropShadow_60_124"/>
<feColorMatrix in="SourceAlpha" type="matrix" values="0 0 0 0 0 0 0 0 0 0 0 0 0 0 0 0 0 0 127 0" result="hardAlpha"/>
<feOffset dy="10"/>
<feGaussianBlur stdDeviation="10"/>
<feColorMatrix type="matrix" values="0 0 0 0 0 0 0 0 0 0 0 0 0 0 0 0 0 0 0.04 0"/>
<feBlend mode="normal" in2="effect2_dropShadow_60_124" result="effect3_dropShadow_60_124"/>
<feBlend mode="normal" in="SourceGraphic" in2="effect3_dropShadow_60_124" result="shape"/>
</filter>
<linearGradient id="paint0_linear_60_124" x1="22" y1="8.5" x2="62" y2="53.5" gradientUnits="userSpaceOnUse">
<stop stop-color="#7070D4"/>
<stop offset="1" stop-color="#7878FF"/>
</linearGradient>
</defs>
</svg>
