<svg width="20" height="17" viewBox="0 0 20 17" fill="none" xmlns="http://www.w3.org/2000/svg">
<path d="M17.8687 1.13138C17.4726 0.735358 17.2746 0.537349 17.0463 0.46316C16.8455 0.397901 16.6291 0.397901 16.4283 0.463159C16.1999 0.537348 16.0019 0.735357 15.6059 1.13138L7.67799 9.05931C7.28197 9.45533 7.08396 9.65334 6.85563 9.72753C6.65479 9.79278 6.43844 9.79278 6.2376 9.72753C6.00927 9.65334 5.81126 9.45533 5.41525 9.05931L4.3729 8.01697C3.97689 7.62095 3.77888 7.42294 3.55055 7.34876C3.34971 7.2835 3.13336 7.2835 2.93252 7.34875C2.70419 7.42294 2.50618 7.62095 2.11016 8.01696L1.13137 8.99575C0.735356 9.39176 0.537347 9.58977 0.463158 9.8181C0.397899 10.0189 0.397899 10.2353 0.463156 10.4361C0.537344 10.6645 0.735352 10.8625 1.13137 11.2585L5.43641 15.5636C5.83243 15.9596 6.03044 16.1576 6.25877 16.2318C6.45961 16.297 6.67596 16.297 6.8768 16.2318C7.10513 16.1576 7.30314 15.9596 7.69916 15.5636L18.8686 4.3941C19.2646 3.99808 19.4627 3.80008 19.5368 3.57175C19.6021 3.37091 19.6021 3.15456 19.5368 2.95372C19.4627 2.72539 19.2647 2.52738 18.8686 2.13136L17.8687 1.13138Z" fill="#121E34"/>
</svg>
