<svg width="594" height="408" viewBox="0 0 594 408" fill="none" xmlns="http://www.w3.org/2000/svg">
<g filter="url(#filter0_i_122_784)">
<path d="M301.888 0C407.959 0.000448148 632.711 24.9308 632.711 24.9308L675.602 264.786C675.602 264.786 661.419 311.136 520.473 297.977C379.527 284.818 248.809 453.467 113.798 396.031C-21.214 338.596 -8.30724 234.039 14.1704 124.971C36.6481 15.9032 195.817 -0.000448129 301.888 0Z" fill="#20365E" fill-opacity="0.5"/>
</g>
<g filter="url(#filter1_i_122_784)">
<path d="M302.218 18.814C408.289 18.8144 633.037 43.7447 633.037 43.7447L687.029 283.6C687.029 283.6 578.782 261.114 489.978 261.114C401.175 261.114 236.816 418.441 101.804 361.006C-33.2074 303.57 33.9677 238.479 56.4454 129.411C78.923 20.3425 196.147 18.8135 302.218 18.814Z" fill="#262626"/>
</g>
<path opacity="0.07" d="M471.888 218.004C287.365 41.1702 420.835 -22.6866 471.943 80.9132C523.05 21.1972 656.52 199.777 471.888 218.004Z" fill="url(#paint0_linear_122_784)"/>
<path opacity="0.4" d="M454.993 233.929C270.47 57.8882 403.939 -5.68221 455.047 97.4529C506.155 38.0047 639.624 215.784 454.993 233.929Z" fill="url(#paint1_linear_122_784)"/>
<g filter="url(#filter2_dd_122_784)">
<path d="M148.776 135L151.038 116.8H155.198L152.936 135H148.776ZM139.338 131.438V127.538H157.018V131.438H139.338ZM142.042 135L144.304 116.8H148.464L146.202 135H142.042ZM140.222 124.262V120.362H157.902V124.262H140.222ZM165.448 124.548H173.456V129.176H165.448V124.548ZM165.864 135H159.728V116.8H174.522V121.428H165.864V135ZM185.876 135.416C184.402 135.416 183.033 135.182 181.768 134.714C180.52 134.246 179.436 133.587 178.518 132.738C177.599 131.871 176.88 130.857 176.36 129.696C175.857 128.535 175.606 127.269 175.606 125.9C175.606 124.513 175.857 123.248 176.36 122.104C176.88 120.943 177.599 119.937 178.518 119.088C179.436 118.221 180.52 117.554 181.768 117.086C183.033 116.618 184.402 116.384 185.876 116.384C187.366 116.384 188.736 116.618 189.984 117.086C191.232 117.554 192.315 118.221 193.234 119.088C194.152 119.937 194.863 120.943 195.366 122.104C195.886 123.248 196.146 124.513 196.146 125.9C196.146 127.269 195.886 128.535 195.366 129.696C194.863 130.857 194.152 131.871 193.234 132.738C192.315 133.587 191.232 134.246 189.984 134.714C188.736 135.182 187.366 135.416 185.876 135.416ZM185.876 130.45C186.448 130.45 186.976 130.346 187.462 130.138C187.964 129.93 188.398 129.635 188.762 129.254C189.143 128.855 189.438 128.379 189.646 127.824C189.854 127.252 189.958 126.611 189.958 125.9C189.958 125.189 189.854 124.557 189.646 124.002C189.438 123.43 189.143 122.953 188.762 122.572C188.398 122.173 187.964 121.87 187.462 121.662C186.976 121.454 186.448 121.35 185.876 121.35C185.304 121.35 184.766 121.454 184.264 121.662C183.778 121.87 183.345 122.173 182.964 122.572C182.6 122.953 182.314 123.43 182.106 124.002C181.898 124.557 181.794 125.189 181.794 125.9C181.794 126.611 181.898 127.252 182.106 127.824C182.314 128.379 182.6 128.855 182.964 129.254C183.345 129.635 183.778 129.93 184.264 130.138C184.766 130.346 185.304 130.45 185.876 130.45ZM198.373 135V116.8H204.509V130.242H212.725V135H198.373ZM214.42 135V116.8H220.556V130.242H228.772V135H214.42ZM239.754 135.416C238.281 135.416 236.912 135.182 235.646 134.714C234.398 134.246 233.315 133.587 232.396 132.738C231.478 131.871 230.758 130.857 230.238 129.696C229.736 128.535 229.484 127.269 229.484 125.9C229.484 124.513 229.736 123.248 230.238 122.104C230.758 120.943 231.478 119.937 232.396 119.088C233.315 118.221 234.398 117.554 235.646 117.086C236.912 116.618 238.281 116.384 239.754 116.384C241.245 116.384 242.614 116.618 243.862 117.086C245.11 117.554 246.194 118.221 247.112 119.088C248.031 119.937 248.742 120.943 249.244 122.104C249.764 123.248 250.024 124.513 250.024 125.9C250.024 127.269 249.764 128.535 249.244 129.696C248.742 130.857 248.031 131.871 247.112 132.738C246.194 133.587 245.11 134.246 243.862 134.714C242.614 135.182 241.245 135.416 239.754 135.416ZM239.754 130.45C240.326 130.45 240.855 130.346 241.34 130.138C241.843 129.93 242.276 129.635 242.64 129.254C243.022 128.855 243.316 128.379 243.524 127.824C243.732 127.252 243.836 126.611 243.836 125.9C243.836 125.189 243.732 124.557 243.524 124.002C243.316 123.43 243.022 122.953 242.64 122.572C242.276 122.173 241.843 121.87 241.34 121.662C240.855 121.454 240.326 121.35 239.754 121.35C239.182 121.35 238.645 121.454 238.142 121.662C237.657 121.87 237.224 122.173 236.842 122.572C236.478 122.953 236.192 123.43 235.984 124.002C235.776 124.557 235.672 125.189 235.672 125.9C235.672 126.611 235.776 127.252 235.984 127.824C236.192 128.379 236.478 128.855 236.842 129.254C237.224 129.635 237.657 129.93 238.142 130.138C238.645 130.346 239.182 130.45 239.754 130.45ZM256.219 135L250.395 116.8H256.713L261.419 132.166H258.247L263.239 116.8H268.881L273.535 132.166H270.493L275.407 116.8H281.231L275.407 135H268.829L265.033 122.416H266.801L262.797 135H256.219ZM138.506 167L146.462 148.8H152.494L160.45 167H154.106L148.23 151.712H150.622L144.746 167H138.506ZM143.238 163.828L144.798 159.408H153.17L154.73 163.828H143.238ZM161.429 167V148.8H166.473L173.753 160.682H171.101L178.173 148.8H183.217L183.269 167H177.679L177.627 157.224H178.511L173.675 165.362H170.971L165.927 157.224H167.019V167H161.429ZM186.236 167V148.8H195.96C198.473 148.8 200.328 149.251 201.524 150.152C202.72 151.036 203.318 152.171 203.318 153.558C203.318 154.477 203.058 155.3 202.538 156.028C202.035 156.739 201.299 157.302 200.328 157.718C199.357 158.134 198.161 158.342 196.74 158.342L197.26 156.938C198.681 156.938 199.903 157.137 200.926 157.536C201.966 157.935 202.763 158.515 203.318 159.278C203.89 160.023 204.176 160.925 204.176 161.982C204.176 163.559 203.517 164.79 202.2 165.674C200.9 166.558 198.993 167 196.48 167H186.236ZM192.268 162.71H195.96C196.636 162.71 197.139 162.589 197.468 162.346C197.815 162.103 197.988 161.748 197.988 161.28C197.988 160.812 197.815 160.457 197.468 160.214C197.139 159.971 196.636 159.85 195.96 159.85H191.852V155.794H195.128C195.821 155.794 196.324 155.681 196.636 155.456C196.965 155.213 197.13 154.875 197.13 154.442C197.13 153.991 196.965 153.653 196.636 153.428C196.324 153.203 195.821 153.09 195.128 153.09H192.268V162.71ZM211.961 155.56H220.073V159.98H211.961V155.56ZM212.377 162.372H221.477V167H206.345V148.8H221.139V153.428H212.377V162.372ZM223.839 167V148.8H232.601C234.3 148.8 235.765 149.077 236.995 149.632C238.243 150.187 239.205 150.984 239.881 152.024C240.557 153.047 240.895 154.26 240.895 155.664C240.895 157.068 240.557 158.281 239.881 159.304C239.205 160.309 238.243 161.081 236.995 161.618C235.765 162.155 234.3 162.424 232.601 162.424H227.245L229.975 159.902V167H223.839ZM234.733 167L230.261 160.37H236.761L241.285 167H234.733ZM229.975 160.578L227.245 157.796H232.211C233.061 157.796 233.685 157.605 234.083 157.224C234.499 156.843 234.707 156.323 234.707 155.664C234.707 155.005 234.499 154.485 234.083 154.104C233.685 153.723 233.061 153.532 232.211 153.532H227.245L229.975 150.75V160.578ZM251.007 167V148.8H259.977C262.005 148.8 263.791 149.173 265.333 149.918C266.876 150.646 268.081 151.686 268.947 153.038C269.814 154.39 270.247 156.002 270.247 157.874C270.247 159.763 269.814 161.393 268.947 162.762C268.081 164.114 266.876 165.163 265.333 165.908C263.791 166.636 262.005 167 259.977 167H251.007ZM257.143 162.216H259.717C260.584 162.216 261.338 162.051 261.979 161.722C262.638 161.393 263.149 160.907 263.513 160.266C263.877 159.607 264.059 158.81 264.059 157.874C264.059 156.955 263.877 156.175 263.513 155.534C263.149 154.893 262.638 154.407 261.979 154.078C261.338 153.749 260.584 153.584 259.717 153.584H257.143V162.216ZM270.258 167L278.214 148.8H284.246L292.202 167H285.858L279.982 151.712H282.374L276.498 167H270.258ZM274.99 163.828L276.55 159.408H284.922L286.482 163.828H274.99ZM302.469 167.416C300.996 167.416 299.627 167.182 298.361 166.714C297.113 166.246 296.03 165.587 295.111 164.738C294.193 163.871 293.473 162.857 292.953 161.696C292.451 160.535 292.199 159.269 292.199 157.9C292.199 156.513 292.451 155.248 292.953 154.104C293.473 152.943 294.193 151.937 295.111 151.088C296.03 150.221 297.113 149.554 298.361 149.086C299.627 148.618 300.996 148.384 302.469 148.384C303.96 148.384 305.329 148.618 306.577 149.086C307.825 149.554 308.909 150.221 309.827 151.088C310.746 151.937 311.457 152.943 311.959 154.104C312.479 155.248 312.739 156.513 312.739 157.9C312.739 159.269 312.479 160.535 311.959 161.696C311.457 162.857 310.746 163.871 309.827 164.738C308.909 165.587 307.825 166.246 306.577 166.714C305.329 167.182 303.96 167.416 302.469 167.416ZM302.469 162.45C303.041 162.45 303.57 162.346 304.055 162.138C304.558 161.93 304.991 161.635 305.355 161.254C305.737 160.855 306.031 160.379 306.239 159.824C306.447 159.252 306.551 158.611 306.551 157.9C306.551 157.189 306.447 156.557 306.239 156.002C306.031 155.43 305.737 154.953 305.355 154.572C304.991 154.173 304.558 153.87 304.055 153.662C303.57 153.454 303.041 153.35 302.469 153.35C301.897 153.35 301.36 153.454 300.857 153.662C300.372 153.87 299.939 154.173 299.557 154.572C299.193 154.953 298.907 155.43 298.699 156.002C298.491 156.557 298.387 157.189 298.387 157.9C298.387 158.611 298.491 159.252 298.699 159.824C298.907 160.379 299.193 160.855 299.557 161.254C299.939 161.635 300.372 161.93 300.857 162.138C301.36 162.346 301.897 162.45 302.469 162.45Z" fill="#F0F1F5"/>
<path d="M148.776 135L151.038 116.8H155.198L152.936 135H148.776ZM139.338 131.438V127.538H157.018V131.438H139.338ZM142.042 135L144.304 116.8H148.464L146.202 135H142.042ZM140.222 124.262V120.362H157.902V124.262H140.222ZM165.448 124.548H173.456V129.176H165.448V124.548ZM165.864 135H159.728V116.8H174.522V121.428H165.864V135ZM185.876 135.416C184.402 135.416 183.033 135.182 181.768 134.714C180.52 134.246 179.436 133.587 178.518 132.738C177.599 131.871 176.88 130.857 176.36 129.696C175.857 128.535 175.606 127.269 175.606 125.9C175.606 124.513 175.857 123.248 176.36 122.104C176.88 120.943 177.599 119.937 178.518 119.088C179.436 118.221 180.52 117.554 181.768 117.086C183.033 116.618 184.402 116.384 185.876 116.384C187.366 116.384 188.736 116.618 189.984 117.086C191.232 117.554 192.315 118.221 193.234 119.088C194.152 119.937 194.863 120.943 195.366 122.104C195.886 123.248 196.146 124.513 196.146 125.9C196.146 127.269 195.886 128.535 195.366 129.696C194.863 130.857 194.152 131.871 193.234 132.738C192.315 133.587 191.232 134.246 189.984 134.714C188.736 135.182 187.366 135.416 185.876 135.416ZM185.876 130.45C186.448 130.45 186.976 130.346 187.462 130.138C187.964 129.93 188.398 129.635 188.762 129.254C189.143 128.855 189.438 128.379 189.646 127.824C189.854 127.252 189.958 126.611 189.958 125.9C189.958 125.189 189.854 124.557 189.646 124.002C189.438 123.43 189.143 122.953 188.762 122.572C188.398 122.173 187.964 121.87 187.462 121.662C186.976 121.454 186.448 121.35 185.876 121.35C185.304 121.35 184.766 121.454 184.264 121.662C183.778 121.87 183.345 122.173 182.964 122.572C182.6 122.953 182.314 123.43 182.106 124.002C181.898 124.557 181.794 125.189 181.794 125.9C181.794 126.611 181.898 127.252 182.106 127.824C182.314 128.379 182.6 128.855 182.964 129.254C183.345 129.635 183.778 129.93 184.264 130.138C184.766 130.346 185.304 130.45 185.876 130.45ZM198.373 135V116.8H204.509V130.242H212.725V135H198.373ZM214.42 135V116.8H220.556V130.242H228.772V135H214.42ZM239.754 135.416C238.281 135.416 236.912 135.182 235.646 134.714C234.398 134.246 233.315 133.587 232.396 132.738C231.478 131.871 230.758 130.857 230.238 129.696C229.736 128.535 229.484 127.269 229.484 125.9C229.484 124.513 229.736 123.248 230.238 122.104C230.758 120.943 231.478 119.937 232.396 119.088C233.315 118.221 234.398 117.554 235.646 117.086C236.912 116.618 238.281 116.384 239.754 116.384C241.245 116.384 242.614 116.618 243.862 117.086C245.11 117.554 246.194 118.221 247.112 119.088C248.031 119.937 248.742 120.943 249.244 122.104C249.764 123.248 250.024 124.513 250.024 125.9C250.024 127.269 249.764 128.535 249.244 129.696C248.742 130.857 248.031 131.871 247.112 132.738C246.194 133.587 245.11 134.246 243.862 134.714C242.614 135.182 241.245 135.416 239.754 135.416ZM239.754 130.45C240.326 130.45 240.855 130.346 241.34 130.138C241.843 129.93 242.276 129.635 242.64 129.254C243.022 128.855 243.316 128.379 243.524 127.824C243.732 127.252 243.836 126.611 243.836 125.9C243.836 125.189 243.732 124.557 243.524 124.002C243.316 123.43 243.022 122.953 242.64 122.572C242.276 122.173 241.843 121.87 241.34 121.662C240.855 121.454 240.326 121.35 239.754 121.35C239.182 121.35 238.645 121.454 238.142 121.662C237.657 121.87 237.224 122.173 236.842 122.572C236.478 122.953 236.192 123.43 235.984 124.002C235.776 124.557 235.672 125.189 235.672 125.9C235.672 126.611 235.776 127.252 235.984 127.824C236.192 128.379 236.478 128.855 236.842 129.254C237.224 129.635 237.657 129.93 238.142 130.138C238.645 130.346 239.182 130.45 239.754 130.45ZM256.219 135L250.395 116.8H256.713L261.419 132.166H258.247L263.239 116.8H268.881L273.535 132.166H270.493L275.407 116.8H281.231L275.407 135H268.829L265.033 122.416H266.801L262.797 135H256.219ZM138.506 167L146.462 148.8H152.494L160.45 167H154.106L148.23 151.712H150.622L144.746 167H138.506ZM143.238 163.828L144.798 159.408H153.17L154.73 163.828H143.238ZM161.429 167V148.8H166.473L173.753 160.682H171.101L178.173 148.8H183.217L183.269 167H177.679L177.627 157.224H178.511L173.675 165.362H170.971L165.927 157.224H167.019V167H161.429ZM186.236 167V148.8H195.96C198.473 148.8 200.328 149.251 201.524 150.152C202.72 151.036 203.318 152.171 203.318 153.558C203.318 154.477 203.058 155.3 202.538 156.028C202.035 156.739 201.299 157.302 200.328 157.718C199.357 158.134 198.161 158.342 196.74 158.342L197.26 156.938C198.681 156.938 199.903 157.137 200.926 157.536C201.966 157.935 202.763 158.515 203.318 159.278C203.89 160.023 204.176 160.925 204.176 161.982C204.176 163.559 203.517 164.79 202.2 165.674C200.9 166.558 198.993 167 196.48 167H186.236ZM192.268 162.71H195.96C196.636 162.71 197.139 162.589 197.468 162.346C197.815 162.103 197.988 161.748 197.988 161.28C197.988 160.812 197.815 160.457 197.468 160.214C197.139 159.971 196.636 159.85 195.96 159.85H191.852V155.794H195.128C195.821 155.794 196.324 155.681 196.636 155.456C196.965 155.213 197.13 154.875 197.13 154.442C197.13 153.991 196.965 153.653 196.636 153.428C196.324 153.203 195.821 153.09 195.128 153.09H192.268V162.71ZM211.961 155.56H220.073V159.98H211.961V155.56ZM212.377 162.372H221.477V167H206.345V148.8H221.139V153.428H212.377V162.372ZM223.839 167V148.8H232.601C234.3 148.8 235.765 149.077 236.995 149.632C238.243 150.187 239.205 150.984 239.881 152.024C240.557 153.047 240.895 154.26 240.895 155.664C240.895 157.068 240.557 158.281 239.881 159.304C239.205 160.309 238.243 161.081 236.995 161.618C235.765 162.155 234.3 162.424 232.601 162.424H227.245L229.975 159.902V167H223.839ZM234.733 167L230.261 160.37H236.761L241.285 167H234.733ZM229.975 160.578L227.245 157.796H232.211C233.061 157.796 233.685 157.605 234.083 157.224C234.499 156.843 234.707 156.323 234.707 155.664C234.707 155.005 234.499 154.485 234.083 154.104C233.685 153.723 233.061 153.532 232.211 153.532H227.245L229.975 150.75V160.578ZM251.007 167V148.8H259.977C262.005 148.8 263.791 149.173 265.333 149.918C266.876 150.646 268.081 151.686 268.947 153.038C269.814 154.39 270.247 156.002 270.247 157.874C270.247 159.763 269.814 161.393 268.947 162.762C268.081 164.114 266.876 165.163 265.333 165.908C263.791 166.636 262.005 167 259.977 167H251.007ZM257.143 162.216H259.717C260.584 162.216 261.338 162.051 261.979 161.722C262.638 161.393 263.149 160.907 263.513 160.266C263.877 159.607 264.059 158.81 264.059 157.874C264.059 156.955 263.877 156.175 263.513 155.534C263.149 154.893 262.638 154.407 261.979 154.078C261.338 153.749 260.584 153.584 259.717 153.584H257.143V162.216ZM270.258 167L278.214 148.8H284.246L292.202 167H285.858L279.982 151.712H282.374L276.498 167H270.258ZM274.99 163.828L276.55 159.408H284.922L286.482 163.828H274.99ZM302.469 167.416C300.996 167.416 299.627 167.182 298.361 166.714C297.113 166.246 296.03 165.587 295.111 164.738C294.193 163.871 293.473 162.857 292.953 161.696C292.451 160.535 292.199 159.269 292.199 157.9C292.199 156.513 292.451 155.248 292.953 154.104C293.473 152.943 294.193 151.937 295.111 151.088C296.03 150.221 297.113 149.554 298.361 149.086C299.627 148.618 300.996 148.384 302.469 148.384C303.96 148.384 305.329 148.618 306.577 149.086C307.825 149.554 308.909 150.221 309.827 151.088C310.746 151.937 311.457 152.943 311.959 154.104C312.479 155.248 312.739 156.513 312.739 157.9C312.739 159.269 312.479 160.535 311.959 161.696C311.457 162.857 310.746 163.871 309.827 164.738C308.909 165.587 307.825 166.246 306.577 166.714C305.329 167.182 303.96 167.416 302.469 167.416ZM302.469 162.45C303.041 162.45 303.57 162.346 304.055 162.138C304.558 161.93 304.991 161.635 305.355 161.254C305.737 160.855 306.031 160.379 306.239 159.824C306.447 159.252 306.551 158.611 306.551 157.9C306.551 157.189 306.447 156.557 306.239 156.002C306.031 155.43 305.737 154.953 305.355 154.572C304.991 154.173 304.558 153.87 304.055 153.662C303.57 153.454 303.041 153.35 302.469 153.35C301.897 153.35 301.36 153.454 300.857 153.662C300.372 153.87 299.939 154.173 299.557 154.572C299.193 154.953 298.907 155.43 298.699 156.002C298.491 156.557 298.387 157.189 298.387 157.9C298.387 158.611 298.491 159.252 298.699 159.824C298.907 160.379 299.193 160.855 299.557 161.254C299.939 161.635 300.372 161.93 300.857 162.138C301.36 162.346 301.897 162.45 302.469 162.45Z" fill="url(#paint2_linear_122_784)" fill-opacity="0.6" style="mix-blend-mode:soft-light"/>
</g>
<path fill-rule="evenodd" clip-rule="evenodd" d="M180.254 234.062C180.254 243.726 172.418 251.562 162.754 251.562C153.09 251.562 145.254 243.726 145.254 234.062C145.254 224.397 153.09 216.562 162.754 216.562C172.418 216.562 180.254 224.397 180.254 234.062ZM163.381 229.481C161.679 230.188 158.277 231.654 153.176 233.876C152.347 234.206 151.913 234.528 151.873 234.843C151.806 235.377 152.474 235.587 153.381 235.871C153.505 235.911 153.633 235.95 153.765 235.994C154.659 236.284 155.86 236.624 156.485 236.637C157.052 236.649 157.685 236.415 158.383 235.937C163.149 232.718 165.609 231.092 165.764 231.057C165.873 231.033 166.025 231 166.127 231.092C166.229 231.183 166.219 231.355 166.209 231.402C166.142 231.683 163.525 234.117 162.169 235.377C161.746 235.769 161.447 236.048 161.386 236.112C161.249 236.253 161.109 236.389 160.975 236.519C160.143 237.318 159.522 237.919 161.01 238.899C161.724 239.37 162.296 239.759 162.866 240.147C163.489 240.572 164.11 240.994 164.915 241.522C165.119 241.657 165.315 241.795 165.506 241.931C166.231 242.448 166.882 242.912 167.687 242.839C168.154 242.795 168.638 242.357 168.883 241.045C169.462 237.945 170.603 231.231 170.867 228.463C170.883 228.233 170.873 228.002 170.837 227.775C170.816 227.591 170.727 227.422 170.587 227.301C170.378 227.13 170.054 227.094 169.908 227.097C169.251 227.108 168.242 227.46 163.381 229.481Z" fill="white" fill-opacity="0.54"/>
<path d="M227.754 216.562C218.09 216.562 210.254 224.397 210.254 234.062C210.254 243.726 218.09 251.562 227.754 251.562C237.418 251.562 245.254 243.726 245.254 234.062C245.254 224.397 237.418 216.562 227.754 216.562ZM236.164 229.753C236.176 229.937 236.176 230.128 236.176 230.315C236.176 236.05 231.809 242.655 223.828 242.655C221.367 242.655 219.086 241.94 217.164 240.71C217.516 240.749 217.852 240.765 218.211 240.765C220.242 240.765 222.109 240.077 223.598 238.913C221.691 238.874 220.09 237.624 219.543 235.905C220.211 236.003 220.812 236.003 221.5 235.827C220.518 235.628 219.636 235.095 219.003 234.318C218.37 233.542 218.025 232.571 218.027 231.569V231.515C218.602 231.839 219.277 232.038 219.984 232.065C219.39 231.669 218.903 231.133 218.565 230.503C218.228 229.873 218.051 229.17 218.051 228.456C218.051 227.647 218.262 226.909 218.641 226.269C219.73 227.61 221.09 228.707 222.631 229.488C224.172 230.269 225.86 230.718 227.586 230.804C226.973 227.854 229.176 225.468 231.824 225.468C233.074 225.468 234.199 225.991 234.992 226.835C235.973 226.651 236.91 226.284 237.746 225.792C237.422 226.796 236.742 227.644 235.84 228.179C236.715 228.085 237.559 227.843 238.34 227.503C237.75 228.37 237.012 229.14 236.164 229.753Z" fill="white" fill-opacity="0.54"/>
<path fill-rule="evenodd" clip-rule="evenodd" d="M292.754 217.261C283.085 217.261 275.254 224.97 275.254 234.486C275.254 242.108 280.263 248.546 287.22 250.829C288.095 250.979 288.423 250.463 288.423 250.01C288.423 249.601 288.401 248.245 288.401 246.802C284.004 247.599 282.866 245.747 282.516 244.778C282.32 244.283 281.466 242.754 280.723 242.345C280.11 242.022 279.235 241.226 280.701 241.204C282.079 241.183 283.063 242.453 283.391 242.97C284.966 245.575 287.482 244.843 288.488 244.391C288.641 243.271 289.101 242.518 289.604 242.087C285.71 241.656 281.641 240.171 281.641 233.582C281.641 231.709 282.32 230.159 283.435 228.953C283.26 228.522 282.648 226.757 283.61 224.388C283.61 224.388 285.076 223.936 288.423 226.154C289.823 225.766 291.31 225.573 292.798 225.573C294.285 225.573 295.773 225.766 297.173 226.154C300.52 223.915 301.985 224.388 301.985 224.388C302.948 226.757 302.335 228.522 302.16 228.953C303.276 230.159 303.954 231.687 303.954 233.582C303.954 240.192 299.863 241.656 295.97 242.087C296.604 242.625 297.151 243.659 297.151 245.274C297.151 247.577 297.129 249.429 297.129 250.01C297.129 250.463 297.457 251.001 298.332 250.829C301.806 249.674 304.825 247.476 306.963 244.545C309.102 241.613 310.253 238.095 310.254 234.486C310.254 224.97 302.423 217.261 292.754 217.261Z" fill="white" fill-opacity="0.54"/>
<defs>
<filter id="filter0_i_122_784" x="0" y="-10" width="675.603" height="418" filterUnits="userSpaceOnUse" color-interpolation-filters="sRGB">
<feFlood flood-opacity="0" result="BackgroundImageFix"/>
<feBlend mode="normal" in="SourceGraphic" in2="BackgroundImageFix" result="shape"/>
<feColorMatrix in="SourceAlpha" type="matrix" values="0 0 0 0 0 0 0 0 0 0 0 0 0 0 0 0 0 0 127 0" result="hardAlpha"/>
<feOffset dy="-10"/>
<feGaussianBlur stdDeviation="7.5"/>
<feComposite in2="hardAlpha" operator="arithmetic" k2="-1" k3="1"/>
<feColorMatrix type="matrix" values="0 0 0 0 0.0823529 0 0 0 0 0.0823529 0 0 0 0 0.0823529 0 0 0 0.25 0"/>
<feBlend mode="normal" in2="shape" result="effect1_innerShadow_122_784"/>
</filter>
<filter id="filter1_i_122_784" x="19.7925" y="8.81396" width="667.237" height="364.806" filterUnits="userSpaceOnUse" color-interpolation-filters="sRGB">
<feFlood flood-opacity="0" result="BackgroundImageFix"/>
<feBlend mode="normal" in="SourceGraphic" in2="BackgroundImageFix" result="shape"/>
<feColorMatrix in="SourceAlpha" type="matrix" values="0 0 0 0 0 0 0 0 0 0 0 0 0 0 0 0 0 0 127 0" result="hardAlpha"/>
<feOffset dy="-10"/>
<feGaussianBlur stdDeviation="7.5"/>
<feComposite in2="hardAlpha" operator="arithmetic" k2="-1" k3="1"/>
<feColorMatrix type="matrix" values="0 0 0 0 0.0823529 0 0 0 0 0.0823529 0 0 0 0 0.0823529 0 0 0 0.35 0"/>
<feBlend mode="normal" in2="shape" result="effect1_innerShadow_122_784"/>
</filter>
<filter id="filter2_dd_122_784" x="138.506" y="106.384" width="174.233" height="71.032" filterUnits="userSpaceOnUse" color-interpolation-filters="sRGB">
<feFlood flood-opacity="0" result="BackgroundImageFix"/>
<feColorMatrix in="SourceAlpha" type="matrix" values="0 0 0 0 0 0 0 0 0 0 0 0 0 0 0 0 0 0 127 0" result="hardAlpha"/>
<feOffset dy="10"/>
<feColorMatrix type="matrix" values="0 0 0 0 0.945098 0 0 0 0 0.737255 0 0 0 0 0.278431 0 0 0 0.15 0"/>
<feBlend mode="normal" in2="BackgroundImageFix" result="effect1_dropShadow_122_784"/>
<feColorMatrix in="SourceAlpha" type="matrix" values="0 0 0 0 0 0 0 0 0 0 0 0 0 0 0 0 0 0 127 0" result="hardAlpha"/>
<feOffset dy="-10"/>
<feColorMatrix type="matrix" values="0 0 0 0 0.376471 0 0 0 0 0.74902 0 0 0 0 0.811765 0 0 0 0.15 0"/>
<feBlend mode="normal" in2="effect1_dropShadow_122_784" result="effect2_dropShadow_122_784"/>
<feBlend mode="normal" in="SourceGraphic" in2="effect2_dropShadow_122_784" result="shape"/>
</filter>
<linearGradient id="paint0_linear_122_784" x1="562.025" y1="77.2737" x2="429.777" y2="176.744" gradientUnits="userSpaceOnUse">
<stop stop-color="white"/>
<stop offset="1" stop-color="white" stop-opacity="0"/>
</linearGradient>
<linearGradient id="paint1_linear_122_784" x1="545.129" y1="93.8301" x2="413.312" y2="193.423" gradientUnits="userSpaceOnUse">
<stop stop-color="white"/>
<stop offset="1" stop-color="white" stop-opacity="0"/>
</linearGradient>
<linearGradient id="paint2_linear_122_784" x1="316" y1="160" x2="289.839" y2="67.3901" gradientUnits="userSpaceOnUse">
<stop/>
<stop offset="1" stop-color="white" stop-opacity="0"/>
</linearGradient>
</defs>
</svg>
