<svg width="1440" height="426" viewBox="0 0 1440 426" fill="none" xmlns="http://www.w3.org/2000/svg">
<g filter="url(#filter0_i_122_786)">
<path fill-rule="evenodd" clip-rule="evenodd" d="M-0.458336 145.638L-72.4413 164.76H-80V166.768V249.366V387.408H1829V249.366V164.76V124.508L1749.46 132.191C1669.92 138.915 1510.83 152.361 1351.75 124.508C1277.29 111.92 1202.82 90.0727 1128.36 68.2255C1043.74 43.3991 959.119 18.5728 874.5 7.3335C715.417 -13.7963 556.333 14.0566 397.25 48.6327C238.167 83.2087 79.0833 124.508 -0.458336 145.638Z" fill="#20365E" fill-opacity="0.5"/>
</g>
<g filter="url(#filter1_i_122_786)">
<path fill-rule="evenodd" clip-rule="evenodd" d="M60 184.23L5.70158 203.352H0V205.36V287.958V426H1440V287.958V203.352V163.1L1380 170.784C1320 177.507 1200 190.953 1080 163.1C1023.83 150.512 967.66 128.665 911.489 106.818C847.66 81.9914 783.83 57.165 720 45.9258C600 24.796 480 52.6489 360 87.225C240 121.801 120 163.1 60 184.23Z" fill="#262626"/>
</g>
<path fill-rule="evenodd" clip-rule="evenodd" d="M185 301.942C185 308.846 179.403 314.442 172.5 314.442C165.597 314.442 160 308.846 160 301.942C160 295.039 165.597 289.442 172.5 289.442C179.403 289.442 185 295.039 185 301.942ZM172.948 298.671C171.732 299.176 169.302 300.223 165.658 301.81C165.067 302.046 164.756 302.276 164.728 302.501C164.68 302.882 165.157 303.032 165.805 303.235C165.894 303.263 165.985 303.291 166.079 303.323C166.718 303.53 167.576 303.773 168.022 303.782C168.427 303.79 168.879 303.624 169.378 303.282C172.782 300.983 174.54 299.822 174.65 299.797C174.728 299.779 174.836 299.756 174.909 299.822C174.982 299.886 174.975 300.009 174.968 300.042C174.92 300.243 173.051 301.982 172.082 302.882C171.78 303.162 171.567 303.361 171.523 303.407C171.425 303.508 171.325 303.605 171.229 303.698C170.635 304.268 170.192 304.698 171.254 305.398C171.765 305.734 172.173 306.012 172.58 306.289C173.025 306.592 173.469 306.894 174.044 307.272C174.19 307.367 174.329 307.466 174.466 307.563C174.983 307.933 175.449 308.264 176.024 308.212C176.357 308.181 176.703 307.867 176.878 306.931C177.292 304.716 178.106 299.921 178.295 297.943C178.306 297.779 178.299 297.614 178.274 297.452C178.259 297.32 178.195 297.2 178.095 297.113C177.946 296.991 177.715 296.965 177.61 296.967C177.141 296.976 176.42 297.227 172.948 298.671Z" fill="white" fill-opacity="0.54"/>
<path d="M227.5 289.442C220.597 289.442 215 295.039 215 301.942C215 308.845 220.597 314.442 227.5 314.442C234.403 314.442 240 308.845 240 301.942C240 295.039 234.403 289.442 227.5 289.442ZM233.507 298.865C233.516 298.996 233.516 299.133 233.516 299.267C233.516 303.363 230.396 308.081 224.696 308.081C222.938 308.081 221.309 307.57 219.936 306.691C220.187 306.719 220.427 306.73 220.684 306.73C222.134 306.73 223.468 306.239 224.531 305.408C223.17 305.38 222.026 304.487 221.635 303.259C222.112 303.329 222.542 303.329 223.033 303.204C222.332 303.061 221.702 302.68 221.249 302.126C220.797 301.572 220.551 300.878 220.552 300.162V300.123C220.963 300.355 221.445 300.497 221.95 300.517C221.526 300.234 221.178 299.85 220.937 299.401C220.696 298.951 220.57 298.449 220.569 297.938C220.569 297.361 220.72 296.834 220.991 296.376C221.769 297.334 222.74 298.117 223.841 298.676C224.941 299.234 226.147 299.554 227.38 299.615C226.942 297.509 228.516 295.804 230.407 295.804C231.3 295.804 232.104 296.178 232.67 296.781C233.371 296.649 234.04 296.387 234.637 296.036C234.406 296.753 233.92 297.358 233.276 297.74C233.901 297.673 234.503 297.5 235.061 297.258C234.64 297.877 234.113 298.427 233.507 298.865Z" fill="white" fill-opacity="0.54"/>
<path fill-rule="evenodd" clip-rule="evenodd" d="M282.5 289.442C275.594 289.442 270 294.948 270 301.746C270 307.19 273.578 311.789 278.547 313.419C279.172 313.527 279.406 313.157 279.406 312.834C279.406 312.542 279.391 311.573 279.391 310.543C276.25 311.112 275.438 309.789 275.188 309.097C275.047 308.744 274.438 307.652 273.906 307.359C273.469 307.129 272.844 306.56 273.891 306.544C274.875 306.529 275.578 307.436 275.812 307.805C276.937 309.666 278.734 309.143 279.453 308.82C279.562 308.021 279.891 307.482 280.25 307.175C277.469 306.867 274.562 305.806 274.562 301.1C274.562 299.762 275.047 298.655 275.844 297.793C275.719 297.486 275.281 296.225 275.969 294.533C275.969 294.533 277.016 294.21 279.406 295.794C280.406 295.517 281.469 295.379 282.531 295.379C283.594 295.379 284.656 295.517 285.656 295.794C288.047 294.195 289.094 294.533 289.094 294.533C289.781 296.225 289.344 297.486 289.219 297.793C290.016 298.655 290.5 299.747 290.5 301.1C290.5 305.821 287.578 306.867 284.797 307.175C285.25 307.559 285.641 308.298 285.641 309.451C285.641 311.097 285.625 312.419 285.625 312.834C285.625 313.157 285.859 313.542 286.484 313.419C288.966 312.594 291.122 311.024 292.65 308.931C294.177 306.837 294.999 304.324 295 301.746C295 294.948 289.406 289.442 282.5 289.442Z" fill="white" fill-opacity="0.54"/>
<path d="M666.656 315.359C665.956 315.359 665.307 315.233 664.71 314.981C664.113 314.729 663.59 314.379 663.142 313.931C662.694 313.474 662.344 312.946 662.092 312.349C661.849 311.752 661.728 311.108 661.728 310.417C661.728 309.726 661.854 309.082 662.106 308.485C662.358 307.888 662.708 307.365 663.156 306.917C663.604 306.46 664.127 306.105 664.724 305.853C665.331 305.601 665.984 305.475 666.684 305.475C667.384 305.475 668.033 305.601 668.63 305.853C669.237 306.096 669.759 306.441 670.198 306.889C670.646 307.337 670.991 307.86 671.234 308.457C671.486 309.045 671.612 309.689 671.612 310.389C671.612 311.089 671.486 311.742 671.234 312.349C670.982 312.946 670.627 313.474 670.17 313.931C669.722 314.379 669.199 314.729 668.602 314.981C668.005 315.233 667.356 315.359 666.656 315.359ZM666.642 314.841C667.277 314.841 667.86 314.729 668.392 314.505C668.924 314.272 669.391 313.954 669.792 313.553C670.203 313.152 670.52 312.68 670.744 312.139C670.968 311.588 671.08 311.005 671.08 310.389C671.08 309.764 670.968 309.185 670.744 308.653C670.529 308.121 670.221 307.654 669.82 307.253C669.428 306.852 668.961 306.544 668.42 306.329C667.888 306.105 667.309 305.993 666.684 305.993C666.049 305.993 665.461 306.105 664.92 306.329C664.379 306.553 663.907 306.87 663.506 307.281C663.114 307.682 662.806 308.149 662.582 308.681C662.358 309.213 662.246 309.792 662.246 310.417C662.246 311.033 662.358 311.612 662.582 312.153C662.806 312.685 663.114 313.156 663.506 313.567C663.907 313.968 664.374 314.281 664.906 314.505C665.447 314.729 666.026 314.841 666.642 314.841ZM666.782 313.329C666.222 313.329 665.723 313.208 665.284 312.965C664.845 312.713 664.5 312.368 664.248 311.929C663.996 311.49 663.87 310.986 663.87 310.417C663.87 309.848 663.996 309.344 664.248 308.905C664.5 308.466 664.845 308.126 665.284 307.883C665.723 307.631 666.222 307.505 666.782 307.505C667.258 307.505 667.687 307.603 668.07 307.799C668.462 307.986 668.775 308.247 669.008 308.583L668.406 309.031C668.21 308.76 667.972 308.56 667.692 308.429C667.412 308.298 667.104 308.233 666.768 308.233C666.367 308.233 666.007 308.326 665.69 308.513C665.382 308.69 665.135 308.942 664.948 309.269C664.761 309.596 664.668 309.978 664.668 310.417C664.668 310.856 664.761 311.238 664.948 311.565C665.135 311.892 665.382 312.148 665.69 312.335C666.007 312.512 666.367 312.601 666.768 312.601C667.104 312.601 667.412 312.536 667.692 312.405C667.972 312.274 668.21 312.074 668.406 311.803L669.008 312.237C668.775 312.582 668.462 312.853 668.07 313.049C667.687 313.236 667.258 313.329 666.782 313.329ZM676.012 315.317L680.492 305.517H681.514L685.994 315.317H684.902L680.786 306.119H681.206L677.09 315.317H676.012ZM677.776 312.699L678.084 311.859H683.782L684.09 312.699H677.776ZM696.59 307.897C697.187 307.897 697.705 308.014 698.144 308.247C698.592 308.471 698.937 308.816 699.18 309.283C699.432 309.75 699.558 310.338 699.558 311.047V315.317H698.564V311.145C698.564 310.37 698.377 309.787 698.004 309.395C697.64 308.994 697.122 308.793 696.45 308.793C695.946 308.793 695.507 308.9 695.134 309.115C694.77 309.32 694.485 309.624 694.28 310.025C694.084 310.417 693.986 310.893 693.986 311.453V315.317H692.992V311.145C692.992 310.37 692.805 309.787 692.432 309.395C692.058 308.994 691.536 308.793 690.864 308.793C690.369 308.793 689.935 308.9 689.562 309.115C689.188 309.32 688.899 309.624 688.694 310.025C688.498 310.417 688.4 310.893 688.4 311.453V315.317H687.406V307.967H688.358V309.955L688.204 309.605C688.428 309.073 688.787 308.658 689.282 308.359C689.786 308.051 690.378 307.897 691.06 307.897C691.778 307.897 692.39 308.079 692.894 308.443C693.398 308.798 693.724 309.334 693.874 310.053L693.482 309.899C693.696 309.302 694.074 308.821 694.616 308.457C695.166 308.084 695.824 307.897 696.59 307.897ZM706.047 315.387C705.403 315.387 704.825 315.242 704.311 314.953C703.798 314.654 703.392 314.225 703.093 313.665C702.795 313.105 702.645 312.428 702.645 311.635C702.645 310.832 702.795 310.156 703.093 309.605C703.401 309.045 703.812 308.62 704.325 308.331C704.839 308.042 705.413 307.897 706.047 307.897C706.747 307.897 707.373 308.056 707.923 308.373C708.483 308.681 708.922 309.115 709.239 309.675C709.557 310.235 709.715 310.888 709.715 311.635C709.715 312.372 709.557 313.026 709.239 313.595C708.922 314.155 708.483 314.594 707.923 314.911C707.373 315.228 706.747 315.387 706.047 315.387ZM702.253 315.317V304.929H703.247V310.137L703.107 311.621L703.205 313.105V315.317H702.253ZM705.977 314.505C706.5 314.505 706.967 314.388 707.377 314.155C707.788 313.912 708.115 313.576 708.357 313.147C708.6 312.708 708.721 312.204 708.721 311.635C708.721 311.056 708.6 310.552 708.357 310.123C708.115 309.694 707.788 309.362 707.377 309.129C706.967 308.886 706.5 308.765 705.977 308.765C705.455 308.765 704.983 308.886 704.563 309.129C704.153 309.362 703.826 309.694 703.583 310.123C703.35 310.552 703.233 311.056 703.233 311.635C703.233 312.204 703.35 312.708 703.583 313.147C703.826 313.576 704.153 313.912 704.563 314.155C704.983 314.388 705.455 314.505 705.977 314.505ZM714.863 315.387C714.098 315.387 713.426 315.228 712.847 314.911C712.269 314.584 711.816 314.141 711.489 313.581C711.163 313.012 710.999 312.363 710.999 311.635C710.999 310.907 711.153 310.263 711.461 309.703C711.779 309.143 712.208 308.704 712.749 308.387C713.3 308.06 713.916 307.897 714.597 307.897C715.288 307.897 715.899 308.056 716.431 308.373C716.973 308.681 717.397 309.12 717.705 309.689C718.013 310.249 718.167 310.898 718.167 311.635C718.167 311.682 718.163 311.733 718.153 311.789C718.153 311.836 718.153 311.887 718.153 311.943H711.755V311.201H717.621L717.229 311.495C717.229 310.963 717.113 310.492 716.879 310.081C716.655 309.661 716.347 309.334 715.955 309.101C715.563 308.868 715.111 308.751 714.597 308.751C714.093 308.751 713.641 308.868 713.239 309.101C712.838 309.334 712.525 309.661 712.301 310.081C712.077 310.501 711.965 310.982 711.965 311.523V311.677C711.965 312.237 712.087 312.732 712.329 313.161C712.581 313.581 712.927 313.912 713.365 314.155C713.813 314.388 714.322 314.505 714.891 314.505C715.339 314.505 715.755 314.426 716.137 314.267C716.529 314.108 716.865 313.866 717.145 313.539L717.705 314.183C717.379 314.575 716.968 314.874 716.473 315.079C715.988 315.284 715.451 315.387 714.863 315.387ZM720.191 315.317V307.967H721.143V309.969L721.045 309.619C721.25 309.059 721.595 308.634 722.081 308.345C722.566 308.046 723.168 307.897 723.887 307.897V308.863C723.849 308.863 723.812 308.863 723.775 308.863C723.737 308.854 723.7 308.849 723.663 308.849C722.888 308.849 722.281 309.087 721.843 309.563C721.404 310.03 721.185 310.697 721.185 311.565V315.317H720.191ZM725.815 315.317V305.517H729.805C730.85 305.517 731.765 305.727 732.549 306.147C733.342 306.558 733.958 307.132 734.397 307.869C734.835 308.606 735.055 309.456 735.055 310.417C735.055 311.378 734.835 312.228 734.397 312.965C733.958 313.702 733.342 314.281 732.549 314.701C731.765 315.112 730.85 315.317 729.805 315.317H725.815ZM726.851 314.421H729.749C730.617 314.421 731.368 314.253 732.003 313.917C732.647 313.572 733.146 313.1 733.501 312.503C733.855 311.896 734.033 311.201 734.033 310.417C734.033 309.624 733.855 308.928 733.501 308.331C733.146 307.734 732.647 307.267 732.003 306.931C731.368 306.586 730.617 306.413 729.749 306.413H726.851V314.421ZM735.676 315.317L740.156 305.517H741.178L745.658 315.317H744.566L740.45 306.119H740.87L736.754 315.317H735.676ZM737.44 312.699L737.748 311.859H743.446L743.754 312.699H737.44ZM751.427 315.401C750.69 315.401 750.004 315.28 749.369 315.037C748.744 314.785 748.198 314.435 747.731 313.987C747.274 313.53 746.914 313.002 746.653 312.405C746.401 311.798 746.275 311.136 746.275 310.417C746.275 309.698 746.401 309.04 746.653 308.443C746.914 307.836 747.274 307.309 747.731 306.861C748.198 306.404 748.744 306.054 749.369 305.811C749.994 305.559 750.68 305.433 751.427 305.433C752.164 305.433 752.846 305.559 753.471 305.811C754.096 306.054 754.638 306.399 755.095 306.847C755.562 307.295 755.921 307.822 756.173 308.429C756.434 309.036 756.565 309.698 756.565 310.417C756.565 311.136 756.434 311.798 756.173 312.405C755.921 313.012 755.562 313.539 755.095 313.987C754.638 314.435 754.096 314.785 753.471 315.037C752.846 315.28 752.164 315.401 751.427 315.401ZM751.427 314.477C752.015 314.477 752.556 314.379 753.051 314.183C753.555 313.978 753.989 313.693 754.353 313.329C754.726 312.956 755.016 312.526 755.221 312.041C755.426 311.546 755.529 311.005 755.529 310.417C755.529 309.829 755.426 309.292 755.221 308.807C755.016 308.312 754.726 307.883 754.353 307.519C753.989 307.146 753.555 306.861 753.051 306.665C752.556 306.46 752.015 306.357 751.427 306.357C750.839 306.357 750.293 306.46 749.789 306.665C749.285 306.861 748.846 307.146 748.473 307.519C748.109 307.883 747.82 308.312 747.605 308.807C747.4 309.292 747.297 309.829 747.297 310.417C747.297 310.996 747.4 311.532 747.605 312.027C747.82 312.522 748.109 312.956 748.473 313.329C748.846 313.693 749.285 313.978 749.789 314.183C750.293 314.379 750.839 314.477 751.427 314.477ZM761.501 315.317V314.603L765.575 310.613C765.948 310.249 766.228 309.932 766.415 309.661C766.602 309.381 766.728 309.12 766.793 308.877C766.858 308.634 766.891 308.406 766.891 308.191C766.891 307.622 766.695 307.174 766.303 306.847C765.92 306.52 765.351 306.357 764.595 306.357C764.016 306.357 763.503 306.446 763.055 306.623C762.616 306.8 762.238 307.076 761.921 307.449L761.207 306.833C761.59 306.385 762.08 306.04 762.677 305.797C763.274 305.554 763.942 305.433 764.679 305.433C765.342 305.433 765.916 305.54 766.401 305.755C766.886 305.96 767.26 306.264 767.521 306.665C767.792 307.066 767.927 307.538 767.927 308.079C767.927 308.396 767.88 308.709 767.787 309.017C767.703 309.325 767.544 309.652 767.311 309.997C767.087 310.333 766.756 310.716 766.317 311.145L762.579 314.813L762.299 314.421H768.375V315.317H761.501ZM773.519 315.401C772.763 315.401 772.091 315.205 771.503 314.813C770.915 314.412 770.453 313.842 770.117 313.105C769.781 312.358 769.613 311.462 769.613 310.417C769.613 309.372 769.781 308.48 770.117 307.743C770.453 306.996 770.915 306.427 771.503 306.035C772.091 305.634 772.763 305.433 773.519 305.433C774.275 305.433 774.947 305.634 775.535 306.035C776.123 306.427 776.585 306.996 776.921 307.743C777.266 308.48 777.439 309.372 777.439 310.417C777.439 311.462 777.266 312.358 776.921 313.105C776.585 313.842 776.123 314.412 775.535 314.813C774.947 315.205 774.275 315.401 773.519 315.401ZM773.519 314.477C774.097 314.477 774.601 314.323 775.031 314.015C775.46 313.698 775.796 313.24 776.039 312.643C776.281 312.036 776.403 311.294 776.403 310.417C776.403 309.54 776.281 308.802 776.039 308.205C775.796 307.598 775.46 307.141 775.031 306.833C774.601 306.516 774.097 306.357 773.519 306.357C772.959 306.357 772.459 306.516 772.021 306.833C771.582 307.141 771.241 307.598 770.999 308.205C770.756 308.802 770.635 309.54 770.635 310.417C770.635 311.294 770.756 312.036 770.999 312.643C771.241 313.24 771.582 313.698 772.021 314.015C772.459 314.323 772.959 314.477 773.519 314.477ZM778.7 315.317V314.603L782.774 310.613C783.148 310.249 783.428 309.932 783.614 309.661C783.801 309.381 783.927 309.12 783.992 308.877C784.058 308.634 784.09 308.406 784.09 308.191C784.09 307.622 783.894 307.174 783.502 306.847C783.12 306.52 782.55 306.357 781.794 306.357C781.216 306.357 780.702 306.446 780.254 306.623C779.816 306.8 779.438 307.076 779.12 307.449L778.406 306.833C778.789 306.385 779.279 306.04 779.876 305.797C780.474 305.554 781.141 305.433 781.878 305.433C782.541 305.433 783.115 305.54 783.6 305.755C784.086 305.96 784.459 306.264 784.72 306.665C784.991 307.066 785.126 307.538 785.126 308.079C785.126 308.396 785.08 308.709 784.986 309.017C784.902 309.325 784.744 309.652 784.51 309.997C784.286 310.333 783.955 310.716 783.516 311.145L779.778 314.813L779.498 314.421H785.574V315.317H778.7ZM786.657 315.317V314.603L790.731 310.613C791.105 310.249 791.385 309.932 791.571 309.661C791.758 309.381 791.884 309.12 791.949 308.877C792.015 308.634 792.047 308.406 792.047 308.191C792.047 307.622 791.851 307.174 791.459 306.847C791.077 306.52 790.507 306.357 789.751 306.357C789.173 306.357 788.659 306.446 788.211 306.623C787.773 306.8 787.395 307.076 787.077 307.449L786.363 306.833C786.746 306.385 787.236 306.04 787.833 305.797C788.431 305.554 789.098 305.433 789.835 305.433C790.498 305.433 791.072 305.54 791.557 305.755C792.043 305.96 792.416 306.264 792.677 306.665C792.948 307.066 793.083 307.538 793.083 308.079C793.083 308.396 793.037 308.709 792.943 309.017C792.859 309.325 792.701 309.652 792.467 309.997C792.243 310.333 791.912 310.716 791.473 311.145L787.735 314.813L787.455 314.421H793.531V315.317H786.657Z" fill="white" fill-opacity="0.54"/>
<path d="M1126.31 315.387C1125.61 315.387 1124.98 315.228 1124.42 314.911C1123.87 314.594 1123.44 314.155 1123.12 313.595C1122.8 313.026 1122.64 312.372 1122.64 311.635C1122.64 310.888 1122.8 310.235 1123.12 309.675C1123.44 309.115 1123.87 308.681 1124.42 308.373C1124.98 308.056 1125.61 307.897 1126.31 307.897C1126.96 307.897 1127.53 308.042 1128.03 308.331C1128.55 308.62 1128.95 309.045 1129.25 309.605C1129.56 310.156 1129.71 310.832 1129.71 311.635C1129.71 312.428 1129.56 313.105 1129.27 313.665C1128.97 314.225 1128.56 314.654 1128.05 314.953C1127.54 315.242 1126.97 315.387 1126.31 315.387ZM1126.38 314.505C1126.9 314.505 1127.37 314.388 1127.78 314.155C1128.2 313.912 1128.53 313.576 1128.76 313.147C1129 312.708 1129.13 312.204 1129.13 311.635C1129.13 311.056 1129 310.552 1128.76 310.123C1128.53 309.694 1128.2 309.362 1127.78 309.129C1127.37 308.886 1126.9 308.765 1126.38 308.765C1125.87 308.765 1125.41 308.886 1125 309.129C1124.59 309.362 1124.26 309.694 1124.02 310.123C1123.77 310.552 1123.65 311.056 1123.65 311.635C1123.65 312.204 1123.77 312.708 1124.02 313.147C1124.26 313.576 1124.59 313.912 1125 314.155C1125.41 314.388 1125.87 314.505 1126.38 314.505ZM1129.15 315.317V313.105L1129.25 311.621L1129.11 310.137V304.929H1130.11V315.317H1129.15ZM1136 315.387C1135.23 315.387 1134.56 315.228 1133.98 314.911C1133.4 314.584 1132.95 314.141 1132.62 313.581C1132.3 313.012 1132.13 312.363 1132.13 311.635C1132.13 310.907 1132.29 310.263 1132.59 309.703C1132.91 309.143 1133.34 308.704 1133.88 308.387C1134.43 308.06 1135.05 307.897 1135.73 307.897C1136.42 307.897 1137.03 308.056 1137.56 308.373C1138.11 308.681 1138.53 309.12 1138.84 309.689C1139.15 310.249 1139.3 310.898 1139.3 311.635C1139.3 311.682 1139.3 311.733 1139.29 311.789C1139.29 311.836 1139.29 311.887 1139.29 311.943H1132.89V311.201H1138.75L1138.36 311.495C1138.36 310.963 1138.25 310.492 1138.01 310.081C1137.79 309.661 1137.48 309.334 1137.09 309.101C1136.7 308.868 1136.24 308.751 1135.73 308.751C1135.23 308.751 1134.77 308.868 1134.37 309.101C1133.97 309.334 1133.66 309.661 1133.43 310.081C1133.21 310.501 1133.1 310.982 1133.1 311.523V311.677C1133.1 312.237 1133.22 312.732 1133.46 313.161C1133.71 313.581 1134.06 313.912 1134.5 314.155C1134.95 314.388 1135.45 314.505 1136.02 314.505C1136.47 314.505 1136.89 314.426 1137.27 314.267C1137.66 314.108 1138 313.866 1138.28 313.539L1138.84 314.183C1138.51 314.575 1138.1 314.874 1137.61 315.079C1137.12 315.284 1136.58 315.387 1136 315.387ZM1143.3 315.387C1142.69 315.387 1142.12 315.303 1141.58 315.135C1141.03 314.958 1140.61 314.738 1140.3 314.477L1140.75 313.693C1141.05 313.917 1141.43 314.113 1141.9 314.281C1142.36 314.44 1142.85 314.519 1143.37 314.519C1144.07 314.519 1144.57 314.412 1144.88 314.197C1145.19 313.973 1145.34 313.679 1145.34 313.315C1145.34 313.044 1145.25 312.834 1145.08 312.685C1144.91 312.526 1144.68 312.41 1144.4 312.335C1144.12 312.251 1143.81 312.181 1143.47 312.125C1143.12 312.069 1142.77 312.004 1142.43 311.929C1142.09 311.854 1141.79 311.747 1141.51 311.607C1141.23 311.458 1141 311.257 1140.82 311.005C1140.65 310.753 1140.57 310.417 1140.57 309.997C1140.57 309.596 1140.68 309.236 1140.9 308.919C1141.13 308.602 1141.45 308.354 1141.88 308.177C1142.32 307.99 1142.85 307.897 1143.48 307.897C1143.96 307.897 1144.43 307.962 1144.91 308.093C1145.38 308.214 1145.78 308.378 1146.08 308.583L1145.65 309.381C1145.32 309.157 1144.97 308.998 1144.6 308.905C1144.23 308.802 1143.85 308.751 1143.48 308.751C1142.82 308.751 1142.33 308.868 1142.01 309.101C1141.7 309.325 1141.55 309.614 1141.55 309.969C1141.55 310.249 1141.63 310.468 1141.8 310.627C1141.98 310.786 1142.21 310.912 1142.49 311.005C1142.77 311.089 1143.09 311.159 1143.42 311.215C1143.77 311.271 1144.11 311.341 1144.45 311.425C1144.79 311.5 1145.1 311.607 1145.38 311.747C1145.67 311.878 1145.9 312.069 1146.07 312.321C1146.25 312.564 1146.34 312.886 1146.34 313.287C1146.34 313.716 1146.21 314.09 1145.97 314.407C1145.74 314.715 1145.39 314.958 1144.94 315.135C1144.49 315.303 1143.94 315.387 1143.3 315.387ZM1148.16 315.317V307.967H1149.15V315.317H1148.16ZM1148.66 306.343C1148.46 306.343 1148.29 306.273 1148.15 306.133C1148.01 305.993 1147.94 305.825 1147.94 305.629C1147.94 305.433 1148.01 305.27 1148.15 305.139C1148.29 304.999 1148.46 304.929 1148.66 304.929C1148.87 304.929 1149.04 304.994 1149.18 305.125C1149.32 305.256 1149.39 305.419 1149.39 305.615C1149.39 305.82 1149.32 305.993 1149.18 306.133C1149.05 306.273 1148.88 306.343 1148.66 306.343ZM1155.06 318.103C1154.38 318.103 1153.74 318.005 1153.12 317.809C1152.51 317.613 1152.01 317.333 1151.63 316.969L1152.13 316.213C1152.47 316.521 1152.9 316.764 1153.4 316.941C1153.92 317.128 1154.46 317.221 1155.03 317.221C1155.96 317.221 1156.65 317.002 1157.09 316.563C1157.52 316.134 1157.74 315.462 1157.74 314.547V312.713L1157.88 311.453L1157.79 310.193V307.967H1158.74V314.421C1158.74 315.69 1158.42 316.619 1157.8 317.207C1157.18 317.804 1156.27 318.103 1155.06 318.103ZM1154.87 315.037C1154.17 315.037 1153.54 314.888 1152.98 314.589C1152.42 314.281 1151.98 313.856 1151.65 313.315C1151.34 312.774 1151.18 312.153 1151.18 311.453C1151.18 310.753 1151.34 310.137 1151.65 309.605C1151.98 309.064 1152.42 308.644 1152.98 308.345C1153.54 308.046 1154.17 307.897 1154.87 307.897C1155.53 307.897 1156.11 308.032 1156.64 308.303C1157.16 308.574 1157.58 308.975 1157.88 309.507C1158.19 310.039 1158.35 310.688 1158.35 311.453C1158.35 312.218 1158.19 312.867 1157.88 313.399C1157.58 313.931 1157.16 314.337 1156.64 314.617C1156.11 314.897 1155.53 315.037 1154.87 315.037ZM1154.97 314.155C1155.51 314.155 1155.99 314.043 1156.41 313.819C1156.83 313.586 1157.16 313.268 1157.41 312.867C1157.65 312.456 1157.77 311.985 1157.77 311.453C1157.77 310.921 1157.65 310.454 1157.41 310.053C1157.16 309.652 1156.83 309.339 1156.41 309.115C1155.99 308.882 1155.51 308.765 1154.97 308.765C1154.44 308.765 1153.96 308.882 1153.53 309.115C1153.11 309.339 1152.78 309.652 1152.54 310.053C1152.3 310.454 1152.19 310.921 1152.19 311.453C1152.19 311.985 1152.3 312.456 1152.54 312.867C1152.78 313.268 1153.11 313.586 1153.53 313.819C1153.96 314.043 1154.44 314.155 1154.97 314.155ZM1165.26 307.897C1165.85 307.897 1166.38 308.014 1166.82 308.247C1167.28 308.471 1167.64 308.816 1167.89 309.283C1168.15 309.75 1168.28 310.338 1168.28 311.047V315.317H1167.29V311.145C1167.29 310.37 1167.09 309.787 1166.7 309.395C1166.31 308.994 1165.77 308.793 1165.07 308.793C1164.55 308.793 1164.09 308.9 1163.7 309.115C1163.32 309.32 1163.02 309.624 1162.81 310.025C1162.6 310.417 1162.5 310.893 1162.5 311.453V315.317H1161.5V307.967H1162.46V309.983L1162.3 309.605C1162.53 309.073 1162.91 308.658 1163.42 308.359C1163.93 308.051 1164.55 307.897 1165.26 307.897ZM1174.09 315.387C1173.32 315.387 1172.65 315.228 1172.07 314.911C1171.49 314.584 1171.04 314.141 1170.71 313.581C1170.39 313.012 1170.22 312.363 1170.22 311.635C1170.22 310.907 1170.38 310.263 1170.68 309.703C1171 309.143 1171.43 308.704 1171.97 308.387C1172.52 308.06 1173.14 307.897 1173.82 307.897C1174.51 307.897 1175.12 308.056 1175.65 308.373C1176.2 308.681 1176.62 309.12 1176.93 309.689C1177.24 310.249 1177.39 310.898 1177.39 311.635C1177.39 311.682 1177.39 311.733 1177.38 311.789C1177.38 311.836 1177.38 311.887 1177.38 311.943H1170.98V311.201H1176.84L1176.45 311.495C1176.45 310.963 1176.34 310.492 1176.1 310.081C1175.88 309.661 1175.57 309.334 1175.18 309.101C1174.79 308.868 1174.33 308.751 1173.82 308.751C1173.32 308.751 1172.86 308.868 1172.46 309.101C1172.06 309.334 1171.75 309.661 1171.52 310.081C1171.3 310.501 1171.19 310.982 1171.19 311.523V311.677C1171.19 312.237 1171.31 312.732 1171.55 313.161C1171.8 313.581 1172.15 313.912 1172.59 314.155C1173.04 314.388 1173.54 314.505 1174.11 314.505C1174.56 314.505 1174.98 314.426 1175.36 314.267C1175.75 314.108 1176.09 313.866 1176.37 313.539L1176.93 314.183C1176.6 314.575 1176.19 314.874 1175.7 315.079C1175.21 315.284 1174.67 315.387 1174.09 315.387ZM1182.34 315.387C1181.64 315.387 1181.01 315.228 1180.45 314.911C1179.9 314.594 1179.46 314.155 1179.15 313.595C1178.83 313.026 1178.67 312.372 1178.67 311.635C1178.67 310.888 1178.83 310.235 1179.15 309.675C1179.46 309.115 1179.9 308.681 1180.45 308.373C1181.01 308.056 1181.64 307.897 1182.34 307.897C1182.98 307.897 1183.56 308.042 1184.06 308.331C1184.57 308.62 1184.98 309.045 1185.28 309.605C1185.59 310.156 1185.74 310.832 1185.74 311.635C1185.74 312.428 1185.59 313.105 1185.29 313.665C1184.99 314.225 1184.59 314.654 1184.08 314.953C1183.57 315.242 1182.99 315.387 1182.34 315.387ZM1182.41 314.505C1182.93 314.505 1183.4 314.388 1183.81 314.155C1184.23 313.912 1184.56 313.576 1184.79 313.147C1185.03 312.708 1185.15 312.204 1185.15 311.635C1185.15 311.056 1185.03 310.552 1184.79 310.123C1184.56 309.694 1184.23 309.362 1183.81 309.129C1183.4 308.886 1182.93 308.765 1182.41 308.765C1181.9 308.765 1181.43 308.886 1181.02 309.129C1180.61 309.362 1180.29 309.694 1180.04 310.123C1179.8 310.552 1179.68 311.056 1179.68 311.635C1179.68 312.204 1179.8 312.708 1180.04 313.147C1180.29 313.576 1180.61 313.912 1181.02 314.155C1181.43 314.388 1181.9 314.505 1182.41 314.505ZM1185.18 315.317V313.105L1185.28 311.621L1185.14 310.137V304.929H1186.13V315.317H1185.18ZM1196.36 315.387C1195.72 315.387 1195.14 315.242 1194.62 314.953C1194.11 314.654 1193.7 314.225 1193.41 313.665C1193.11 313.105 1192.96 312.428 1192.96 311.635C1192.96 310.832 1193.11 310.156 1193.41 309.605C1193.71 309.045 1194.12 308.62 1194.64 308.331C1195.15 308.042 1195.73 307.897 1196.36 307.897C1197.06 307.897 1197.69 308.056 1198.24 308.373C1198.8 308.681 1199.23 309.115 1199.55 309.675C1199.87 310.235 1200.03 310.888 1200.03 311.635C1200.03 312.372 1199.87 313.026 1199.55 313.595C1199.23 314.155 1198.8 314.594 1198.24 314.911C1197.69 315.228 1197.06 315.387 1196.36 315.387ZM1192.57 315.317V304.929H1193.56V310.137L1193.42 311.621L1193.52 313.105V315.317H1192.57ZM1196.29 314.505C1196.81 314.505 1197.28 314.388 1197.69 314.155C1198.1 313.912 1198.43 313.576 1198.67 313.147C1198.91 312.708 1199.03 312.204 1199.03 311.635C1199.03 311.056 1198.91 310.552 1198.67 310.123C1198.43 309.694 1198.1 309.362 1197.69 309.129C1197.28 308.886 1196.81 308.765 1196.29 308.765C1195.77 308.765 1195.3 308.886 1194.88 309.129C1194.47 309.362 1194.14 309.694 1193.9 310.123C1193.66 310.552 1193.55 311.056 1193.55 311.635C1193.55 312.204 1193.66 312.708 1193.9 313.147C1194.14 313.576 1194.47 313.912 1194.88 314.155C1195.3 314.388 1195.77 314.505 1196.29 314.505ZM1205.09 315.387C1204.47 315.387 1203.92 315.27 1203.45 315.037C1202.99 314.804 1202.62 314.454 1202.36 313.987C1202.11 313.52 1201.98 312.937 1201.98 312.237V307.967H1202.98V312.125C1202.98 312.909 1203.17 313.502 1203.55 313.903C1203.94 314.295 1204.49 314.491 1205.19 314.491C1205.7 314.491 1206.15 314.388 1206.52 314.183C1206.9 313.968 1207.19 313.66 1207.39 313.259C1207.59 312.858 1207.7 312.377 1207.7 311.817V307.967H1208.69V315.317H1207.74V313.301L1207.89 313.665C1207.66 314.206 1207.29 314.631 1206.8 314.939C1206.31 315.238 1205.75 315.387 1205.09 315.387ZM1215.91 313.413L1215.94 312.139L1220.51 307.967H1221.73L1218.5 311.061L1217.94 311.537L1215.91 313.413ZM1215.12 315.317V304.929H1216.12V315.317H1215.12ZM1220.82 315.317L1217.76 311.495L1218.4 310.725L1222.04 315.317H1220.82ZM1228 315.317V313.693L1227.96 313.427V310.711C1227.96 310.086 1227.78 309.605 1227.43 309.269C1227.08 308.933 1226.56 308.765 1225.87 308.765C1225.4 308.765 1224.95 308.844 1224.52 309.003C1224.09 309.162 1223.72 309.372 1223.42 309.633L1222.98 308.891C1223.35 308.574 1223.8 308.331 1224.32 308.163C1224.84 307.986 1225.39 307.897 1225.97 307.897C1226.92 307.897 1227.66 308.135 1228.17 308.611C1228.69 309.078 1228.95 309.792 1228.95 310.753V315.317H1228ZM1225.47 315.387C1224.92 315.387 1224.44 315.298 1224.03 315.121C1223.62 314.934 1223.32 314.682 1223.1 314.365C1222.89 314.038 1222.78 313.665 1222.78 313.245C1222.78 312.862 1222.87 312.517 1223.05 312.209C1223.23 311.892 1223.53 311.64 1223.94 311.453C1224.36 311.257 1224.92 311.159 1225.62 311.159H1228.16V311.901H1225.65C1224.94 311.901 1224.45 312.027 1224.17 312.279C1223.9 312.531 1223.76 312.844 1223.76 313.217C1223.76 313.637 1223.92 313.973 1224.25 314.225C1224.58 314.477 1225.03 314.603 1225.62 314.603C1226.18 314.603 1226.66 314.477 1227.06 314.225C1227.47 313.964 1227.77 313.59 1227.96 313.105L1228.18 313.791C1228 314.276 1227.67 314.664 1227.2 314.953C1226.75 315.242 1226.17 315.387 1225.47 315.387ZM1233.98 315.387C1233.29 315.387 1232.75 315.2 1232.38 314.827C1232.01 314.454 1231.82 313.926 1231.82 313.245V306.343H1232.82V313.189C1232.82 313.618 1232.92 313.95 1233.14 314.183C1233.36 314.416 1233.68 314.533 1234.09 314.533C1234.53 314.533 1234.89 314.407 1235.18 314.155L1235.53 314.869C1235.34 315.046 1235.1 315.177 1234.82 315.261C1234.55 315.345 1234.27 315.387 1233.98 315.387ZM1230.51 308.793V307.967H1235.06V308.793H1230.51ZM1240.38 315.387C1239.75 315.387 1239.21 315.27 1238.74 315.037C1238.27 314.804 1237.91 314.454 1237.65 313.987C1237.4 313.52 1237.27 312.937 1237.27 312.237V307.967H1238.27V312.125C1238.27 312.909 1238.46 313.502 1238.84 313.903C1239.23 314.295 1239.78 314.491 1240.48 314.491C1240.99 314.491 1241.43 314.388 1241.81 314.183C1242.19 313.968 1242.48 313.66 1242.68 313.259C1242.88 312.858 1242.98 312.377 1242.98 311.817V307.967H1243.98V315.317H1243.03V313.301L1243.18 313.665C1242.95 314.206 1242.58 314.631 1242.09 314.939C1241.6 315.238 1241.03 315.387 1240.38 315.387ZM1248.72 315.387C1248.11 315.387 1247.54 315.303 1247 315.135C1246.46 314.958 1246.03 314.738 1245.73 314.477L1246.17 313.693C1246.47 313.917 1246.85 314.113 1247.32 314.281C1247.79 314.44 1248.28 314.519 1248.79 314.519C1249.49 314.519 1250 314.412 1250.3 314.197C1250.61 313.973 1250.77 313.679 1250.77 313.315C1250.77 313.044 1250.68 312.834 1250.5 312.685C1250.33 312.526 1250.11 312.41 1249.83 312.335C1249.55 312.251 1249.23 312.181 1248.89 312.125C1248.54 312.069 1248.2 312.004 1247.85 311.929C1247.52 311.854 1247.21 311.747 1246.93 311.607C1246.65 311.458 1246.42 311.257 1246.24 311.005C1246.08 310.753 1245.99 310.417 1245.99 309.997C1245.99 309.596 1246.1 309.236 1246.33 308.919C1246.55 308.602 1246.88 308.354 1247.31 308.177C1247.75 307.99 1248.28 307.897 1248.9 307.897C1249.38 307.897 1249.86 307.962 1250.33 308.093C1250.81 308.214 1251.2 308.378 1251.51 308.583L1251.07 309.381C1250.75 309.157 1250.4 308.998 1250.02 308.905C1249.65 308.802 1249.28 308.751 1248.9 308.751C1248.24 308.751 1247.75 308.868 1247.43 309.101C1247.13 309.325 1246.97 309.614 1246.97 309.969C1246.97 310.249 1247.06 310.468 1247.22 310.627C1247.4 310.786 1247.63 310.912 1247.91 311.005C1248.2 311.089 1248.51 311.159 1248.85 311.215C1249.19 311.271 1249.53 311.341 1249.87 311.425C1250.21 311.5 1250.53 311.607 1250.81 311.747C1251.1 311.878 1251.33 312.069 1251.49 312.321C1251.67 312.564 1251.76 312.886 1251.76 313.287C1251.76 313.716 1251.64 314.09 1251.4 314.407C1251.16 314.715 1250.82 314.958 1250.36 315.135C1249.91 315.303 1249.37 315.387 1248.72 315.387ZM1256.62 315.387C1256 315.387 1255.45 315.27 1254.98 315.037C1254.52 314.804 1254.15 314.454 1253.89 313.987C1253.64 313.52 1253.51 312.937 1253.51 312.237V307.967H1254.51V312.125C1254.51 312.909 1254.7 313.502 1255.08 313.903C1255.47 314.295 1256.02 314.491 1256.72 314.491C1257.23 314.491 1257.68 314.388 1258.05 314.183C1258.43 313.968 1258.72 313.66 1258.92 313.259C1259.12 312.858 1259.23 312.377 1259.23 311.817V307.967H1260.22V315.317H1259.27V313.301L1259.42 313.665C1259.19 314.206 1258.82 314.631 1258.33 314.939C1257.84 315.238 1257.27 315.387 1256.62 315.387ZM1266.74 307.897C1267.34 307.897 1267.86 308.014 1268.31 308.247C1268.77 308.471 1269.12 308.816 1269.37 309.283C1269.63 309.75 1269.77 310.338 1269.77 311.047V315.317H1268.77V311.145C1268.77 310.37 1268.58 309.787 1268.18 309.395C1267.8 308.994 1267.26 308.793 1266.56 308.793C1266.04 308.793 1265.58 308.9 1265.19 309.115C1264.8 309.32 1264.51 309.624 1264.29 310.025C1264.09 310.417 1263.98 310.893 1263.98 311.453V315.317H1262.99V307.967H1263.94V309.983L1263.79 309.605C1264.02 309.073 1264.39 308.658 1264.91 308.359C1265.42 308.051 1266.03 307.897 1266.74 307.897ZM1277.06 315.317V313.693L1277.01 313.427V310.711C1277.01 310.086 1276.84 309.605 1276.48 309.269C1276.14 308.933 1275.62 308.765 1274.93 308.765C1274.45 308.765 1274 308.844 1273.57 309.003C1273.14 309.162 1272.78 309.372 1272.48 309.633L1272.03 308.891C1272.4 308.574 1272.85 308.331 1273.37 308.163C1273.9 307.986 1274.45 307.897 1275.03 307.897C1275.98 307.897 1276.71 308.135 1277.22 308.611C1277.75 309.078 1278.01 309.792 1278.01 310.753V315.317H1277.06ZM1274.52 315.387C1273.97 315.387 1273.49 315.298 1273.08 315.121C1272.68 314.934 1272.37 314.682 1272.16 314.365C1271.94 314.038 1271.83 313.665 1271.83 313.245C1271.83 312.862 1271.92 312.517 1272.1 312.209C1272.29 311.892 1272.59 311.64 1273 311.453C1273.42 311.257 1273.98 311.159 1274.68 311.159H1277.21V311.901H1274.7C1274 311.901 1273.5 312.027 1273.22 312.279C1272.95 312.531 1272.81 312.844 1272.81 313.217C1272.81 313.637 1272.98 313.973 1273.3 314.225C1273.63 314.477 1274.09 314.603 1274.68 314.603C1275.24 314.603 1275.72 314.477 1276.12 314.225C1276.53 313.964 1276.83 313.59 1277.01 313.105L1277.24 313.791C1277.05 314.276 1276.73 314.664 1276.26 314.953C1275.8 315.242 1275.22 315.387 1274.52 315.387Z" fill="white" fill-opacity="0.54"/>
<path d="M1213.74 317.067H1279.32V317.767H1213.74V317.067Z" fill="white" fill-opacity="0.54"/>
<defs>
<filter id="filter0_i_122_786" x="-80" y="-10" width="1909" height="397.408" filterUnits="userSpaceOnUse" color-interpolation-filters="sRGB">
<feFlood flood-opacity="0" result="BackgroundImageFix"/>
<feBlend mode="normal" in="SourceGraphic" in2="BackgroundImageFix" result="shape"/>
<feColorMatrix in="SourceAlpha" type="matrix" values="0 0 0 0 0 0 0 0 0 0 0 0 0 0 0 0 0 0 127 0" result="hardAlpha"/>
<feOffset dy="-10"/>
<feGaussianBlur stdDeviation="7.5"/>
<feComposite in2="hardAlpha" operator="arithmetic" k2="-1" k3="1"/>
<feColorMatrix type="matrix" values="0 0 0 0 0.0823529 0 0 0 0 0.0823529 0 0 0 0 0.0823529 0 0 0 0.25 0"/>
<feBlend mode="normal" in2="shape" result="effect1_innerShadow_122_786"/>
</filter>
<filter id="filter1_i_122_786" x="0" y="28.5923" width="1440" height="397.408" filterUnits="userSpaceOnUse" color-interpolation-filters="sRGB">
<feFlood flood-opacity="0" result="BackgroundImageFix"/>
<feBlend mode="normal" in="SourceGraphic" in2="BackgroundImageFix" result="shape"/>
<feColorMatrix in="SourceAlpha" type="matrix" values="0 0 0 0 0 0 0 0 0 0 0 0 0 0 0 0 0 0 127 0" result="hardAlpha"/>
<feOffset dy="-10"/>
<feGaussianBlur stdDeviation="7.5"/>
<feComposite in2="hardAlpha" operator="arithmetic" k2="-1" k3="1"/>
<feColorMatrix type="matrix" values="0 0 0 0 0.0823529 0 0 0 0 0.0823529 0 0 0 0 0.0823529 0 0 0 0.35 0"/>
<feBlend mode="normal" in2="shape" result="effect1_innerShadow_122_786"/>
</filter>
</defs>
</svg>
