<svg width="25" height="25" viewBox="0 0 25 25" fill="none" xmlns="http://www.w3.org/2000/svg">
<path fill-rule="evenodd" clip-rule="evenodd" d="M12.5 0.442383C5.59375 0.442383 0 5.94821 0 12.7459C0 18.1902 3.57812 22.7887 8.54688 24.4189C9.17188 24.5265 9.40625 24.1574 9.40625 23.8345C9.40625 23.5422 9.39062 22.5733 9.39062 21.5429C6.25 22.112 5.4375 20.7893 5.1875 20.0973C5.04688 19.7435 4.4375 18.6516 3.90625 18.3594C3.46875 18.1287 2.84375 17.5597 3.89062 17.5443C4.875 17.5289 5.57812 18.4363 5.8125 18.8054C6.9375 20.6663 8.73437 20.1434 9.45312 19.8204C9.5625 19.0207 9.89062 18.4824 10.25 18.1748C7.46875 17.8672 4.5625 16.8061 4.5625 12.1C4.5625 10.762 5.04688 9.65465 5.84375 8.7934C5.71875 8.48581 5.28125 7.2247 5.96875 5.53297C5.96875 5.53297 7.01562 5.21 9.40625 6.79408C10.4062 6.51725 11.4687 6.37883 12.5312 6.37883C13.5937 6.37883 14.6562 6.51725 15.6562 6.79408C18.0469 5.19462 19.0938 5.53297 19.0938 5.53297C19.7812 7.2247 19.3438 8.48581 19.2188 8.7934C20.0156 9.65465 20.5 10.7466 20.5 12.1C20.5 16.8214 17.5781 17.8672 14.7969 18.1748C15.25 18.5593 15.6406 19.2975 15.6406 20.451C15.6406 22.0966 15.625 23.4192 15.625 23.8345C15.625 24.1574 15.8594 24.5419 16.4844 24.4189C18.9658 23.5943 21.1221 22.0245 22.6496 19.9305C24.1772 17.8365 24.9993 15.3238 25 12.7459C25 5.94821 19.4062 0.442383 12.5 0.442383Z" fill="white" fill-opacity="0.54"/>
</svg>
