<svg width="25" height="25" viewBox="0 0 25 25" fill="none" xmlns="http://www.w3.org/2000/svg">
<path d="M9.48276 9.57514e-08H20.977C23.1988 9.57514e-08 25 1.79747 25 4.01477V15.1988H9.48276V9.57514e-08Z" fill="#D3D3D3"/>
<path d="M9.48276 18.64H15.5172V24.6622H9.48276V18.64Z" fill="#D3D3D3"/>
<path d="M0 9.17662H6.03448V15.1988H0V9.17662Z" fill="#D3D3D3"/>
<path d="M18.9655 18.64H25V20.6474C25 22.8647 23.1988 24.6622 20.977 24.6622H18.9655V18.64Z" fill="#D3D3D3"/>
<path d="M6.03448 18.64H0V20.6474C0 22.8647 1.80115 24.6622 4.02299 24.6622H6.03448V18.64Z" fill="#D3D3D3"/>
<path d="M6.03448 6.02216V2.39378e-08L4.02299 0C1.80115 -2.6441e-08 5.04817e-08 1.79747 2.39866e-08 4.01477L0 6.02216H6.03448Z" fill="#D3D3D3"/>
</svg>
