<svg width="226" height="66" viewBox="0 0 226 66" fill="none" xmlns="http://www.w3.org/2000/svg">
<g filter="url(#filter0_dd_112_1005)">
<rect x="8" y="8" width="210" height="50" rx="8" fill="#121E34"/>
</g>
<path d="M101.593 27.8V39H98.4886L94.2326 33.912V39H90.5526V27.8H93.6566L97.9126 32.888V27.8H101.593ZM112.724 36.152V39H103.412V27.8H112.516V30.648H107.124V31.96H111.86V34.68H107.124V36.152H112.724ZM121.188 39L119.252 36.008L117.364 39H113.059L117.108 33.352L113.204 27.8H117.444L119.348 30.616L121.204 27.8H125.268L121.38 33.208L125.508 39H121.188ZM128.235 30.728H124.955V27.8H135.291V30.728H132.011V39H128.235V30.728Z" fill="#F0F1F5"/>
<path d="M101.593 27.8V39H98.4886L94.2326 33.912V39H90.5526V27.8H93.6566L97.9126 32.888V27.8H101.593ZM112.724 36.152V39H103.412V27.8H112.516V30.648H107.124V31.96H111.86V34.68H107.124V36.152H112.724ZM121.188 39L119.252 36.008L117.364 39H113.059L117.108 33.352L113.204 27.8H117.444L119.348 30.616L121.204 27.8H125.268L121.38 33.208L125.508 39H121.188ZM128.235 30.728H124.955V27.8H135.291V30.728H132.011V39H128.235V30.728Z" fill="url(#paint0_linear_112_1005)" fill-opacity="0.6" style="mix-blend-mode:soft-light"/>
<defs>
<filter id="filter0_dd_112_1005" x="0" y="0" width="226" height="66" filterUnits="userSpaceOnUse" color-interpolation-filters="sRGB">
<feFlood flood-opacity="0" result="BackgroundImageFix"/>
<feColorMatrix in="SourceAlpha" type="matrix" values="0 0 0 0 0 0 0 0 0 0 0 0 0 0 0 0 0 0 127 0" result="hardAlpha"/>
<feOffset dx="4" dy="4"/>
<feGaussianBlur stdDeviation="2"/>
<feColorMatrix type="matrix" values="0 0 0 0 0.0235294 0 0 0 0 0.0470588 0 0 0 0 0.0941176 0 0 0 1 0"/>
<feBlend mode="normal" in2="BackgroundImageFix" result="effect1_dropShadow_112_1005"/>
<feColorMatrix in="SourceAlpha" type="matrix" values="0 0 0 0 0 0 0 0 0 0 0 0 0 0 0 0 0 0 127 0" result="hardAlpha"/>
<feOffset dx="-4" dy="-4"/>
<feGaussianBlur stdDeviation="2"/>
<feColorMatrix type="matrix" values="0 0 0 0 0.227451 0 0 0 0 0.266667 0 0 0 0 0.364706 0 0 0 0.5 0"/>
<feBlend mode="normal" in2="effect1_dropShadow_112_1005" result="effect2_dropShadow_112_1005"/>
<feBlend mode="normal" in="SourceGraphic" in2="effect2_dropShadow_112_1005" result="shape"/>
</filter>
<linearGradient id="paint0_linear_112_1005" x1="217" y1="58" x2="194.372" y2="-36.5865" gradientUnits="userSpaceOnUse">
<stop/>
<stop offset="1" stop-color="white" stop-opacity="0"/>
</linearGradient>
</defs>
</svg>
